<?xml version="1.0" encoding="utf-8"?>
<!-- Generator: Adobe Illustrator 22.0.1, SVG Export Plug-In . SVG Version: 6.00 Build 0)  -->
<svg version="1.1" id="Слой_1" xmlns="http://www.w3.org/2000/svg" xmlns:xlink="http://www.w3.org/1999/xlink" x="0px" y="0px"
	 viewBox="0 0 1000 1000" style="enable-background:new 0 0 1000 1000;" xml:space="preserve">
<style type="text/css">
	.st0{fill:url(#SVGID_1_);}
	.st1{fill:url(#SVGID_2_);}
	.st2{fill:url(#SVGID_3_);}
	.st3{fill:url(#SVGID_4_);}
	.st4{fill:url(#SVGID_5_);}
	.st5{fill:url(#SVGID_6_);}
	.st6{fill:url(#SVGID_7_);}
	.st7{fill:#FFC5E8;}
	.st8{fill:#871833;}
	.st9{fill:#7A0E2D;}
	.st10{fill:#EABA65;}
</style>
<g id="Слой_2_2_">
	<g>
		<g>
			
				<linearGradient id="SVGID_1_" gradientUnits="userSpaceOnUse" x1="698.1937" y1="834.7299" x2="698.1937" y2="390.6287" gradientTransform="matrix(-0.941 0.3384 -0.3384 -0.941 1178.4547 754.0741)">
				<stop  offset="0" style="stop-color:#ECA1C4;stop-opacity:0.7"/>
				<stop  offset="1" style="stop-color:#D1658D"/>
			</linearGradient>
			<path class="st0" d="M318.7,600.4C297,593.3,187.2,555.1,143,447.7c-9.3-22.5-32.9-82.9-8.8-145.9c6.8-17.5,15.3-30.7,22.1-39.6
				c2,4.9,5.8,12.8,13.3,20.3c10.8,10.6,23.2,14.2,28.7,15.3c-4.4-8.8-10.2-18.8-18.3-29.4c-5.8-7.7-11.9-14.2-17.3-19.4
				c10.6-10.6,28.8-26.3,55-36.5c14.4-5.7,28.8-8.6,88.4-11.1c48-2.2,71.8-3.3,78-1.1c47.5,17.2,66.6,79.2,80,122.7
				c13.3,43.5,6,47.7,20.3,117.2c17.7,86.4,34.7,101.9,23.6,122.5C476.1,622.7,341.3,603.9,318.7,600.4z"/>
			
				<linearGradient id="SVGID_2_" gradientUnits="userSpaceOnUse" x1="294.9418" y1="820.9413" x2="536.1665" y2="403.1281" gradientTransform="matrix(-0.941 0.3384 -0.3384 -0.941 1178.4547 754.0741)">
				<stop  offset="0" style="stop-color:#ECA1C4;stop-opacity:0.7"/>
				<stop  offset="1" style="stop-color:#D1658D"/>
			</linearGradient>
			<path class="st1" d="M623.8,542c31.6-19.7,34.7-45.6,59.7-90.7c50.2-90.6,90.4-85.1,96.8-137.5c5.3-41.1-15.9-75.2-45.8-123.4
				c-30.3-49.5-65.5-82.7-89.5-102.6c-5.7,3.8-14.2,10.8-21.5,21.9c-7.9,12.1-11,23.4-12.2,29.9c-2.6-6.8-7.5-21.7-4-39.6
				c1.6-8.4,4.6-15.2,7.3-20.1c-23.9,1.1-69.6,6.4-116.3,34.9c-25,15.2-93.1,63-106.6,146.3c-7.7,46.7,5.5,81.6,23.7,130.2
				C435,443.9,473.9,546.9,550,558.4C587.8,564,619.2,544.9,623.8,542z"/>
			
				<linearGradient id="SVGID_3_" gradientUnits="userSpaceOnUse" x1="95.8253" y1="356.5362" x2="521.8278" y2="356.5362" gradientTransform="matrix(-0.941 0.3384 -0.3384 -0.941 1178.4547 754.0741)">
				<stop  offset="0" style="stop-color:#ECA1C4;stop-opacity:0.7"/>
				<stop  offset="1" style="stop-color:#D1658D"/>
			</linearGradient>
			<path class="st2" d="M572.7,606.8c21.5,38.2,59,51.9,133.5,78c61.7,21.7,92.8,32.5,124.5,24.5c39.1-9.7,63-38,105-86.4
				c27.8-32.1,47.1-61.5,59.3-81.6c-11-3.7-23.2-6.9-36.9-9.9c-14.6-3.1-28.3-4.9-40.7-5.8c8-3.5,17.2-6.9,27.4-9.9
				c16.3-4.6,30.9-6.9,43.3-7.9c-7.5-19.4-20.3-45.8-40.7-73.9c-11-15-31.6-43.1-65-66.5c-23.9-16.8-85.5-59.9-144.1-43.3
				c-38.3,11-27.9,33.8-114.1,118.1c-37.2,36.3-56.1,48.8-63.7,79.4C549.1,563.9,569.6,601.7,572.7,606.8z"/>
			
				<linearGradient id="SVGID_4_" gradientUnits="userSpaceOnUse" x1="1067.1288" y1="430.1947" x2="602.9402" y2="430.1947" gradientTransform="matrix(-0.941 0.3384 -0.3384 -0.941 1178.4547 754.0741)">
				<stop  offset="0" style="stop-color:#ECA1C4;stop-opacity:0.7"/>
				<stop  offset="1" style="stop-color:#D1658D"/>
			</linearGradient>
			<path class="st3" d="M483.9,609.7c3.1,43.5-62.3,81.6-192.8,157.4c-103,59.7-132,55.7-148.6,48.2
				c-36.7-16.4-25.7-54.2-89.1-114.5C27.5,676,8.8,666.7,5.5,643.1c-4.2-28.3,16.8-53.5,30.3-69.4C76,527,129.5,510,153.6,503.8
				C287.5,470.6,478.5,534.8,483.9,609.7z"/>
			
				<linearGradient id="SVGID_5_" gradientUnits="userSpaceOnUse" x1="614.7112" y1="61.1538" x2="614.7112" y2="367.9431" gradientTransform="matrix(-0.941 0.3384 -0.3384 -0.941 1178.4547 754.0741)">
				<stop  offset="0" style="stop-color:#ECA1C4;stop-opacity:0.7"/>
				<stop  offset="1" style="stop-color:#D1658D"/>
			</linearGradient>
			<path class="st4" d="M767.3,755c4.7,28.7-9.3,58.1-28.1,75.8c-17.9,16.6-33.4,16.3-67.4,26.8c-68.8,21.2-63.7,40.9-118.7,55.5
				c-35.2,9.3-63.2,7.9-119.2,4.2c-73.4-4.4-88.9-17.9-94.6-23.7c-21.7-21.9-21.5-53.3-22.3-69c-4.6-97.5,90.9-164.7,110.5-178.4
				c27.4-19.4,56.8-40,99.9-43.6c61.5-5.3,106.4,28.5,178.6,82.2C753.3,720,764.2,737,767.3,755z"/>
			
				<radialGradient id="SVGID_6_" cx="556.1291" cy="384.3445" r="67.2742" gradientTransform="matrix(-0.941 0.3384 -0.3384 -0.941 1178.4547 754.0741)" gradientUnits="userSpaceOnUse">
				<stop  offset="0" style="stop-color:#743659"/>
				<stop  offset="1" style="stop-color:#EC7A9F;stop-opacity:0.5"/>
			</radialGradient>
			<path class="st5" d="M601.5,569.3c3.1,26.8-21.9,49.5-40.7,58.2c-23.6,11.1-46,5.1-72.9-2.2c-18.4-4.9-30.3-8.2-34.9-18.3
				c-8.9-19.4,16.6-46.9,23.9-54.8c10.8-11.7,26.3-28.5,50.6-31C558.4,518,597.9,537.9,601.5,569.3z"/>
			
				<radialGradient id="SVGID_7_" cx="468.3318" cy="485.6732" r="180.2888" gradientTransform="matrix(-0.6512 -0.9959 0.9121 -0.5965 377.5685 1328.312)" gradientUnits="userSpaceOnUse">
				<stop  offset="9.189189e-02" style="stop-color:#7E384F"/>
				<stop  offset="1" style="stop-color:#A1384F;stop-opacity:0.6"/>
			</radialGradient>
			<path class="st6" d="M454.5,701.7c-7.1-4.2,22.3-50.4,8.4-65.9c-15.9-17.3-79.1,16.8-82,11c-2.4-4.9,41.4-25.7,38.7-35.4
				c-2-7.5-30.7-8.4-111.6,4.4l0,0c-0.2-0.4,108.1-26.8,110.6-62.8c1.6-24.8-48-42.7-42.9-56.6c4.7-13,47.5,4.7,73.4-16.1
				c37.1-29.6,12.4-116.7,20.1-118c7.3-1.3,21.4,81.4,36.7,81.3c8.4-0.2,21.5-23.2,38-145c-2.9,57.7,2.6,99,8,124.9
				c2.2,11,6,26.3,15.9,29.2c17.5,4.9,33.8-34,53.5-30.5c20.3,3.5,13.7,46.9,47.7,71.2c21.2,15.3,42.5,11.7,43.5,20.1
				c1.8,15.2-65.5,25.6-67.4,46.6c-0.7,10.8,15.2,26.5,87.6,48.6c2.9,0.9-46.9-19.2-71.9-0.5c-22.8,17.2-11.5,55.5-32.3,64.5
				c-16.8,7.1-33.6-14.1-44.4-7.9c-9.3,5.3-11.5,29.9,13.9,108.6c-22.1-66.3-39.6-98.2-52.8-96.6c-15.2,2-24.3,50.6-27.2,145.7
				c6.8-121.8-3.3-154.8-15.9-157.6C486.1,661.6,461.3,705.9,454.5,701.7z"/>
		</g>
		<g>
			<path class="st7" d="M739.7,732.8c-1.1,11.3-4.4,28.3-14.2,46.2c-24.1,43.6-74.3,66.8-120,66.3c-12.6-0.2-34.1-2.2-59.2-14.6
				c-9.3,7.7-18.6,15.2-27.8,22.8c-3.1-6.6-6.4-13-9.7-19.7c-14.2,7.9-35.8,19.4-62.6,32.9c-20.5,10-24.1,11-26.5,12.1
				c-15.9,7.5-44.7,5.3-101.9-40.4c6.2,10.2,18.4,27.2,39.8,39.6c8,4.7,22.3,12.8,40.7,13.7c40.9,1.8,55.1-33.6,88-26.7
				c16.1,3.5,21.4,13.9,34.7,10.6c13.5-3.3,14.6-15.7,27.8-22.8c17.9-9.5,30.5,5.5,59,7.1c37.8,2.2,68.5-21.4,89.3-37.1
				c14.6-11.3,26.7-20.6,35.1-38.2C742.7,762.9,741.2,742.6,739.7,732.8z"/>
			<path class="st7" d="M991.5,539.6c-8.2,29-21.5,44.2-32.5,52.8c-18.1,14.2-31.6,12.1-48.2,30.1c-13.1,14.2-10,21.5-22.8,36.5
				c-14.6,17.3-32.5,24.1-45.8,29.4c-50.9,19.7-104.6,4.7-120.7-0.2c15,8.9,40,20.6,72.3,22.6c13.9,0.9,34,2,56.2-7.5
				c21.4-8.8,33.6-22.5,48-37.8c28.3-30.5,20.8-38.5,42.4-53.9c14.4-10.2,27.2-13.3,38.2-29c6.9-9.9,9.9-20.3,10.2-21.7
				C991.2,552.2,991.5,544.7,991.5,539.6z"/>
			<path class="st7" d="M659.9,489.2c4-35.1,16.3-56.1,26.7-68.7c19.9-24.3,39.6-26.5,68.1-60.4c12.8-15.3,20.8-25,24.3-39.6
				c9.1-39.3-25-75.6-32.5-83.4c5.8,8,16.1,24.1,19.4,46.9c0.9,5.5,3.8,26.3-3.5,47.5c-14.2,41.6-54,41.3-81.4,80.7
				C671.1,426.7,659.8,450.5,659.9,489.2z"/>
			<path class="st7" d="M352.5,604.9c-21.2-3.1-54-10.2-90-29.2c-18.8-9.9-74.3-40.2-110.3-106.6c-21.5-40.2-28.1-78.3-29.9-104.8
				c4.7,15.7,12.4,38,25.2,63c10.8,20.6,39.3,71.4,96,117C283.3,576.3,322.9,594.4,352.5,604.9z"/>
			<path class="st7" d="M215.5,767.1c-7.7-6.6-18.6-17.5-27.4-33.8c-13.1-23.6-9.7-36-21.9-53.9c-4.6-6.9-11.1-13.5-45.1-32.5
				c-17.5-9.7-41.6-22.5-71.9-35.8c22.3,7.3,45.3,14.4,69.4,21.2c19.4,5.7,38.3,10.6,57,15.3c-0.9,7.1-1.6,14.4-2.6,21.5
				c6.6-0.5,13.3-1.3,19.9-2c-2.2,13.3-3.8,37.4,5.3,64.8C202.9,747.2,209.7,758.9,215.5,767.1z"/>
			<path class="st7" d="M451.1,472c-22.8-32.1-55.5-88.6-60.3-160.7c-2.9-40.9,4.6-67.4,6.6-74.3c13-43.5,38.5-71.9,53.9-86.2
				c-14.6,23-30.9,55.3-39.8,96.6C388.1,355.7,435,444.5,451.1,472z"/>
		</g>
		<g>
			<path class="st8" d="M538.2,571.5c11.9-18.6,25.2-44.2,34.1-76.5c19.4-70.8,5.3-131.6-3.8-160.5c5.8,27,11.3,67.6,5.8,116.1
				C568.3,504.3,551.1,545.8,538.2,571.5z"/>
			<path class="st8" d="M539.4,560.8c-3.1,1.1-6,2.2-9.1,3.3c-11.3-29.2-22.3-61.4-32.1-96.4c-15.2-53.9-24.6-103.9-30.3-148.4
				c5.1,44.6,15.5,98.2,35.8,156.7C514.8,507.6,527,535.7,539.4,560.8z"/>
			<path class="st8" d="M527.4,570.3c-15.5-8.6-33-17-52.6-24.8c-55-21.5-105.5-28.7-144.4-30.3c23.6-1.3,57.2-0.5,95.7,9.3
				C472.1,536.1,506.2,555.7,527.4,570.3z"/>
			<path class="st8" d="M551.9,566.6c-1.3-1.3-2.7-2.6-3.8-3.7c11-8,23.6-16.3,37.6-23.7c45.6-24.3,89.1-32.9,120.7-35.6
				c-26.7,4.2-61.5,12.6-99.3,30.7C585.1,544.5,566.8,555.8,551.9,566.6z"/>
			<path class="st8" d="M532.1,576.3c-0.5-1.5-1.1-3.1-1.6-4.4c-6.9,0.9-17.2,2.4-29.8,2.9c-40.2,2.4-71.2-2.4-91.8-5.7
				c-12.8-2-29.8-5.1-49.8-10.4c13.9,4.6,28.8,8.6,45.5,12.1C453.6,580.8,497.6,580.1,532.1,576.3z"/>
			<path class="st8" d="M544.4,574.5c17.3,7.1,45.3,15.3,78.3,10.4c6.8-1.1,13.1-2.6,19-4.4c-13.1,1.8-29.4,2.9-48,2
				C573.9,581.4,557.5,578.1,544.4,574.5z"/>
			<path class="st8" d="M534,580.8c-6.8,9.3-16.6,20.3-30.7,29c-49.1,30.1-106.6,6.2-114.7,2.6c12.1,4.4,31,9.7,54.6,8.8
				c32.9-1.3,55.9-13.9,60.8-16.8C517.7,596.6,527.6,587.4,534,580.8z"/>
			<path class="st8" d="M541.1,565.3c-0.2-26.1-1.6-54-4.4-83.3c-4.2-45.5-11-87.1-19-124.2c10.2,34.9,19.4,78,22.8,127.8
				C542.7,514.8,542.4,541.6,541.1,565.3z"/>
			<path class="st8" d="M535.6,564.8c-0.9,2.2-2,4.2-2.9,6c-17.3-14.2-35.2-29.9-53.1-47.7c-54-53.3-93.9-107.9-122.9-156.1
				c22.1,35.4,51.9,76.7,91.3,118.7C478.6,517.9,508.6,543.8,535.6,564.8z"/>
			<path class="st8" d="M535.1,570.3c-17-29.9-34.1-60.6-51.1-92c-23-42.4-44.9-84.2-65.7-125.4c16.4,35.6,34.7,72.7,55.3,111
				C494.2,501.6,514.6,537.2,535.1,570.3z"/>
			<path class="st9" d="M545.3,602.9c12.6-2.4,25.7-13.1,26.5-29.9c0.9-16.8-11-31.6-24.3-36.3c-19.4-6.8-40.2,8.2-42.4,27.4
				c-1.8,16.1,9.9,28.3,10.4,29C527.8,605.9,543.3,603.3,545.3,602.9z"/>
		</g>
		<g>
			<path class="st10" d="M582.9,340c-2-6.8-7.9-13.5-14.2-12.1c-6.2,1.5-8.9,9.9-7.7,17c0.9,5.1,3.8,11.1,8.8,13.3
				c4,1.8,8.2,0.9,11-2.4C584.2,351.5,584.5,344.9,582.9,340z"/>
			<path class="st10" d="M523.2,358.6c0-3.8-2.9-8.4-5.5-8.2c-1.8,0.2-3.1,2.6-3.7,3.8c-1.6,4.7,3.1,8.9,3.3,9.1
				c0.9,0.7,2,1.6,3.1,1.5C522.3,364.5,523.2,361,523.2,358.6z"/>
			<path class="st10" d="M472.1,331.1c1.5-1.8,1.3-4.2,1.3-5.3c-0.4-4.2-2.9-8.8-5.1-8.6c-1.6,0-2.6,4-2.7,6.2
				c-0.4,4,1.1,9.1,3.5,9.7C470.6,333.1,471.9,331.4,472.1,331.1z"/>
			<path class="st10" d="M423.9,361c1.8-2.6-1.1-6.9-3.3-9.1c-1.3-1.3-4.6-3.8-6-2.9c-2,1.1-0.9,6.6,1.1,9.9
				c0.7,1.5,1.8,3.3,3.8,3.7C420.9,363,423.1,362.3,423.9,361z"/>
			<path class="st10" d="M370.4,382.2c1.8-6.9-3.3-12.6-5.3-14.6c-3.5-3.7-10-8.4-13.3-6.2c-3.1,2-2,8.6-1.5,11.5
				c1.1,6.9,5.7,18.1,12.1,17.7C366.2,390.2,369.4,385.8,370.4,382.2z"/>
			<path class="st10" d="M347.2,516.8c-2.4,5.7-15.7,8.2-22.1,2.6c-2.6-2.2-4.7-6.4-3.5-9.7c2.4-5.7,15.7-8.2,22.1-2.6
				C346.3,509.3,348.8,513.5,347.2,516.8z"/>
			<path class="st10" d="M368.9,558c-2.2-4-11.7-3.3-13-0.4c-0.9,1.8,1.3,4.2,1.6,4.4c2.7,3.1,8.4,4,10.8,1.3
				C369.4,562,369.8,559.5,368.9,558z"/>
			<path class="st10" d="M378,611.2c-0.2-3.7,3.1-6.2,5.5-6.9c6-2,15,4,15.5,9.5c0.4,4.4-4.4,8.4-9.1,8.2
				C384.6,621.7,378.2,616.3,378,611.2z"/>
			<path class="st10" d="M718.7,502.7c0.2,3.7-6.9,6.2-8.6,6.9c-3.1,1.1-7.7,2.9-11,0c-2-1.6-2.7-4.4-2.4-6.8
				c0.9-5.5,8.2-6.8,8.6-6.9C711.4,495,718.7,499,718.7,502.7z"/>
			<path class="st10" d="M657.8,582.9c0.7,4.2-5.5,7.5-6,7.9c-1.3,0.7-8.4,4.6-13.9-0.7c-2.4-2.2-4.4-6.6-3.7-10
				c1.5-5.7,10.8-4.4,12.1-4.4C650.3,576.5,657,578.8,657.8,582.9z"/>
			<path class="st10" d="M605.4,501.2c3.1,0.7,6.2-1.8,6.9-2.6c1.6-1.5,3.8-4.6,2.9-6c-1.1-2-6.6-0.9-9.9,1.1
				c-1.5,0.7-3.7,2.2-3.7,3.8C601.3,499.4,603.5,500.7,605.4,501.2z"/>
			<path class="st10" d="M579.1,610.2c-1.3,1.5-4.9-0.2-5.3-0.4c-0.7-0.4-5.1-2.2-4.9-5.8c0-1.6,0.9-3.7,2.4-4.2
				c2.7-0.9,5.8,3.1,6.2,3.8C578.5,605.3,580.3,608.8,579.1,610.2z"/>
			<path class="st10" d="M477,556.2c0.7-1.8,4.6-1.6,5.3-1.6c0.7,0.2,5.5,0.2,6.8,3.7c0.5,1.5,0.5,3.7-0.7,4.7
				c-2.2,2-6.6-0.7-7.1-1.1C479.2,560.4,476.3,557.8,477,556.2z"/>
			<path class="st10" d="M459.1,594.2c0-1.5,1.8-2.6,2.9-3.1c3.1-1.1,7.1,1.1,7.1,3.3c0,1.6-2.4,3.7-4.7,3.7
				C461.8,598.2,459.1,596.2,459.1,594.2z"/>
			<path class="st10" d="M397.2,453.8c-0.4-3.3-3.7-4.9-4.9-5.5c-2.2-0.9-5.8-2-6.8-0.5c-1.1,1.3,0.7,4,1.3,5.1
				c1.8,2.9,5.7,6.9,8.2,5.7C396.7,458,397.4,455.6,397.2,453.8z"/>
			<path class="st10" d="M466.6,471.3c1.6-2.7-1.5-6.8-3.8-8.9c-1.5-1.3-4.6-3.8-6.4-2.6c-1.8,1.3-0.5,6.6,1.5,10
				c0.9,1.5,2,3.1,4.2,3.5C463.7,473.5,465.7,472.8,466.6,471.3z"/>
			<path class="st10" d="M555.1,481.3c2.9-1.3,2.9-6.4,2.2-9.5c-0.4-1.8-1.6-5.8-3.7-5.8c-2.2-0.2-4.2,4.9-4.6,8.8
				c-0.2,1.6-0.2,3.8,1.3,5.1C551.7,481.3,553.5,481.9,555.1,481.3z"/>
			<path class="st10" d="M649.9,415.2c5.7,4.7,0.2,13.1-4,17.2c-2.7,2.6-9.7,7.3-14.2,5.7c-5.5-2.2-5.1-12.1-1.8-18.8
				c1.3-2.7,3.3-6.2,8.2-6.9C641.5,411.6,647,412.5,649.9,415.2z"/>
			<path class="st10" d="M511,637.5c5.3-0.5,8.9-9.5,5.7-14.2c-2.2-3.3-7.7-5.1-11.7-2c-3.7,3.1-3.3,8.9-0.9,12.6
				C505.8,636,508.4,637.8,511,637.5z"/>
			<path class="st10" d="M604.4,563.1c1.3-1.5,1.6-3.8,0.5-5.3c-1.6-2.4-6-2.4-7.7,0.2c-1.5,2.4-0.2,6,2.6,6.9
				C601.5,565.3,603.3,564.4,604.4,563.1z"/>
		</g>
	</g>
</g>
</svg>
