<?xml version="1.0" encoding="utf-8"?>
<!-- Generator: Adobe Illustrator 22.0.1, SVG Export Plug-In . SVG Version: 6.00 Build 0)  -->
<svg version="1.1" id="Слой_1" xmlns="http://www.w3.org/2000/svg" xmlns:xlink="http://www.w3.org/1999/xlink" x="0px" y="0px"
	 viewBox="0 0 1000 551" style="enable-background:new 0 0 1000 551;" xml:space="preserve">
<style type="text/css">
	.st0{fill:#753647;}
	.st1{fill:url(#SVGID_1_);}
	.st2{fill:url(#SVGID_2_);}
	.st3{fill:url(#SVGID_3_);}
	.st4{fill:url(#SVGID_4_);}
	.st5{fill:url(#SVGID_5_);}
	.st6{fill:url(#SVGID_6_);}
	.st7{fill:url(#SVGID_7_);}
	.st8{fill:#FFC5E8;}
	.st9{fill:#871833;}
	.st10{fill:#7A0E2D;}
	.st11{fill:#EABA65;}
	.st12{fill:url(#SVGID_8_);}
	.st13{fill:url(#SVGID_9_);}
	.st14{fill:url(#SVGID_10_);}
	.st15{fill:url(#SVGID_11_);}
	.st16{fill:url(#SVGID_12_);}
	.st17{fill:url(#SVGID_13_);}
	.st18{fill:url(#SVGID_14_);}
	.st19{fill:url(#SVGID_15_);}
	.st20{fill:url(#SVGID_16_);}
	.st21{fill:url(#SVGID_17_);}
	.st22{fill:url(#SVGID_18_);}
	.st23{fill:url(#SVGID_19_);}
	.st24{fill:url(#SVGID_20_);}
	.st25{fill:url(#SVGID_21_);}
	.st26{fill:#B52C6A;}
	.st27{fill:#F45DA2;}
	.st28{fill:#D34689;}
	.st29{fill:#E874AC;}
	.st30{fill:url(#SVGID_22_);}
	.st31{fill:url(#SVGID_23_);}
	.st32{fill:url(#SVGID_24_);}
	.st33{fill:url(#SVGID_25_);}
	.st34{fill:url(#SVGID_26_);}
	.st35{fill:url(#SVGID_27_);}
	.st36{fill:#CC4E6C;}
	.st37{fill:#C13D56;}
	.st38{fill:#DD5878;}
</style>
<g id="Слой_3">
	<g>
		<path class="st0" d="M459.1,9.9c-7.2,17.5-14.3,34.9-21.5,52.4c-44.2,3.9-77.5,16.3-98.3,25.8c-10.2,4.7-40.4,19.1-73.2,47.3
			c-25.6,22.1-43.4,44.5-55.2,61.7c12.2,0.3,26,1.6,40.9,5c48.9,11.2,82.5,38.1,100.4,55.2c-7,18.8-17.9,41.5-35.2,64.6
			c-44.6,59.5-103.9,83.9-132,93.3c-42.8,17.1-97.9,47.1-144.2,101.2c-8,9.3-15.1,18.7-21.5,28c-4.8-4.3-9.6-8.6-14.3-12.9
			c11.4-19.6,31.1-48.4,63.1-74.6C88.6,440,99.2,436.6,175,396.5c75.6-40,90.2-52.1,102.6-64.6c24.9-25,39.1-51.6,47.3-70.3
			c-7.7-7.4-19.1-17-34.4-25.8c-25.6-14.7-48.6-19.1-61.7-21.5c-11.6-2.1-26.7-4-44.5-3.6c4.5-8.2,11.8-20.6,22.2-34.4
			c48.1-64,109.9-91.4,132.7-101.2C359.8,66.3,391,55.3,431,50c6.9-14.1,13.9-28.2,20.8-42.3C454.3,8.4,456.7,9.1,459.1,9.9z"/>
		<path class="st0" d="M242.5,146.9c1.5-5.4,3.1-13,2.9-22.2c-0.3-11.9-3.3-21.4-5.7-27.3c2.6-0.5,5.3-1,7.9-1.4
			c1.6,6.1,3,13.6,3.6,22.2c0.7,11-0.2,20.6-1.4,28C247.2,146.4,244.8,146.6,242.5,146.9z"/>
		<path class="st0" d="M353.6,209.3c-2.6,4.4-6.9,12.8-7.9,24.4c-1.1,11.8,1.8,21.1,3.6,25.8c-3.3-1.7-6.7-3.3-10-5
			c-1.4-4.6-3.3-12.5-2.2-22.2c1.5-13.3,7.7-22.5,10.8-26.5C349.8,206.9,351.7,208.1,353.6,209.3z"/>
		<path class="st0" d="M198.7,197.8c0.2,2.9,0.5,5.7,0.7,8.6c-3.3-2.1-8.6-5-15.8-6.5c-4.8-1-9-1-12.2-0.7c0-1.7,0-3.3,0-5
			c3.6-0.6,8.9-1,15.1,0C191.5,195,195.7,196.5,198.7,197.8z"/>
		<path class="st0" d="M333.6,285.3c7.4,1.2,14.8,2.4,22.2,3.6c4.5,4.1,9.1,8.1,13.6,12.2c-1,1.7-1.9,3.3-2.9,5
			c-3-3.3-5.8-5.6-7.9-7.2c-2.3-1.7-4.2-3.1-7.2-4.3c-1.9-0.8-3.4-1.1-10-2.2c-2.6-0.4-6.1-0.9-10-1.4
			C332.1,289.2,332.8,287.2,333.6,285.3z"/>
		<path class="st0" d="M299.8,486.2c-1-0.2-1.9-0.5-2.9-0.7c-0.7-6.5-1.1-18.9,5-32.3c2.6-5.7,5.8-10.3,8.6-13.6
			c7.6-3.4,15.3-6.7,23-10c5.5-2.4,11-4.8,16.5-7.2c2.3-3.6,5.9-9.2,10.8-15.8c7.2-9.8,9.3-11.4,10-15.8c1.1-6.8-2.6-12.4-8.6-21.5
			c-3.4-5.1-8.6-12.1-16.5-19.4c-1-7.6-3.3-18.4-9.3-30.1c-3.7-7.2-7.8-12.9-11.5-17.2c1.4-3.1,2.9-6.2,4.3-9.3
			c1.9-1,3.8-1.9,5.7-2.9c0.6,4.1,1.5,9.2,2.9,15.1c1.9,8.2,5.1,21.2,12.9,35.9c2.5,4.7,4.5,7.7,7.9,12.9
			c7.1,10.9,13.8,19.3,18.7,25.1c-0.6,2.5-1.4,6.2-1.4,10.8c-0.1,7.1,1.5,7.9,0.7,11.5c-1.4,6.3-7.2,7.2-14.3,15.1
			c-4,4.4-6.4,8.9-7.9,12.2c-2.7,0.6-6.8,1.6-11.5,3.6c-5.7,2.4-7.6,4.2-14.3,7.9c-11.9,6.6-12.1,4.5-15.8,7.9
			c-4.8,4.5-6.4,9.9-9.3,20.1C301.4,475.5,300.4,481.7,299.8,486.2z"/>
		<path class="st0" d="M327.8,65.8c-2.6,7.7-5.3,15.3-7.9,23c2.9-1,5.7-1.9,8.6-2.9c1.7-5.5,3.3-11,5-16.5
			C331.6,68.2,329.7,67,327.8,65.8z"/>
		<g>
			<g>
				
					<linearGradient id="SVGID_1_" gradientUnits="userSpaceOnUse" x1="1133.071" y1="485.1096" x2="1133.071" y2="353.3784" gradientTransform="matrix(-1 0 0 1 1298.6479 0)">
					<stop  offset="0" style="stop-color:#ECA1C4;stop-opacity:0.7"/>
					<stop  offset="1" style="stop-color:#D1658D"/>
				</linearGradient>
				<path class="st1" d="M148.1,366.7c-5.3,4.2-32.2,25.9-33.7,60.3c-0.3,7.2-0.9,26.5,12.2,41.6c3.6,4.2,7.4,7,10.1,8.8
					c0-1.6,0.3-4.2,1.7-7c2-4.1,5-6.3,6.5-7.2c-0.3,2.9-1,6.3-2.2,10c-0.9,2.7-1.9,5.1-2.9,7.2c4,1.9,10.7,4.5,19,4.7
					c4.6,0.1,8.9-0.5,25.8-5.7c13.6-4.2,20.4-6.3,21.9-7.5c11.6-9.6,10.7-28.8,10-42.3c-0.6-13.5-3.1-13.9-6.1-34.8
					c-3.7-25.9-0.6-31.9-5.7-36.6C189.9,344.7,154.1,363.5,148.1,366.7z"/>
				
					<linearGradient id="SVGID_2_" gradientUnits="userSpaceOnUse" x1="1013.2891" y1="481.2959" x2="1084.9231" y2="357.2219" gradientTransform="matrix(-1 0 0 1 1298.6479 0)">
					<stop  offset="0" style="stop-color:#ECA1C4;stop-opacity:0.7"/>
					<stop  offset="1" style="stop-color:#D1658D"/>
				</linearGradient>
				<path class="st2" d="M239.2,352.4c10.8,2.3,14.3,9.2,25.8,19.4c23.1,20.2,33.8,14.7,40.9,28.7c5.6,11,3.1,22.6-0.4,39.1
					c-3.5,16.9-10,29.7-14.7,37.7c-1.9-0.5-5.1-1.6-8.2-3.9c-3.4-2.5-5.4-5.4-6.5-7.2c-0.1,2.2,0.1,6.8,2.9,11.5
					c1.3,2.2,2.8,3.8,4.1,4.9c-6.8,2.1-20,5.2-36,1.9c-8.5-1.7-32.3-8.2-44.5-30.1c-6.8-12.3-6.7-23.4-6.5-38.7
					c0.2-16.8,0.7-49.4,20.8-60.3C227,349.9,237.7,352.1,239.2,352.4z"/>
				
					<linearGradient id="SVGID_3_" gradientUnits="userSpaceOnUse" x1="954.4479" y1="343.2477" x2="1080.7015" y2="343.2477" gradientTransform="matrix(-1 0 0 1 1298.6479 0)">
					<stop  offset="0" style="stop-color:#ECA1C4;stop-opacity:0.7"/>
					<stop  offset="1" style="stop-color:#D1658D"/>
				</linearGradient>
				<path class="st3" d="M218.4,339.5c2.2-12.8,11.3-20.4,29.4-35.2c15.1-12.3,22.6-18.4,32.3-19.4c11.8-1.2,21.4,4.3,38,13.6
					c11,6.2,19.4,12.5,24.7,16.9c-2.7,2.1-5.8,4.3-9.3,6.5c-3.8,2.3-7.4,4.2-10.8,5.7c2.6,0.2,5.5,0.2,8.6,0c5-0.3,9.3-1.2,12.9-2.2
					c-0.2,6.2-1,14.8-3.9,24.7c-1.6,5.3-4.5,15.2-11.5,25.1c-5,7.1-17.8,25.3-35.9,26.5c-11.8,0.8-11.2-6.6-43.8-21.5
					c-14-6.4-20.6-8-25.8-15.8C216.2,353.8,218.1,341.2,218.4,339.5z"/>
				
					<linearGradient id="SVGID_4_" gradientUnits="userSpaceOnUse" x1="1242.6211" y1="365.0594" x2="1104.8105" y2="365.0594" gradientTransform="matrix(-1 0 0 1 1298.6479 0)">
					<stop  offset="0" style="stop-color:#ECA1C4;stop-opacity:0.7"/>
					<stop  offset="1" style="stop-color:#D1658D"/>
				</linearGradient>
				<path class="st4" d="M193.3,347.5c-3.5-12.5-25.6-16.5-69.7-24.6c-34.8-6.4-42.4-2.3-46.3,1.5c-8.6,8.3-1.7,17.7-13.4,40.9
					c-4.8,9.5-9,14-7.6,20.9c1.7,8.4,10.1,13.3,15.4,16.3c15.9,9,32.6,8.4,40,7.7C152.4,406.2,199.4,369,193.3,347.5z"/>
				
					<linearGradient id="SVGID_5_" gradientUnits="userSpaceOnUse" x1="1108.1605" y1="255.6871" x2="1108.1605" y2="346.6764" gradientTransform="matrix(-1 0 0 1 1298.6479 0)">
					<stop  offset="0" style="stop-color:#ECA1C4;stop-opacity:0.7"/>
					<stop  offset="1" style="stop-color:#D1658D"/>
				</linearGradient>
				<path class="st5" d="M257.9,278.5c-1.6-8.5-8.5-15.3-15.4-18.3c-6.7-2.9-10.9-1.2-21.5-0.7c-21.4,1-21.9-5-38.7-3.6
					c-10.8,0.9-18.4,4.2-33.7,10.8c-20,8.6-23,13.9-24,16.1c-3.8,8.3-0.6,17.1,0.7,21.5c8.5,27.7,41.9,36.9,48.8,38.7
					c9.6,2.6,19.9,5.5,32.3,2.2c17.7-4.7,26.9-18.6,41.6-40.9C257.5,289.7,258.9,283.9,257.9,278.5z"/>
				
					<radialGradient id="SVGID_6_" cx="1090.8043" cy="351.4935" r="20.0027" gradientTransform="matrix(-1 0 0 1 1298.6479 0)" gradientUnits="userSpaceOnUse">
					<stop  offset="0" style="stop-color:#743659"/>
					<stop  offset="1" style="stop-color:#EC7A9F;stop-opacity:0.5"/>
				</radialGradient>
				<path class="st6" d="M230.3,347c-1.9-7.8-11.1-11.6-17.2-12.2c-7.7-0.8-13.4,3.2-20.1,7.9c-4.7,3.3-7.6,5.3-7.9,8.6
					c-0.5,6.3,9.4,11.5,12.2,12.9c4.2,2.2,10.2,5.3,17.2,3.6C223.3,365.7,232.4,356.1,230.3,347z"/>
				
					<radialGradient id="SVGID_7_" cx="721.5863" cy="-172.9781" r="53.4993" gradientTransform="matrix(-0.2758 1.1575 1.0601 0.2526 588.1753 -436.7039)" gradientUnits="userSpaceOnUse">
					<stop  offset="9.189189e-02" style="stop-color:#7E384F"/>
					<stop  offset="1" style="stop-color:#A1384F;stop-opacity:0.6"/>
				</radialGradient>
				<path class="st7" d="M175.9,324.8c-1.6,1.9,11.3,11.9,8.9,17.5c-2.7,6.5-23.8,3.2-24,5.2c-0.2,1.6,14.1,3.1,14.3,6
					c0.2,2.3-7.7,5.4-31.6,10l0,0c0,0.1,32.9-3.3,37.2,6.4c3,6.8-9.1,16.7-6.3,20.1c2.6,3.2,12.8-6.1,22.1-2.9
					c13.3,4.5,15.2,31.4,17.4,31s-2.2-24.9,2.1-26.4c2.4-0.8,8.4,4.3,25.2,36.7c-6.6-15.8-9.2-27.9-10.3-35.7c-0.5-3.3-1-8,1.5-9.8
					c4.4-3.2,12.8,6,18,3.1c5.3-3-0.9-14.5,6.2-24.7c4.4-6.4,10.7-7.5,10.1-10c-1-4.4-20.9-0.5-23.5-6.2c-1.3-2.9,1.6-8.9,19.6-22.4
					c0.7-0.5-11.1,10.1-20,7.3c-8.1-2.5-8.8-14.4-15.5-14.8c-5.4-0.3-8,7.3-11.6,6.7c-3.1-0.5-6.3-7.2-7.1-31.8
					c0.5,20.7-1.2,31.5-5,32.3c-4.5,1-11.9-11.7-22.2-38c14.1,33.3,14.6,43.6,11.4,45.6C188.8,332.9,177.4,322.9,175.9,324.8z"/>
			</g>
			<g>
				<path class="st8" d="M252.5,287.5c-1.5-3.1-4.1-7.5-8.6-11.5c-11.1-9.8-27.5-11.2-40.2-6.5c-3.5,1.3-9.3,4.1-15.1,10
					c-3.3-1.2-6.7-2.4-10-3.6c-0.2,2.2-0.5,4.3-0.7,6.5c-4.8-0.8-11.9-1.8-20.8-2.9c-6.7-0.8-7.9-0.7-8.6-0.7
					c-5.2-0.5-13,3.1-24.4,21.5c0.7-3.5,2.4-9.4,7.2-15.1c1.8-2.1,4.9-5.8,10-7.9c11.2-4.6,18.8,3.9,27.3-1.4c4.1-2.6,4.6-6,8.6-6.5
					c4.1-0.4,5.6,3,10,3.6c5.9,0.9,8-4.6,15.8-7.9c10.4-4.4,21.3-0.9,28.7,1.4c5.2,1.7,9.5,3.1,13.6,7.2
					C250.3,278.8,251.9,284.6,252.5,287.5z"/>
				<path class="st8" d="M342.2,316.2c-5.2-7.2-10.4-10.2-14.3-11.5c-6.5-2.2-10-0.2-16.5-3.6c-5.1-2.7-5-5-10-7.9
					c-5.8-3.3-11.5-3.5-15.8-3.6c-16.2-0.4-29.7,9.1-33.7,12.2c3.3-4,9.1-9.8,17.9-13.6c3.8-1.6,9.3-3.9,16.5-3.6
					c6.8,0.3,11.7,2.9,17.2,5.7c10.9,5.7,9.7,8.7,17.2,10.8c5,1.4,9,1,13.6,4.3c2.9,2.1,4.8,4.7,5,5
					C340.8,312.6,341.7,314.7,342.2,316.2z"/>
				<path class="st8" d="M254.6,363.5c4.6,9.4,10.2,14,14.3,16.5c8,4.8,13.7,3.4,25.1,10c5.1,3,8.3,4.9,10.8,8.6
					c6.5,10,0.6,23.6-0.7,26.5c0.8-2.8,2-8.3,0.7-15.1c-0.3-1.6-1.6-7.8-5.7-12.9c-8.2-10.2-19.2-6.1-30.8-14.3
					C264,379.9,258.5,374.4,254.6,363.5z"/>
				<path class="st8" d="M157.1,362.1c-5.6,3-14.1,8.3-22.2,17.2c-4.3,4.7-16.7,18.7-20.1,40.9c-2,13.4,0,24.7,2.2,32.3
					c-0.3-4.9-0.4-11.9,0.7-20.1c0.9-6.8,3.8-23.9,15.1-42.3C140.6,377,149.9,368,157.1,362.1z"/>
				<path class="st8" d="M102.6,330.5c-1.4,2.6-3.4,6.8-4.3,12.2c-1.3,7.9,0.9,11-0.7,17.2c-0.6,2.4-1.7,4.9-9.3,13.6
					c-3.9,4.5-9.4,10.5-16.5,17.2c5.5-4.3,11.2-8.6,17.2-12.9c4.8-3.5,9.6-6.8,14.3-10c-1-1.9-1.9-3.8-2.9-5.7
					c1.9-0.5,3.8-1,5.7-1.4c-1.9-3.5-4.8-10.1-5-18.7C101,337.4,101.8,333.4,102.6,330.5z"/>
				<path class="st8" d="M198,389.3c-3.2,11.3-6.6,30.3-0.7,50.9c3.3,11.7,8.1,18.4,9.3,20.1c8,10.9,18,16.2,23.7,18.7
					c-6.4-4.9-14.2-12.3-20.8-23C192.1,428.1,196.3,398.6,198,389.3z"/>
			</g>
			<g>
				<path class="st9" d="M212.3,352.8c5.2,4,11.5,9.8,17.2,17.9c12.5,17.9,14.7,36.2,15.1,45.2c-1.1-8.1-3.6-20-10-33
					C227.5,368.5,218.5,358.7,212.3,352.8z"/>
				<path class="st9" d="M213.8,355.6c-1,0-1.9,0-2.9,0c-0.2,9.3-0.1,19.4,0.7,30.1c1.2,16.6,3.6,31.5,6.5,44.5
					c-3-13-5.5-29-5.7-47.3C212.2,373,212.8,363.8,213.8,355.6z"/>
				<path class="st9" d="M209.5,354.2c-3.5,4-7.5,8.1-12.2,12.2c-13.2,11.5-26.6,18.6-37.3,23c6.7-2,16-5.6,25.8-12.2
					C197.4,369.3,205,360.4,209.5,354.2z"/>
				<path class="st9" d="M216.6,352.8c-0.2,0.5-0.5,1-0.7,1.4c3.9,1.2,8.2,2.2,12.9,2.9c15.2,2.2,28.2,0.2,37.3-2.2
					c-7.9,1.5-18.5,2.7-30.8,1.4C228.2,355.6,221.9,354.3,216.6,352.8z"/>
				<path class="st9" d="M210.2,352c0,0.5,0,1,0,1.4c-2,0.4-5,1.1-8.6,2.2c-11.4,3.4-19.7,7.8-25.1,10.8c-3.4,1.8-7.8,4.4-12.9,7.9
					c3.4-2.6,7.2-5.3,11.5-7.9C187.8,358.6,200.2,354.4,210.2,352z"/>
				<path class="st9" d="M213.8,351.3c4.1-3.7,11.1-8.8,20.8-10.8c2-0.4,3.9-0.6,5.7-0.7c-3.9,0.8-8.5,2.1-13.6,4.3
					C221.4,346.4,217.1,349,213.8,351.3z"/>
				<path class="st9" d="M210.2,350.6c-2.8-2-6.7-4-11.5-5c-16.8-3.5-30.4,9-32.3,10.8c2.9-2.4,7.7-5.8,14.3-7.9
					c9.3-2.9,17-1.7,18.7-1.4C204.1,347.8,207.8,349.4,210.2,350.6z"/>
				<path class="st9" d="M213.8,354.2c2.5,7.3,5,15.2,7.2,23.7c3.4,13.1,5.7,25.4,7.2,36.6c-0.7-10.8-2.4-23.7-6.5-38
					C219.3,368.1,216.6,360.7,213.8,354.2z"/>
				<path class="st9" d="M212.3,354.9c-0.5-0.5-1-1-1.4-1.4c-3.4,5.7-6.8,11.9-10,18.7c-9.8,20.3-15.4,39.6-18.7,56
					c2.6-12.1,6.8-26.6,13.6-42.3C201.1,373.7,206.8,363.5,212.3,354.9z"/>
				<path class="st9" d="M211.6,353.5c-1.8,10.1-3.4,20.4-5,30.8c-2.2,14.1-4.1,28-5.7,41.6c1-11.6,2.4-23.8,4.3-36.6
					C207,376.7,209.2,364.7,211.6,353.5z"/>
				<path class="st10" d="M211.1,343.3c3.7-0.6,8.5,1.1,10.4,5.7c1.9,4.6,0.1,9.9-3.1,12.6c-4.7,3.8-12,1.7-14.6-3.4
					c-2.1-4.3-0.1-8.9,0-9.1C206,344.2,210.6,343.4,211.1,343.3z"/>
			</g>
			<g>
				<path class="st11" d="M248.1,413c0.1,2.1-0.9,4.6-2.8,4.8c-1.9,0.2-3.5-1.9-3.9-4c-0.3-1.5,0-3.5,1.1-4.6
					c0.9-0.9,2.2-1.1,3.3-0.4C247.3,409.6,248,411.4,248.1,413z"/>
				<path class="st11" d="M229.5,413.7c0.4,1.1,0.1,2.6-0.7,2.9c-0.5,0.2-1.2-0.4-1.4-0.7c-0.9-1.2,0-2.8,0-2.9
					c0.2-0.3,0.4-0.7,0.7-0.7C228.7,412.2,229.3,413.1,229.5,413.7z"/>
				<path class="st11" d="M218.1,426.6c0.6,0.4,0.8,1,0.9,1.4c0.3,1.2,0,2.8-0.5,2.9c-0.5,0.1-1.1-0.9-1.4-1.5c-0.5-1.1-0.6-2.7,0-3
					C217.4,426.1,217.9,426.5,218.1,426.6z"/>
				<path class="st11" d="M201.6,423.1c0.7,0.5,0.4,2.1,0,2.9c-0.2,0.5-0.9,1.5-1.4,1.4c-0.6-0.1-0.9-1.7-0.7-2.9
					c0.1-0.5,0.2-1.1,0.7-1.4C200.5,422.8,201.2,422.8,201.6,423.1z"/>
				<path class="st11" d="M184.5,422.5c1.2,1.7,0.3,3.9,0,4.6c-0.6,1.4-1.9,3.3-3.1,3.1c-1.1-0.2-1.4-2.2-1.6-3.1
					c-0.4-2.1-0.2-5.6,1.6-6.2C182.5,420.6,183.9,421.6,184.5,422.5z"/>
				<path class="st11" d="M164.5,387.2c-1.3-1.4-5.2-0.7-6.5,1.5c-0.5,0.9-0.7,2.3,0,3c1.3,1.4,5.2,0.7,6.5-1.5
					C165,389.4,165.2,388,164.5,387.2z"/>
				<path class="st11" d="M166.4,373.6c-0.2,1.4-2.9,2.1-3.6,1.4c-0.4-0.4,0-1.3,0-1.4c0.5-1.1,1.9-2,2.9-1.4
					C166.2,372.4,166.5,373,166.4,373.6z"/>
				<path class="st11" d="M163.7,357.8c0.4,1,1.5,1.4,2.2,1.4c1.9,0,3.8-2.6,3.4-4.2c-0.3-1.2-2-1.9-3.4-1.4
					C164.4,354.1,163.2,356.3,163.7,357.8z"/>
				<path class="st11" d="M269.7,353.8c-0.3-1-2.5-1.1-3.1-1.1c-1,0-2.5,0-3.1,1.1c-0.4,0.6-0.3,1.5,0,2.1c0.8,1.4,3,1.1,3.1,1.1
					C268.4,356.7,270,354.9,269.7,353.8z"/>
				<path class="st11" d="M244.6,337.6c-0.2-1.2-2.3-1.5-2.5-1.6c-0.4-0.1-2.8-0.4-3.8,1.6c-0.4,0.9-0.6,2.3,0,3.1
					c1,1.5,3.5,0.2,3.8,0C243.1,340.1,244.8,338.8,244.6,337.6z"/>
				<path class="st11" d="M238.1,365.7c0.8-0.6,1.9-0.1,2.2,0c0.6,0.3,1.5,0.9,1.4,1.4c-0.1,0.7-1.7,0.9-2.9,0.7
					c-0.5-0.1-1.2-0.2-1.4-0.7C237.2,366.6,237.7,366,238.1,365.7z"/>
				<path class="st11" d="M219.9,337.9c-0.5-0.3-1.4,0.5-1.5,0.6c-0.2,0.2-1.2,1.1-0.8,2.1c0.2,0.4,0.6,0.9,1.1,0.9
					c0.9,0,1.3-1.5,1.4-1.7C220.2,339.2,220.4,338.1,219.9,337.9z"/>
				<path class="st11" d="M196.8,363.2c0.4,0.4,1.5,0,1.6-0.1c0.2-0.1,1.5-0.6,1.5-1.7c0-0.5-0.2-1.1-0.7-1.3
					c-0.8-0.3-1.8,0.9-1.9,1C197,361.8,196.4,362.8,196.8,363.2z"/>
				<path class="st11" d="M188,354.4c0.2,0.4,0.7,0.5,1.1,0.5c1,0,1.9-1,1.7-1.6c-0.2-0.5-1-0.7-1.7-0.5
					C188.3,353,187.7,353.8,188,354.4z"/>
				<path class="st11" d="M184.8,399.8c0.2,1-0.5,1.7-0.8,2c-0.5,0.5-1.4,1.1-1.9,0.8c-0.4-0.3-0.2-1.2-0.1-1.6
					c0.2-1,0.9-2.5,1.7-2.4C184.3,398.7,184.7,399.3,184.8,399.8z"/>
				<path class="st11" d="M202.4,388c0.7,0.6,0.3,2.1-0.1,2.9c-0.3,0.5-0.9,1.5-1.5,1.4c-0.6-0.2-0.8-1.8-0.6-2.9
					c0.1-0.5,0.2-1.1,0.8-1.4C201.4,387.6,202,387.7,202.4,388z"/>
				<path class="st11" d="M226.1,376.3c0.9,0.1,1.4,1.5,1.6,2.4c0.1,0.5,0.1,1.8-0.4,2c-0.6,0.2-1.7-1-2.2-2c-0.2-0.5-0.4-1-0.2-1.6
					C225.1,376.6,225.7,376.2,226.1,376.3z"/>
				<path class="st11" d="M259.2,385.2c1.1-1.9-1.2-3.7-2.9-4.4c-1-0.4-3.5-1.1-4.6-0.1c-1.3,1.1-0.2,3.9,1.3,5.4
					c0.7,0.6,1.5,1.4,3,1.2C257.3,387.1,258.7,386.2,259.2,385.2z"/>
				<path class="st11" d="M198.1,337.1c1.5-0.4,3.4,1.7,3,3.4c-0.3,1.2-1.7,2.2-3,1.7s-1.9-2.1-1.5-3.4
					C196.8,338,197.4,337.3,198.1,337.1z"/>
				<path class="st11" d="M231.7,348.5c0.5,0.3,0.9,0.9,0.7,1.4c-0.2,0.8-1.5,1.2-2.2,0.7c-0.6-0.5-0.6-1.7,0-2.2
					C230.7,348.1,231.3,348.2,231.7,348.5z"/>
			</g>
		</g>
		<g>
			<g>
				
					<linearGradient id="SVGID_8_" gradientUnits="userSpaceOnUse" x1="-4.9832" y1="-443.6337" x2="-4.9832" y2="-542.4168" gradientTransform="matrix(0.8132 0.5819 0.5819 -0.8132 704.9384 -211.3796)">
					<stop  offset="0" style="stop-color:#FFA1D3;stop-opacity:0.7"/>
					<stop  offset="1" style="stop-color:#C7659C"/>
				</linearGradient>
				<path class="st12" d="M400.4,224.4c7.8-0.5,31.9-3.1,48.3-21.5c4.3-4.9,11.6-13.1,11.8-25.1c0.2-8.2-3-14.5-5-17.9
					c-0.5,0.9-2.1,3.1-5,4.3c-1.8,0.7-3.3,0.8-4.3,0.7c1-1.2,2.6-3.3,3.6-6.5c0.7-2.3,0.8-4.4,0.7-5.7c-3.8-3.5-10-8.5-18.7-12.2
					c-7.3-3.1-14.7-6.3-22.3-5c-11.6,2-13.4,12.8-35.8,45.6c-10.4,15.3-14.2,18.7-12.8,24.3C364.3,219.7,395.2,223.7,400.4,224.4z"
					/>
				
					<linearGradient id="SVGID_9_" gradientUnits="userSpaceOnUse" x1="-96.3068" y1="-448.9046" x2="-43.8111" y2="-539.8301" gradientTransform="matrix(0.8132 0.5819 0.5819 -0.8132 704.9384 -211.3796)">
					<stop  offset="0" style="stop-color:#FFA1D3;stop-opacity:0.7"/>
					<stop  offset="1" style="stop-color:#C7659C"/>
				</linearGradient>
				<path class="st13" d="M336.7,194c-5.7-6-4.8-11.6-7.5-22.6c-4.5-18.3-12-22.5-13-29.8c-0.2-1.2-0.1-2.7,0.2-4.7
					c0.5-3.6,2.4-11.1,15.7-22.3c5.8-4.9,15.1-11.6,28.3-17c0.9,0.8,2.3,2.4,3.3,4.8c1.2,3.2,0.9,5.9,0.7,7.2
					c1.1-1.4,2.6-3.6,3.6-6.5c0.7-1.9,1-3.7,1.2-5.1c4.9,1.7,13.9,5.4,22,13.9c2.6,2.7,16.8,17.5,14.4,36.9
					c-1.3,10.3-6.3,16.8-13.4,25.9c-7.7,9.9-22.6,29.2-40.2,27.1C343.3,200.8,337.5,194.9,336.7,194z"/>
				
					<linearGradient id="SVGID_10_" gradientUnits="userSpaceOnUse" x1="-143.759" y1="-551.6328" x2="-47.5507" y2="-551.6328" gradientTransform="matrix(0.8132 0.5819 0.5819 -0.8132 704.9384 -211.3796)">
					<stop  offset="0" style="stop-color:#FFA1D3;stop-opacity:0.7"/>
					<stop  offset="1" style="stop-color:#C7659C"/>
				</linearGradient>
				<path class="st14" d="M344,210.6c-7.1,6.7-16.3,7.4-34.3,8.4c-15,0.9-22.5,1.3-29-2.2c-9.4-5.1-13.9-15.8-17.8-24.4
					c-2.4-5.4-3.8-10-4.7-13.3c3.5-0.5,6.3-2.4,6.5-4.3c0.2-2.3-3.1-5.7-8.7-5.8c3.1-4.5,8.3-10.9,16.1-16.9
					c8.3-6.3,15.8-9.2,18.5-10.1c6.4-2.1,22.6-7.5,34.5-0.5c7.8,4.6,4.1,8.7,17.8,31.5c5.9,9.8,9.3,13.5,9.1,20.4
					C351.8,203,344.9,209.7,344,210.6z"/>
				
					<linearGradient id="SVGID_11_" gradientUnits="userSpaceOnUse" x1="76.1588" y1="-531.9081" x2="-29.0978" y2="-531.9081" gradientTransform="matrix(0.8132 0.5819 0.5819 -0.8132 704.9384 -211.3796)">
					<stop  offset="0" style="stop-color:#FFA1D3;stop-opacity:0.7"/>
					<stop  offset="1" style="stop-color:#C7659C"/>
				</linearGradient>
				<path class="st15" d="M363.4,216.5c-3.4,8.9,8.6,20.8,32.7,44.4c19,18.6,25.6,19.5,29.8,18.9c9.2-1.3,9.1-9.8,26.8-18.7
					c7.3-3.6,11.9-4.5,14.2-9.2c2.7-5.7-0.4-12.2-2.4-16.3c-6-12.2-16.7-18.9-21.7-21.6C415.5,199,369.2,201.1,363.4,216.5z"/>
				
					<linearGradient id="SVGID_12_" gradientUnits="userSpaceOnUse" x1="-27.7377" y1="-615.2596" x2="-27.7377" y2="-547.4363" gradientTransform="matrix(0.8132 0.5819 0.5819 -0.8132 704.9384 -211.3796)">
					<stop  offset="0" style="stop-color:#FFA1D3;stop-opacity:0.7"/>
					<stop  offset="1" style="stop-color:#C7659C"/>
				</linearGradient>
				<path class="st16" d="M291.7,230.1c-2.8,5.7-1.6,12.7,1.5,17.5c2.9,4.6,6.3,5.4,13.2,9.6c13.9,8.5,11.5,12.3,22.7,18.7
					c7.2,4.1,13.5,5.4,26,8c16.5,3.4,20.7,1.5,22.4,0.6c6.1-3.3,8.1-9.9,9.2-13.1c7.1-20.1-9.8-39.9-13.2-43.9
					c-4.8-5.7-10.1-11.8-19.3-15.1c-13.3-4.7-25.3-0.4-44.5,6.6C297,223.6,293.5,226.5,291.7,230.1z"/>
				
					<radialGradient id="SVGID_13_" cx="-166.8687" cy="-696.121" r="20.0285" gradientTransform="matrix(0.6286 0.4268 0.4498 -0.5964 774.048 -135.9927)" gradientUnits="userSpaceOnUse">
					<stop  offset="0" style="stop-color:#743659"/>
					<stop  offset="1" style="stop-color:#EC7A9F;stop-opacity:0.5"/>
				</radialGradient>
				<path class="st17" d="M339.9,201.1c-2.3,5.5,1.8,11.7,5.3,14.6c4.5,3.7,9.9,3.8,16.2,3.9c4.4,0,7.2,0.1,8.8-1.8
					c3.2-3.5-0.8-10.8-1.9-12.9c-1.7-3.1-4-7.5-9.2-9.5C352.6,192.9,342.7,194.7,339.9,201.1z"/>
				
					<radialGradient id="SVGID_14_" cx="-495.0874" cy="693.816" r="55.7104" gradientTransform="matrix(0.6968 -0.5766 -0.5742 -0.6245 1105.1895 343.4028)" gradientUnits="userSpaceOnUse">
					<stop  offset="9.189189e-02" style="stop-color:#9A1D54"/>
					<stop  offset="1" style="stop-color:#AB549F;stop-opacity:0.6"/>
				</radialGradient>
				<path class="st18" d="M371.6,239.4c3.2-1.1-2.3-16.3,3.6-20.8c7.5-5.7,28.8,9.6,29.4,8.6c0.6-0.9-20.3-10.2-20.1-20.1
					c0.2-8,14.1-14.3,27.3-18.7c-19.8,6.6-27.6,5.7-30.1,2.2c-3.1-4.4,1.6-13.2-1-14.6c-2.5-1.4-7.5,6.3-10.4,5.3
					c-3.2-1-3.7-11.9,1.4-41.6c-0.8,5.4-5.3,35.2-10.8,35.2c-5.7-0.1-9.5-32.3-10-37.3c5.8,29.9,4,40.9-0.7,43
					c-5.5,2.5-15-7.1-17.9-4.3c-2.9,2.8,5.6,13.7,2.9,16.5c-3.9,4-27.1-11.7-27.3-11.5c-0.1,0.2,18.9,6.8,23,20.9
					c2.8,9.5-2.2,18.8,1.4,20.7c3.2,1.7,8.2-5.2,11.5-3.6c5.2,2.6-0.1,23.5,0.7,23.7c0.8,0.2,3.2-20.3,9.6-21.3
					C360.6,220.7,367.9,240.7,371.6,239.4z"/>
			</g>
			<g>
				<path class="st8" d="M299.2,227.1c-0.9,4.6-0.4,8.2,0.2,10.5c3.3,12.2,16.2,18.2,22.3,21c5.1,2.3,10,3.5,12.6,4
					c3.7,0.8,6.9,1,9.2,1.2c0.3,2.1,0.6,4.2,0.8,6.3c1.4-1.1,2.8-2.3,4.2-3.4c1.3,1.2,3.3,3,5.7,5c3,2.5,5.6,4.5,6.3,4.9
					c6.3,4.4,19.9-0.4,25-2.4c-2,1.8-5.8,4.6-11.3,5.9c-2.1,0.5-5.6,1.4-9.9,0.4c-1.2-0.3-2.1-0.6-2.8-0.9c-1-0.5-3.1-1.3-7.2-3.9
					c-4-2.5-4.4-3.2-5.9-3.3c-2.2-0.1-2.8,1.2-4.3,0.7c-2.2-0.7-1.8-3.7-4.3-5.7c-1.4-1.1-1.8-0.4-6.7-1.6c-2.8-0.7-5-1.4-9.4-3
					c-0.3-0.1-2.6-0.9-3.7-1.3c-2.5-1.2-7.2-5.8-16.6-15.1c-5-4.9-7.2-6.5-7.7-9.7C295.5,232.7,297.6,229.1,299.2,227.1z"/>
				<path class="st8" d="M266.1,157.6c-1.6,1.6-3.4,3.7-5,6.5c-0.9,1.5-1.6,3-2.2,4.3c1,0.7,2.2,1.5,3.6,2.2
					c2.1,1.1,4.1,1.7,5.7,2.2c-0.5,1.1-1.7,3.4-4.3,5c-1.4,0.8-2.7,1.2-3.6,1.4c6.1,12.8,11.6,22,15.8,28.6c0.4,0.6,0.5,0.8,0.6,1
					c3.8,5.1,12.9,10,36.3,7.9c-5,1.6-15.2,4.1-26,1.1c-2.5-0.7-5.9-1.8-9.5-4.5c-3.4-2.6-5.3-5.4-7.9-9.6
					c-2.4-3.8-3.7-6.5-5.7-10.8c-1.8-3.7-4.5-9.1-7.9-15.8c1.1-0.1,2.3-0.3,3.6-0.7c2.1-0.6,3.8-1.4,5-2.2c-1.7-0.6-3.7-1.5-5.7-2.9
					c-1.1-0.7-2-1.4-2.9-2.2c1-2,2.6-4.6,5-7.2C262.9,160.1,264.6,158.7,266.1,157.6z"/>
				<path class="st8" d="M332,180.8c1.3-7.6-0.1-12.7-1.6-16c-2.9-6.3-7.1-7.9-11.3-16.7c-1.9-3.9-3.1-6.5-2.9-9.7
					c0.4-8.8,10.2-14.3,12.4-15.5c-1.8,1.3-5,4.1-7.2,8.7c-0.5,1.1-2.5,5.3-2.2,10.1c0.6,9.6,9.3,11.9,12.9,21.7
					C333.5,167.1,334.5,172.7,332,180.8z"/>
				<path class="st8" d="M392.7,223.3c4.9,0.6,12.6,1.1,21.7-0.8c4.8-1,18.9-4,31-15.8c7.3-7.1,11.1-14.7,13.2-20.2
					c-2,3-5.1,7.2-9.5,11.7c-3.6,3.7-13.1,12.6-28.5,18.8C409.8,221.4,399.8,222.9,392.7,223.3z"/>
				<path class="st8" d="M412.8,265.4c1.9-0.8,5.1-2.3,8.2-5.4c3.4-3.5,4.9-7.2,5.6-9.2c1.7,2,4.5,2.1,6,0.8
					c1.1-0.9,1.5-2.6,1.1-4.2c2.5-0.5,5-1,7.5-1.5c6.2-1.2,12.2-2.3,18.1-3.2c-5-0.2-10.6-0.2-16.6,0.4c-3.9,0.3-7.5,0.8-10.9,1.4
					c0.3,1.4-0.2,2.9-1.4,3.6c-1.4,0.9-3.4,0.6-4.5-0.9c-1.3,3.3-3.5,7.6-7,12C416.8,261.7,414.7,263.8,412.8,265.4z"/>
				<path class="st8" d="M379.3,189.6c7-5.4,17.8-15.2,23.4-30.1c3.2-8.4,3.2-14.4,3.2-16c-0.1-9.9-4-17.4-6.5-21.2
					c1.8,5.7,3.4,13.4,2.8,22.6C400.4,169,384.5,184.8,379.3,189.6z"/>
			</g>
			<g>
				<path class="st9" d="M353.8,205.3c-1.5-4.6-2.8-10.8-2.8-18c0.2-16,7.1-27.9,10.9-33.4c-3,5.3-6.7,13.5-8.5,24
					C351.3,189.4,352.5,199.1,353.8,205.3z"/>
				<path class="st9" d="M354.2,203c0.6,0.4,1.2,0.8,1.8,1.2c4.3-5.4,8.8-11.5,13.1-18.3c6.7-10.4,11.9-20.3,15.9-29.3
					c-3.9,9-9.6,19.7-17.7,30.7C362.9,193.3,358.5,198.5,354.2,203z"/>
				<path class="st9" d="M356.2,205.7c4-0.9,8.4-1.6,13.2-2.1c13.5-1.3,25.1,0.3,33.8,2.2c-5.1-1.7-12.6-3.5-21.7-3.7
					C370.6,201.8,361.8,203.9,356.2,205.7z"/>
				<path class="st9" d="M351.1,203.5c0.4-0.2,0.7-0.4,1.1-0.5c-1.9-2.3-4.2-4.8-6.8-7.2c-8.5-7.8-17.6-12.2-24.4-14.6
					c5.6,2.4,12.8,6.3,20,12.3C345.1,196.8,348.4,200.3,351.1,203.5z"/>
				<path class="st9" d="M354.8,206.6c0.2-0.3,0.4-0.6,0.6-0.9c1.5,0.6,3.7,1.5,6.4,2.4c8.7,2.9,15.9,3.8,20.6,4.3
					c2.9,0.3,6.9,0.7,11.7,0.8c-3.3,0.1-6.9,0.1-10.8-0.2C371.8,212.3,362.2,209.5,354.8,206.6z"/>
				<path class="st9" d="M352.2,205.5c-4.3,0.5-11,0.5-17.9-2.5c-1.4-0.6-2.8-1.3-3.9-2c2.8,1.2,6.3,2.4,10.5,3.2
					C345.2,205.2,349.1,205.5,352.2,205.5z"/>
				<path class="st9" d="M354.2,207.5c0.9,2.4,2.4,5.2,5,7.9c9,9.2,23.2,7.6,25.1,7.4c-2.9,0.2-7.4,0.2-12.6-1.4
					c-7.2-2.2-11.5-6.2-12.4-7.1C356.7,211.7,355.1,209.3,354.2,207.5z"/>
				<path class="st9" d="M353.5,203.8c1.7-5.4,3.7-11.2,6.1-17.2c3.8-9.3,7.9-17.6,11.9-24.9c-4.4,6.7-9.2,15.2-13,25.4
					C356.3,193.2,354.7,198.8,353.5,203.8z"/>
				<path class="st9" d="M354.7,204c0.1,0.5,0.2,1,0.3,1.5c4.7-2,9.7-4.2,14.7-6.8c15.3-8,27.5-17,36.9-25.4
					c-7.1,6.1-16.2,13-27.6,19.4C370.3,197.6,362,201.3,354.7,204z"/>
				<path class="st9" d="M354.5,205.2c5.6-5.3,11.3-10.7,17-16.3c7.7-7.5,15.2-15,22.3-22.4c-5.8,6.5-12.2,13.2-19.2,20
					C367.9,193.3,361.1,199.5,354.5,205.2z"/>
				<path class="st10" d="M350.2,211.5c-2.6-1.2-4.9-4.3-4-7.9s4.4-6,7.6-6.2c4.7-0.3,8.3,4.1,7.6,8.3c-0.6,3.4-3.9,5.4-4.1,5.5
					C353.9,213.1,350.6,211.6,350.2,211.5z"/>
			</g>
			<g>
				<path class="st11" d="M359.1,152.5c0.6-1.3,2.1-2.5,3.4-2.1s1.7,2.2,1.4,3.6c-0.3,1-1.1,2.1-2.2,2.5c-0.9,0.3-1.8,0-2.4-0.7
					C358.6,154.8,358.7,153.5,359.1,152.5z"/>
				<path class="st11" d="M370.4,161.6c0.3-0.8,1.1-1.6,1.7-1.4c0.4,0.1,0.6,0.7,0.6,1c0.1,1.1-1.2,1.7-1.3,1.7
					c-0.2,0.1-0.5,0.2-0.8,0.1C370.2,162.9,370.2,162.1,370.4,161.6z"/>
				<path class="st11" d="M383.3,158.8c-0.4-0.8-0.2-1.4-0.2-1.8c0.3-1.2,1.5-2.3,2.2-2c0.6,0.3,0.7,1.6,0.7,2.3
					c-0.1,1.3-0.8,2.6-1.7,2.5C383.8,159.7,383.4,158.9,383.3,158.8z"/>
				<path class="st11" d="M392.2,168c-0.2-0.6,0.7-1.4,1.3-1.7c0.4-0.2,1.2-0.5,1.5-0.2s-0.2,1.4-0.8,2c-0.3,0.3-0.6,0.6-1.1,0.5
					C392.7,168.6,392.3,168.3,392.2,168z"/>
				<path class="st11" d="M403,174.7c-0.3-1.4,1.1-1.9,1.6-2c0.9-0.3,2.6-0.5,3.3,0.2c0.7,0.6,0.3,1.7,0.1,2.1
					c-0.4,1.1-1.8,2.6-3.3,1.9C403.9,176.6,403.2,175.5,403,174.7z"/>
				<path class="st11" d="M401.5,205.6c-0.4,1.2,1.4,2.8,3.3,2.4c0.7-0.2,1.7-0.7,1.9-1.3c0.4-1.2-1.4-2.8-3.3-2.4
					C402.7,204.4,401.8,204.9,401.5,205.6z"/>
				<path class="st11" d="M392,212.5c0.7-0.7,2.8,0,2.9,0.7c0.1,0.4-0.6,0.8-0.6,0.9c-0.8,0.5-2.1,0.3-2.4-0.4
					C391.6,213.3,391.7,212.8,392,212.5z"/>
				<path class="st11" d="M385.2,223.4c0.1-0.4-0.3-0.8-0.6-1c-0.8-0.5-2.1-0.2-2.3,0.4c-0.2,0.5,0.4,1.1,1,1.3
					C384,224.3,385,223.9,385.2,223.4z"/>
				<path class="st11" d="M318.6,180.6c-0.5,1.4,1.6,2.8,2.1,3.2c0.9,0.6,2.3,1.6,3.9,0.8c0.9-0.5,1.6-1.5,1.8-2.4
					c0.4-2.1-2-3.1-2.1-3.2C322.2,178.2,319.1,179.2,318.6,180.6z"/>
				<path class="st11" d="M328.8,199.7c-0.3,0.7,0.5,1.5,0.6,1.6c0.2,0.2,1.2,1.1,2.4,0.5c0.5-0.3,1.1-0.9,1.1-1.5
					c0.1-1-1.6-1.2-1.8-1.2C330.4,199,329.1,199.1,328.8,199.7z"/>
				<path class="st11" d="M343.4,186.6c-0.8,0-1.2-0.7-1.4-0.9c-0.3-0.4-0.6-1.2-0.3-1.5c0.4-0.3,1.5,0.2,2.1,0.8
					c0.3,0.3,0.7,0.7,0.6,1C344.3,186.4,343.8,186.6,343.4,186.6z"/>
				<path class="st11" d="M342.3,211c0.2,0.4,1.1,0.3,1.2,0.2c0.2,0,1.2-0.2,1.5-0.9c0.1-0.3,0-0.8-0.3-1c-0.6-0.4-1.5,0.3-1.6,0.4
					C342.7,210,342.1,210.6,342.3,211z"/>
				<path class="st11" d="M369.9,203.7c0-0.9-1.3-1.3-1.5-1.3c-0.3-0.1-1.8-0.5-2.6,0.9c-0.4,0.6-0.6,1.6-0.3,2.3
					c0.5,1.2,2.2,0.4,2.4,0.3C368.7,205.5,369.9,204.6,369.9,203.7z"/>
				<path class="st11" d="M369.8,214.7c0.1-0.3-0.2-0.6-0.5-0.8c-0.6-0.4-1.7-0.2-1.8,0.2c-0.1,0.4,0.3,0.9,0.8,1
					C368.9,215.4,369.7,215.2,369.8,214.7z"/>
				<path class="st11" d="M392.3,189c0.3-0.7,1.1-0.8,1.4-0.9c0.5-0.1,1.4-0.1,1.5,0.3c0.1,0.3-0.4,0.8-0.6,1
					c-0.6,0.5-1.7,1.1-2.2,0.7C392.1,189.9,392.1,189.3,392.3,189z"/>
				<path class="st11" d="M373.7,190.3c-0.6-1.4,1.3-2.6,2.5-3c0.8-0.3,2.6-0.7,3.3,0.1c0.8,0.8-0.2,2.8-1.5,3.8
					c-0.5,0.4-1.2,1-2.3,0.7C374.9,191.7,374,191,373.7,190.3z"/>
				<path class="st11" d="M355.7,185.4c-0.6-0.4-0.2-1.5,0.1-2.1c0.2-0.4,0.7-1.1,1.2-1s0.6,1.3,0.4,2.1c-0.1,0.4-0.2,0.8-0.6,1
					C356.4,185.6,356,185.6,355.7,185.4z"/>
				<path class="st11" d="M341.8,165.9c-0.6,0.3-0.4,1.4-0.1,1.9c0.2,0.3,0.6,1.1,1.1,1s0.7-1.1,0.6-1.9c0-0.3-0.1-0.7-0.5-1
					C342.6,165.7,342.1,165.7,341.8,165.9z"/>
				<path class="st11" d="M356,217.8c-0.5-0.2-0.7-1.1-0.3-1.5c0.3-0.2,0.9-0.2,1.2,0.2c0.3,0.4,0.1,0.9-0.2,1.2
					C356.5,217.8,356.2,217.9,356,217.8z"/>
				<path class="st11" d="M339.7,199.6c-0.2-0.4-0.1-0.9,0.2-1.2c0.5-0.4,1.5-0.1,1.7,0.5s-0.4,1.3-1,1.3
					C340.2,200.2,339.8,199.9,339.7,199.6z"/>
			</g>
		</g>
		<g>
			<g>
				
					<linearGradient id="SVGID_15_" gradientUnits="userSpaceOnUse" x1="686.3042" y1="-96.6196" x2="686.3042" y2="-172.0463" gradientTransform="matrix(-0.9143 0.4051 -0.4051 -0.9143 700.8656 -227.5403)">
					<stop  offset="0" style="stop-color:#ECA1C4;stop-opacity:0.7"/>
					<stop  offset="1" style="stop-color:#CA83BD"/>
				</linearGradient>
				<path class="st19" d="M133,203.6c-3.8-0.9-22.8-6-31.7-23.1c-1.9-3.6-6.4-12.8-3.5-23.6c1.4-5.4,4.2-9.3,6.2-11.5
					c0.4,0.7,1.3,1.9,2.9,2.9c1.8,1.1,3.5,1.4,4.3,1.4c-0.6-0.5-1.5-1.1-2.2-2.2c-1.8-2.6-1.6-5.5-1.4-6.5c1.2-0.2,2.9-0.4,5-0.7
					c7.2-1,10.7-1.5,12.8-1.5c6.2,0,10.9,2.5,13,3.6c4.6,2.4,8.5,6.2,20.3,33.4c6.4,14.7,6.8,17.2,5.7,19.7
					C159.8,205.7,136.9,204,133,203.6z"/>
				
					<linearGradient id="SVGID_16_" gradientUnits="userSpaceOnUse" x1="617.966" y1="-102.5264" x2="657.0393" y2="-170.2035" gradientTransform="matrix(-0.9143 0.4051 -0.4051 -0.9143 700.8656 -227.5403)">
					<stop  offset="0" style="stop-color:#ECA1C4;stop-opacity:0.7"/>
					<stop  offset="1" style="stop-color:#CA83BD"/>
				</linearGradient>
				<path class="st20" d="M183.6,191.1c5-3.5,5.2-7.8,8.8-15.4c6-12.6,12-14.7,13.9-19.8c0.6-1.7,0.5-3,0.6-3.5
					c0.6-7.1-2-15.9-8.1-21.3c-5.4-4.7-9.8-3.6-15.1-10c-1.3-1.6-2.2-3.1-2.7-4.1c-0.6,0.2-2.4,0.8-3.7,2.6
					c-1.3,1.8-1.4,3.7-1.4,4.3c-0.7-0.8-1.6-2.3-2.2-4.3c-0.4-1.4-0.4-2.6-0.4-3.5c-3.8,0.6-10.2,2.2-16.7,6.8
					c-2.3,1.6-14.7,10.3-15.9,24.8c-0.6,7.7,2.1,13.2,5.8,20.9c4.1,8.4,12,24.7,25,25.9C177.8,195,182.9,191.6,183.6,191.1z"/>
				
					<linearGradient id="SVGID_17_" gradientUnits="userSpaceOnUse" x1="582.0308" y1="-178.7572" x2="654.3528" y2="-178.7572" gradientTransform="matrix(-0.9143 0.4051 -0.4051 -0.9143 700.8656 -227.5403)">
					<stop  offset="0" style="stop-color:#ECA1C4;stop-opacity:0.7"/>
					<stop  offset="1" style="stop-color:#CA83BD"/>
				</linearGradient>
				<path class="st21" d="M175.9,202.1c4.2,6,10.7,7.9,23.5,11.3c10.7,2.9,16.1,4.4,21.3,2.8c5.4-1.6,9.1-6.2,16.5-15.1
					c8.1-9.7,8.5-13.9,8.5-16.1c-0.1-4.2-1.9-7.5-3.2-9.4c-0.8,0.5-1.8,1-2.9,1.4c-1.6,0.7-3,1.1-4.3,1.4c0.7-0.5,2-1.6,2.9-3.6
					c0.6-1.5,0.7-2.8,0.7-3.6c-5.4-5.6-10.6-9.1-14.2-11.2c-2.2-1.2-15.9-8.7-24.8-5.6c-6.3,2.2-4.2,5.8-17.6,20.3
					c-5.8,6.3-8.8,8.5-9.7,13.6C171.3,195.4,175.3,201.3,175.9,202.1z"/>
				
					<linearGradient id="SVGID_18_" gradientUnits="userSpaceOnUse" x1="745.7592" y1="-164.4985" x2="667.9377" y2="-164.4985" gradientTransform="matrix(-0.9143 0.4051 -0.4051 -0.9143 700.8656 -227.5403)">
					<stop  offset="0" style="stop-color:#ECA1C4;stop-opacity:0.7"/>
					<stop  offset="1" style="stop-color:#CA83BD"/>
				</linearGradient>
				<path class="st22" d="M161,203.5c1.1,7.1-9.4,13.9-30.3,27.5c-16.5,10.7-21.4,10.4-24.4,9.3c-6.4-2.3-5.1-8.6-16.6-17.7
					c-4.7-3.8-8-5.1-8.9-8.9c-1.1-4.6,2.1-8.9,4.2-11.6c6.1-8,14.9-11.3,18.9-12.5C125.9,182.8,159,191.4,161,203.5z"/>
				
					<linearGradient id="SVGID_19_" gradientUnits="userSpaceOnUse" x1="669.1697" y1="-226.41" x2="669.1697" y2="-175.8375" gradientTransform="matrix(-0.9143 0.4051 -0.4051 -0.9143 700.8656 -227.5403)">
					<stop  offset="0" style="stop-color:#ECA1C4;stop-opacity:0.7"/>
					<stop  offset="1" style="stop-color:#CA83BD"/>
				</linearGradient>
				<path class="st23" d="M210.7,224.3c1.2,4.6-0.8,9.5-3.7,12.6c-2.8,2.9-5.4,3-11,5c-11.3,4.1-10.2,7.3-19.2,10.2
					c-5.8,1.9-10.5,1.9-20,1.9c-12.4,0-15.2-2-16.3-2.9c-3.9-3.4-4.4-8.5-4.7-11c-2.1-15.8,13-27.7,16.1-30.1
					c4.4-3.4,9-7.1,16.2-8.1c10.3-1.5,18.3,3.6,31.2,11.6C207.9,218.7,210,221.4,210.7,224.3z"/>
				
					<radialGradient id="SVGID_20_" cx="959.0194" cy="-132.282" r="20.0103" gradientTransform="matrix(-0.5181 0.2169 -0.236 -0.504 633.2092 -76.347)" gradientUnits="userSpaceOnUse">
					<stop  offset="0" style="stop-color:#743659"/>
					<stop  offset="1" style="stop-color:#EC7A9F;stop-opacity:0.5"/>
				</radialGradient>
				<path class="st24" d="M180.2,195.8c0.9,4.4-3,8.3-6,9.9c-3.8,2.1-7.7,1.3-12.3,0.4c-3.2-0.6-5.2-1-6.1-2.6
					c-1.8-3.1,2.2-7.8,3.3-9.2c1.7-2,4-4.9,8.1-5.5C172.2,187.9,179.2,190.7,180.2,195.8z"/>
				
					<radialGradient id="SVGID_21_" cx="217.6726" cy="-200.0194" r="47.2515" gradientTransform="matrix(-0.3496 -0.44 0.4493 -0.3278 334.2268 227.1357)" gradientUnits="userSpaceOnUse">
					<stop  offset="9.189189e-02" style="stop-color:#7E386D"/>
					<stop  offset="1" style="stop-color:#8D386A;stop-opacity:0.5"/>
				</radialGradient>
				<path class="st25" d="M157.5,216.4c-1.9-1.1,0.3-5.2-1.9-7.9c-3.7-4.5-15.5-0.3-15.8-1.4s10.9-3.1,12.2-8.6
					c1.2-5.4-8-10.5-6.5-13.6c1.7-3.4,12.9,1.2,16.5-3.6c2.6-3.5-0.4-9.6,0.7-10c1.5-0.5,5,9.6,8.6,9.3c4.1-0.3,5.6-13.8,7.9-13.6
					c2.3,0.2,0.4,13.7,7.6,18.6c4.6,3.1,10.3,0.9,11,3c0.8,2.4-7.1,4.4-10,11.8c-2.6,6.4,1,11.5-1.7,13.2c-3.3,2.1-8.1-4.6-15.6-3.6
					C163.6,210.8,160,217.9,157.5,216.4z"/>
			</g>
			<g>
				<path class="st8" d="M205.8,220.9c0,3.5-1,6-1.8,7.7c-3.6,7.3-12.4,11.1-19.3,12c-2.3,0.3-6.5,0.3-7.1,0.4
					c-3.2,0.1-5.8,0-7.6-0.1c-1,1.7-1.9,3.3-2.9,5c-0.5-1.2-1-2.4-1.4-3.6c-2.2,0.7-5.4,1.9-9,3.9c-1.6,0.9-2.2,1.3-2.8,1.7
					c-2.6,1.4-7.5,1.3-17.7-5.6c1.2,1.6,3.5,4.2,7.3,6c1.4,0.7,3.9,1.8,7.1,1.8c3.8-0.1,4.1-1.7,7.9-2c4.4-0.4,5.1,1.8,8.6,1.2
					c3.7-0.6,3.9-3.3,8.2-5.2c4-1.8,5,0,10.1-1.2c2-0.5,6.1-3.2,14.2-8.5c4.3-2.9,6.1-3.6,7-6C207.6,225.6,206.6,222.7,205.8,220.9z
					"/>
				<path class="st8" d="M239.5,176.1c1.1,1.2,2.6,3.2,3.2,6c1.2,5.1-1.1,9.3-2.3,11.3c-2.6,4.5-4.8,4.5-11,11.5
					c-3.6,4-3.3,4.6-4.8,5.9c-3.5,3.2-10.8,5.3-27.4,0.2c3.4,2,10.4,5.3,18.7,4.7c2.2-0.2,4.8-0.4,7.6-1.9c2.5-1.4,4.2-3.3,7.4-7
					c2.4-2.8,2-2.8,3.6-4.6c4.8-5.4,7.1-4.7,9.5-8.3c0.3-0.5,3.5-5.6,1.3-11.4C243.8,178.9,240.7,176.9,239.5,176.1z"/>
				<path class="st8" d="M189,182.2c0.2-5.7,2-9.3,3.5-11.4c3-4.1,6.3-4.7,10.6-10.5c1.9-2.6,3.2-4.3,3.5-6.7c1-6.5-5.3-12-6.6-13.2
					c1.1,1.2,3,3.8,3.9,7.4c0.2,0.9,1,4.3,0.1,7.8c-1.8,6.9-8.5,7.3-12.6,13.9C190,171.9,188.4,175.9,189,182.2z"/>
				<path class="st8" d="M138.8,204c-3.6-0.3-9.3-1.1-15.6-3.9c-3.3-1.4-13.1-5.8-20.1-16.3c-4.2-6.3-5.8-12.5-6.5-16.7
					c1,2.5,2.6,6.1,5.1,10c2.1,3.2,7.6,11.2,17.8,18.1C126.7,200.1,133.7,202.6,138.8,204z"/>
				<path class="st8" d="M118.3,233.7c-3.2-2.6-4.7-5.2-5.5-7.1c-1.1-2.8-1.3-5.6-3.8-8c-0.8-0.7-1.6-1.2-2.2-1.4
					c-1-1.2-1.9-2.4-2.9-3.6c-1.8-0.4-3.7-0.8-5.7-1.4c-4-1.2-7.5-2.6-10.5-4.1c3.8,0.7,7.8,1.6,12,2.8c2.3,0.6,4.5,1.3,6.6,2
					c0.7,1,1.3,1.9,2,2.9c1,0.2,1.9,0.5,2.9,0.7c0.7,2.9,1.7,6.2,3.3,9.9C115.7,229.1,117.1,231.6,118.3,233.7z"/>
				<path class="st8" d="M153.5,181.4c-4.3-5-10.6-13.8-12.4-25.5c-1-6.6-0.2-11,0.1-12.1c1.6-7.2,5.5-12.1,7.9-14.5
					c-2.1,3.9-4.5,9.3-5.4,16.1C141.3,163.2,150.4,177.1,153.5,181.4z"/>
			</g>
			<g>
				<path class="st9" d="M169.6,196.8c1.8-3.1,3.7-7.4,4.7-12.8c2.3-11.7-1-21.4-2.9-26c1.4,4.3,2.8,10.9,2.6,18.8
					C173.7,185.5,171.4,192.4,169.6,196.8z"/>
				<path class="st9" d="M169.6,195c-0.5,0.2-1,0.4-1.5,0.6c-2.3-4.6-4.6-9.8-6.7-15.3c-3.3-8.6-5.6-16.6-7.1-23.8
					c1.5,7.2,4,15.8,8.2,25.1C164.8,186.6,167.2,191.1,169.6,195z"/>
				<path class="st9" d="M167.8,196.7c-2.7-1.2-5.8-2.5-9.2-3.5c-9.6-3-18.2-3.6-24.7-3.5c4-0.5,9.6-0.7,16.3,0.5
					C158,191.7,164,194.5,167.8,196.7z"/>
				<path class="st9" d="M171.8,195.8c-0.2-0.2-0.5-0.4-0.7-0.6c1.7-1.4,3.7-2.9,6-4.2c7.3-4.4,14.6-6.2,19.8-7
					c-4.4,0.9-10.2,2.7-16.3,6C177.1,191.9,174.2,193.9,171.8,195.8z"/>
				<path class="st9" d="M168.6,197.6c-0.1-0.2-0.2-0.5-0.3-0.7c-1.2,0.2-2.9,0.5-5,0.8c-6.7,0.8-12,0.3-15.5,0
					c-2.2-0.2-5.1-0.5-8.6-1.2c2.4,0.6,5,1.1,7.8,1.5C155.5,199.1,162.9,198.6,168.6,197.6z"/>
				<path class="st9" d="M170.7,197.2c3,1,7.9,2,13.3,0.9c1.1-0.2,2.2-0.5,3.1-0.9c-2.2,0.4-4.9,0.8-8.1,0.8
					C175.8,198,172.9,197.6,170.7,197.2z"/>
				<path class="st9" d="M169,198.3c-1,1.6-2.5,3.5-4.8,5c-7.9,5.4-17.9,2.1-19.3,1.6c2.1,0.6,5.4,1.3,9.3,0.9
					c5.5-0.5,9.2-2.8,10-3.3C166.5,201,168,199.4,169,198.3z"/>
				<path class="st9" d="M170,195.7c-0.4-4.2-1-8.7-1.9-13.5c-1.3-7.4-3.1-14-4.9-20c2.2,5.6,4.3,12.5,5.6,20.6
					C169.6,187.5,169.9,191.8,170,195.7z"/>
				<path class="st9" d="M169.1,195.7c-0.1,0.3-0.3,0.7-0.4,1c-3.1-2.1-6.3-4.5-9.6-7.2c-9.9-8.1-17.3-16.6-22.9-24.2
					c4.2,5.5,9.8,11.9,17,18.4C158.8,188.6,164.2,192.6,169.1,195.7z"/>
				<path class="st9" d="M169,196.6c-3.3-4.7-6.6-9.5-9.9-14.5c-4.5-6.7-8.7-13.2-12.8-19.7c3.3,5.6,6.9,11.5,10.9,17.5
					C161.2,185.8,165.1,191.4,169,196.6z"/>
				<path class="st10" d="M171.2,201.8c2.1-0.5,4.1-2.4,4.1-5.1c-0.1-2.8-2.3-5-4.6-5.7c-3.3-0.9-6.6,1.8-6.8,4.9
					c-0.1,2.6,2,4.5,2.2,4.6C168.3,202.4,170.9,201.9,171.2,201.8z"/>
			</g>
			<g>
				<path class="st11" d="M173.4,158.4c-0.4-0.9-1.3-1.7-2.1-1.5s-1.1,1.4-0.9,2.3c0.2,0.7,0.7,1.4,1.4,1.7c0.6,0.2,1.1,0.1,1.5-0.4
					C173.7,160,173.6,159.1,173.4,158.4z"/>
				<path class="st11" d="M164.5,163.3c-0.2-1-1-2.2-1.6-2.2c-0.4,0-0.7,0.6-0.7,1c-0.2,1.2,1.1,2.3,1.1,2.4
					c0.2,0.2,0.5,0.4,0.8,0.4C164.5,164.8,164.6,163.9,164.5,163.3z"/>
				<path class="st11" d="M155.1,158.3c0.2-0.3,0.2-0.7,0.1-0.9c-0.1-0.7-0.6-1.4-1-1.4c-0.3,0-0.4,0.7-0.4,1c0,0.7,0.3,1.5,0.7,1.5
					C154.9,158.7,155.1,158.4,155.1,158.3z"/>
				<path class="st11" d="M148.9,165.2c0.8-0.8-0.2-2.1-1-2.7c-0.5-0.4-1.6-1.1-2.3-0.8c-0.8,0.4-0.6,2,0,3c0.3,0.4,0.6,1,1.4,1
					C147.6,165.8,148.5,165.6,148.9,165.2z"/>
				<path class="st11" d="M137.4,166.1c0.1-0.5-0.3-0.9-0.5-1.1c-0.3-0.3-0.8-0.6-1.1-0.4c-0.2,0.2-0.1,0.7,0,0.9
					c0.1,0.5,0.6,1.3,1,1.3C137.2,166.7,137.4,166.4,137.4,166.1z"/>
				<path class="st11" d="M136.1,189.9c-0.2,0.8-2,1.2-3,0.4c-0.4-0.3-0.8-0.9-0.6-1.4c0.2-0.8,2-1.2,3-0.4
					C135.9,188.8,136.2,189.4,136.1,189.9z"/>
				<path class="st11" d="M140.9,196.2c-0.4-0.6-2-0.4-2.2,0.1c-0.1,0.3,0.3,0.7,0.3,0.7c0.5,0.5,1.5,0.6,1.8,0.1
					C141,196.9,141.1,196.5,140.9,196.2z"/>
				<path class="st11" d="M144.2,205.2c0-0.3,0.3-0.6,0.6-0.7c0.6-0.3,1.6,0.2,1.6,0.6s-0.4,0.8-0.9,0.8
					C144.9,206.1,144.2,205.7,144.2,205.2z"/>
				<path class="st11" d="M198.2,182.6c0.4,0.5-0.3,1.4-0.5,1.7c-0.3,0.4-0.8,1-1.6,0.9c-0.4-0.1-0.9-0.4-1-0.8
					c-0.4-0.9,0.5-1.6,0.5-1.7C196.4,182,197.8,182,198.2,182.6z"/>
				<path class="st11" d="M188,197.2c0.1,0.3-0.5,0.6-0.6,0.7s-0.8,0.4-1.3,0.1c-0.2-0.2-0.4-0.5-0.3-0.7c0.1-0.5,1-0.5,1.1-0.5
					C187.3,196.8,188,196.9,188,197.2z"/>
				<path class="st11" d="M179.9,184.6c0.6,0.1,1-0.3,1.1-0.5c0.3-0.3,0.6-0.8,0.4-1c-0.2-0.3-1.1-0.1-1.7,0.3
					c-0.2,0.1-0.6,0.4-0.6,0.7C179.2,184.4,179.6,184.6,179.9,184.6z"/>
				<path class="st11" d="M177.9,204.9c-0.4,0.6-1.6,0.2-1.8,0.2c-0.2-0.1-1.6-0.5-1.6-1.8c0-0.6,0.3-1.4,0.8-1.7
					c0.9-0.5,1.9,0.8,2,1C177.8,203.2,178.3,204.4,177.9,204.9z"/>
				<path class="st11" d="M159.1,194.9c0.1-0.3,0.8-0.3,0.8-0.3c0.1,0,0.9,0,1.2,0.5c0.1,0.2,0.1,0.6-0.1,0.8
					c-0.3,0.3-1.1-0.1-1.2-0.1C159.5,195.5,159,195.1,159.1,194.9z"/>
				<path class="st11" d="M156.6,201.2c0-0.2,0.3-0.4,0.5-0.5c0.5-0.2,1.2,0.1,1.3,0.5c0,0.3-0.4,0.6-0.7,0.6
					C157.1,201.9,156.6,201.6,156.6,201.2z"/>
				<path class="st11" d="M145.1,180.6c-0.1-1-1-1.2-1.4-1.3c-0.6-0.2-1.8-0.2-2.1,0.3s0.1,1.2,0.3,1.5c0.5,0.7,1.6,1.7,2.5,1.2
					C144.9,181.9,145.2,181.1,145.1,180.6z"/>
				<path class="st11" d="M156.1,181.2c0.2-0.5-0.3-1.1-0.7-1.4c-0.2-0.2-0.8-0.5-1.1-0.4c-0.3,0.2,0,1.1,0.4,1.6
					c0.2,0.2,0.4,0.5,0.7,0.5C155.7,181.5,156,181.4,156.1,181.2z"/>
				<path class="st11" d="M171.2,181.9c0.5-0.2,0.4-1.1,0.2-1.6c-0.1-0.3-0.4-0.9-0.7-0.9c-0.4,0-0.7,0.9-0.6,1.5
					c0,0.3,0,0.6,0.3,0.8C170.6,182,170.9,182,171.2,181.9z"/>
				<path class="st11" d="M183.7,169.7c0.8,0.6,0.2,1.7-0.4,2.3c-0.3,0.4-1.2,1.1-1.9,0.9s-0.8-1.6-0.5-2.5c0.2-0.4,0.4-0.9,1-1
					C182.5,169.3,183.2,169.4,183.7,169.7z"/>
				<path class="st11" d="M166.1,205.6c0.4-0.1,0.7-0.7,0.4-1c-0.2-0.2-0.6-0.3-0.9-0.1c-0.3,0.2-0.2,0.6,0,0.9
					C165.7,205.5,165.9,205.6,166.1,205.6z"/>
				<path class="st11" d="M180.6,194.7c0.2-0.3,0.2-0.6,0-0.9c-0.3-0.4-1.1-0.3-1.3,0.1s0.1,1,0.5,1.1
					C180.2,195.1,180.5,194.9,180.6,194.7z"/>
			</g>
		</g>
		<g>
			<path class="st26" d="M320.1,31.1c1.1-1.2,6.9-7.7,15.8-7.2c9.3,0.5,14.5,8.2,15.1,9.2c5.5,8.6,4.9,21.5-2,29.5
				c-8.8,10.3-25.9,9.8-33-1.1C309.9,52.1,313.5,38.4,320.1,31.1z"/>
			<path class="st27" d="M319.4,57.4c4.8-3.1,11.1-6.6,19-9.1c4.9-1.6,9.4-2.5,13.4-3.1c0.4,1.8,2,10.4-2.7,17.3
				c-6.3,9.2-20.6,10.8-26.5,3.9C320.2,63.8,319.6,60.2,319.4,57.4z"/>
			<path class="st28" d="M326.7,74.7c4.9-3.4,15.1-11.7,20.7-26.5c2.1-5.6,3.1-10.8,3.5-15.1c1.5,2.8,3.9,7.9,4.5,14.8
				c0.4,4.3,1.5,15.8-5.3,22.6c-4.4,4.4-10.3,4.9-13.6,5.2C332.5,76.1,329,75.4,326.7,74.7z"/>
			<path class="st29" d="M317.9,72.7c-4.8-2.5-8.4-7.2-9.8-12c-3.1-10.2,2.8-23.9,15.3-32.6c-0.5,6.5-0.4,15.1,2.6,24.5
				c3.6,11.4,9.2,17,7,20.5C330.7,76.6,322.8,75.3,317.9,72.7z"/>
		</g>
		<g>
			
				<linearGradient id="SVGID_22_" gradientUnits="userSpaceOnUse" x1="1060.4647" y1="101.0791" x2="1060.4647" y2="34.3" gradientTransform="matrix(-1 0 0 1 1298.6479 0)">
				<stop  offset="0" style="stop-color:#D34689"/>
				<stop  offset="1" style="stop-color:#D34689;stop-opacity:0.5"/>
			</linearGradient>
			<path class="st30" d="M240.2,34.3c-0.7,0.5-2,1.6-2.8,3.6c-0.6,1.5-0.7,2.8-0.7,3.6c-0.5-0.7-1.1-1.9-1.4-3.6
				c-0.2-1.3-0.1-2.4,0-3.2c-2.5,0.7-6.8,2.3-10.7,6c0,0-6.4,6.1-8,16.4c-3,20.5,21.9,47.5,33.8,43.6c9-2.9,11.8-24,7.9-39.2
				C254.5,46.7,244.6,37.8,240.2,34.3z"/>
			
				<linearGradient id="SVGID_23_" gradientUnits="userSpaceOnUse" x1="1044.5977" y1="104.568" x2="1044.5977" y2="41.8731" gradientTransform="matrix(-1 0 0 1 1298.6479 0)">
				<stop  offset="0" style="stop-color:#CC4281"/>
				<stop  offset="1" style="stop-color:#F45DA2;stop-opacity:0.5"/>
			</linearGradient>
			<path class="st31" d="M294.3,57.1c0.6,1.2,1.4,2.9,2,5.1c2.8,10.6-1.8,22.5-8.7,29.8c-9.1,9.7-21.8,10.8-33.8,12
				c-6.4,0.6-9.6,0.9-13.5,0c-19.3-4.4-30-29.2-29.3-47.9c0-0.7,0.6-13.5,4.5-14.2c3.5-0.6,6.6,8.9,16.9,22.9
				c7,9.5,14.3,19.5,21.4,18.5c5-0.7,6.1-6.3,12.4-13.1c8-8.6,17.9-12.2,24.9-13.9c0.1,2,0.1,4,0.2,5.9
				C292.3,60.5,293.3,58.8,294.3,57.1z"/>
			
				<linearGradient id="SVGID_24_" gradientUnits="userSpaceOnUse" x1="1035.1149" y1="102.232" x2="1035.1149" y2="36.5" gradientTransform="matrix(-1 0 0 1 1298.6479 0)">
				<stop  offset="0" style="stop-color:#E874AC"/>
				<stop  offset="1" style="stop-color:#F45DA2;stop-opacity:0.5"/>
			</linearGradient>
			<path class="st32" d="M267.3,36.5c0.6,2.1,1.2,4.3,1.7,6.4c0.5-1.8,0.9-3.6,1.4-5.4c2.1,1.2,4.8,3.2,7.2,6.1
				c8.6,10.5,8.4,27,2,38.6c-8.4,15.2-28.4,23.7-34.9,18.5c-4-3.2-1.2-14.5,4.5-37c1.6-6.4,3.6-13,9-19.4
				C261.4,40.5,264.8,38,267.3,36.5z"/>
		</g>
		<g>
			
				<linearGradient id="SVGID_25_" gradientUnits="userSpaceOnUse" x1="36.5442" y1="1344.7734" x2="36.5442" y2="1278.0287" gradientTransform="matrix(0.4199 -0.9968 -1.0638 -0.4481 1787.7325 931.0752)">
				<stop  offset="0" style="stop-color:#D35674"/>
				<stop  offset="1" style="stop-color:#D34689;stop-opacity:0.5"/>
			</linearGradient>
			<path class="st33" d="M442.4,324.6c-1.4-1.6-2.7-3.2-4.1-4.8c1.9-0.1,3.8-0.2,5.7-0.3c0.3-2.5,0.5-6.2-0.7-10.5
				c-3-10.9-12.3-16.4-15.3-18.3c-20.9-12.5-59.4,1.1-60.5,14.2c-1.1,12.6,32.7,23.7,38.6,25.6c17,5.6,24.7,2.9,28.7,0.7
				C438.4,329.2,440.8,326.6,442.4,324.6z"/>
			
				<linearGradient id="SVGID_26_" gradientUnits="userSpaceOnUse" x1="19.8735" y1="1348.2576" x2="19.8735" y2="1285.5815" gradientTransform="matrix(0.4199 -0.9968 -1.0638 -0.4481 1787.7325 931.0752)">
				<stop  offset="0" style="stop-color:#E595A1"/>
				<stop  offset="1" style="stop-color:#D34689;stop-opacity:0.5"/>
			</linearGradient>
			<path class="st34" d="M395.3,368.2c-6.8,4.4-26.3-6.3-34.2-22.4c-6.7-13.6-1.6-29.2,1.4-39.1c2-6.6,3-9.9,5.7-13.5
				c12.8-17.3,43.7-16.8,63.3-7.7c0.7,0.3,14.1,6.6,13.2,10.8c-0.8,3.7-12.2,2.6-31.4,6.6c-13.1,2.7-26.8,5.5-28.7,13
				c-1.3,5.1,3.9,7.8,8.7,18.2C398.7,346.3,401.5,364.2,395.3,368.2z"/>
			
				<linearGradient id="SVGID_27_" gradientUnits="userSpaceOnUse" x1="12.0377" y1="1345.7145" x2="12.0377" y2="1280.0382" gradientTransform="matrix(0.4199 -0.9968 -1.0638 -0.4481 1787.7325 931.0752)">
				<stop  offset="0" style="stop-color:#E874AC"/>
				<stop  offset="1" style="stop-color:#F45DA2;stop-opacity:0.5"/>
			</linearGradient>
			<path class="st35" d="M428.7,350.5c-1.1,1-3.8-0.1-6.2-1.4c1,1.5,2.2,3.9,1.4,5.7c-1.4,3.3-8.2,3-11.5,2.9
				c-8.3-0.3-26-1-37.6-15.4c-11.4-14.2-13.5-37.5-5-43.1c9.7-6.4,31.3,11.5,39.8,19.8C421.7,331,431.5,347.9,428.7,350.5z"/>
		</g>
		<g>
			<path class="st36" d="M413.6,421.6c0.2,1.6,1,10.3-5.3,16.5c-6.6,6.6-15.8,5.2-17,5c-10.1-1.7-19.2-10.9-20.5-21.3
				c-1.7-13.5,10.1-25.8,23-23.7C404.9,399.9,412.6,411.7,413.6,421.6z"/>
			<path class="st37" d="M408.9,437.4c-1.8-0.1-5.1-0.5-8.6-2.2c-10.4-4.9-15.2-17.3-13.6-18.7c0.7-0.6,2.9,1,6.5,3.6
				C397.3,423.3,403.3,428.6,408.9,437.4z"/>
			<path class="st38" d="M376.8,397.2c-0.7,5.9-1.5,19,5.7,33.2c2.7,5.4,5.9,9.6,8.8,12.7c-3.1-0.8-8.5-2.5-14-6.6
				c-3.4-2.6-12.7-9.5-13.2-19.1c-0.3-6.2,3.3-11,5.2-13.6C371.9,400.5,374.8,398.4,376.8,397.2z"/>
			<path class="st29" d="M384.2,392c5.1-1.8,11-1.4,15.5,0.8c9.6,4.6,15.8,18.2,13.8,33.2c-4.4-4.7-11-10.5-19.8-14.6
				c-10.8-5-18.7-4.6-19.9-8.6C372.7,398.8,379,393.9,384.2,392z"/>
		</g>
		<g>
			<path class="st27" d="M344.3,473.1c-0.4,1.3-2.7,8.6-10,11.4c-7.6,3-14.5-1.3-15.4-1.9c-7.5-4.8-11.7-15.4-9.1-24.2
				c3.3-11.4,17.1-17.2,26.7-11.1C344.8,452.8,346.9,464.9,344.3,473.1z"/>
			<path class="st26" d="M340.2,466.2c-2.7,1.1-8.4,3-15.7,2.2c-6.6-0.7-11.3-3.3-13.7-4.9c0-0.7,0-1.6,0.1-2.6
				c0.9-8.1,7.4-17.2,13.8-17.5C331.3,443.1,340,452.2,340.2,466.2z"/>
			<path class="st28" d="M331,439.3c4.7,0.3,9.3,2.7,12.2,6c6.1,7,6.4,20-0.4,31.4c-1.9-5.3-5.2-12.2-10.9-18.5
				c-7-7.7-13.5-10.2-13-13.8C319.4,440.8,326.2,439,331,439.3z"/>
			<path class="st29" d="M323.2,440.9c-2.6,4.5-7.8,14.8-6.9,28.6c0.3,5.2,1.4,9.7,2.6,13.2c-2.3-1.7-6-4.9-9-10.1
				c-1.9-3.2-6.9-12-4-19.9c1.9-5.1,6.4-7.7,8.9-9.1C318.1,441.9,321.2,441.2,323.2,440.9z"/>
		</g>
		<g>
			<path class="st36" d="M401.9,31.3c0.7-0.8,4.7-5.1,10.8-4.8c6.4,0.4,9.9,5.6,10.3,6.3c3.7,5.8,3.3,14.5-1.4,19.9
				c-6.1,6.9-17.7,6.5-22.5-0.9C394.9,45.4,397.3,36.2,401.9,31.3z"/>
			<path class="st37" d="M412,26.5c0.8,1,2.1,2.8,2.8,5.3c2.3,7.5-1.8,15.5-3.2,15.2c-0.6-0.1-0.8-1.9-1.1-4.9
				C410.2,38.7,410.1,33.3,412,26.5z"/>
			<path class="st38" d="M406.3,60.7c3.3-2.3,10.3-7.8,14.2-17.8c1.5-3.8,2.1-7.3,2.4-10.1c1,1.9,2.6,5.4,3.1,10
				c0.3,2.9,1,10.7-3.7,15.2c-3,3-7.1,3.3-9.3,3.5C410.2,61.6,407.8,61.1,406.3,60.7z"/>
			<path class="st29" d="M400.3,59.3c-3.3-1.7-5.7-4.9-6.7-8.1c-2.1-6.9,2-16.1,10.5-21.9c-0.4,4.4-0.3,10.2,1.7,16.5
				c2.4,7.7,6.2,11.5,4.7,13.9C409,62,403.6,61.1,400.3,59.3z"/>
		</g>
	</g>
	<path class="st0" d="M491.4,379.3c-0.5,18.5,0.9,35,2.9,48.8c-4.8,4.8-9.6,9.6-14.3,14.3c-2.3-15.2-3.8-31.7-3.8-49.3
		c-0.2,0.2-0.3,0.4-0.5,0.6c-9.7,10.8-20.3,14-34.4,31.6c-4.6,5.7-7.9,10.9-10,14.3c-9.3-6.3-31.6-23.3-44.5-54.5
		c-15.3-37.2-7.2-70.2-4.3-80.3c7.6,2.4,15.3,4.8,23,7.2c-4.2,13.6-9.5,39.1,1.4,64.6c3.2,7.5,11.3,26.5,24.4,27.3
		c10.7,0.6,19.1-11.3,27.3-23c15.1-21.5,19.2-43.5,21.5-57.4c2.4-13.8,2.8-25.3,2.9-33c6.2-1,12.4-1.9,18.7-2.9
		c-0.7,20-3.2,37-6,50.5C493.4,350,491.8,363.9,491.4,379.3z"/>
	<path class="st0" d="M650.7,46.4c-2.3,18.7-5.2,37.8-8.6,57.4c-12.8,72.4-31.5,137.5-52.4,194.6c-13.6-3.2-27.2-6.4-40.9-9.5
		c-8.4,7.8-18,18.2-27.3,31.6c-7.5,10.8-13.1,21.2-17.2,30.1c0.7,11.6,3.6,31.8,15.8,53.1c7.4,13,16.1,22.4,23,28.7
		c16.6-5.1,33.2-10.1,49.7-15.2c0.6,8.5,1.2,16.9,1.9,25.2c2.8-2,6.6-5.2,10-10c4.4-6.1,6.3-12.1,7.2-15.8
		c-1.7-17.7-2.7-36.9-2.9-57.4c-0.2-24.3,1-46.9,2.9-67.4c12.9-52.1,25.8-104.3,38.7-156.4c2.9-32.5,5.7-65,8.6-97.6L650.7,46.4z
		 M548.8,400.8c-9.6-4.9-14.5-15.1-17.9-22.2c-4.5-9.4-6-18.1-6.5-23.7c4.2-7.2,9.1-14.9,15.1-23c5.6-7.6,11.2-14.3,16.5-20.1
		c4.1,0.5,15.1,2.4,24.4,11.5c4.8,4.7,7.5,9.8,8.9,13.2c0.3,18.3,1,36.9,2,56C577.5,403.1,560.9,407,548.8,400.8z"/>
	<path class="st0" d="M748.2,347.7c-4.3-16.8-15.2-27.8-31.6-44.5c-11.9-12.2-23.4-20.5-31.6-25.8c-15.7,16-26.9,30.8-34.4,41.6
		c-14.1,20.3-21.1,30.8-21.5,44.5c-0.5,15,6.4,25.8,17.2,43c11.6,18.4,21.5,34.2,37.3,35.9c11.7,1.3,21.2-5.8,28.7-11.5
		C733.9,414.8,756.7,380.9,748.2,347.7z M709.5,408c-6,5.5-13.8,12.7-23,11.5c-9.1-1.2-14.8-10.8-26.1-29.8
		c-7.9-13.3-11.9-20.1-11.7-27.4c0.3-8.7,5.1-15.4,14.6-28.3c5.1-6.9,12.7-16.2,23.3-26.4c5.5,3.4,13.3,8.7,21.4,16.4
		c10.6,10.2,18.1,17.3,21.4,28.3C736,374,721.8,396.6,709.5,408z"/>
	<path class="st0" d="M817.1,317.6c-6.9,5-13.8,10-20.7,14.9c7.9,7,16.7,16.3,25,28.1c14.3,20.4,21.1,40.1,24.4,53.1
		c-1,9.6-1.9,19.1-2.9,28.7c-7.2-15.8-14.3-31.6-21.5-47.3c-3.1-8.7-9.5-22.4-23-33c-2.9-2.3-5.8-4.2-8.6-5.7v1.4
		c0.2,20.5,1.2,39.7,2.9,57.4c-0.9,3.7-2.8,9.7-7.2,15.8c-3.5,4.8-7.2,8-10,10c-1.1-13.2-2.1-26.6-2.9-40.2
		c-2.1-35.3-3-69.2-2.9-101.9c21.2-57.6,40.2-123.3,53.1-196.6c3.5-19.6,6.3-38.7,8.6-57.4l8.6-8.6c-2.9,32.5-5.7,65-8.6,97.6
		c-12.9,52.1-25.8,104.3-38.7,156.4c-0.8,8.4-1.4,17.1-1.9,26.1c7.6-5.7,15.5-12,23.4-18.9c24.6-21.6,43.3-43.7,57.4-63.1
		c-0.3,3.8-0.5,7.6-0.7,11.5c-0.3,4.8-0.5,9.6-0.7,14.3c-8.1,10.2-17.2,20.8-27.3,31.6C834.1,301.2,825.5,309.8,817.1,317.6z"/>
	<path class="st0" d="M985,379.3c-0.5,18.5,0.9,35,2.9,48.8c-4.8,4.8-9.6,9.6-14.3,14.3c-2.3-15.2-3.8-31.7-3.8-49.3
		c-0.2,0.2-0.3,0.4-0.5,0.6c-9.7,10.8-20.3,14-34.4,31.6c-4.6,5.7-7.9,10.9-10,14.3c-9.3-6.3-31.6-23.3-44.5-54.5
		c-15.3-37.2-7.2-70.2-4.3-80.3c7.6,2.4,15.3,4.8,23,7.2c-4.2,13.6-9.5,39.1,1.4,64.6c3.2,7.5,11.3,26.5,24.4,27.3
		c10.7,0.6,19.1-11.3,27.3-23c15.1-21.5,19.2-43.5,21.5-57.4c2.4-13.8,2.8-25.3,2.9-33c6.2-1,12.4-1.9,18.7-2.9
		c-0.7,20-3.2,37-6,50.5C986.9,350,985.4,363.9,985,379.3z"/>
</g>
</svg>
