<?xml version="1.0" encoding="utf-8"?>
<!-- Generator: Adobe Illustrator 22.0.1, SVG Export Plug-In . SVG Version: 6.00 Build 0)  -->
<svg version="1.1" xmlns="http://www.w3.org/2000/svg" xmlns:xlink="http://www.w3.org/1999/xlink" x="0px" y="0px"
	 viewBox="0 0 1000 1000" style="enable-background:new 0 0 1000 1000;" xml:space="preserve">
<style type="text/css">
	.st0{fill:#753647;}
	.st1{fill:url(#SVGID_1_);}
	.st2{fill:url(#SVGID_2_);}
	.st3{fill:url(#SVGID_3_);}
	.st4{fill:url(#SVGID_4_);}
	.st5{fill:url(#SVGID_5_);}
	.st6{fill:url(#SVGID_6_);}
	.st7{fill:url(#SVGID_7_);}
	.st8{fill:#FFC5E8;}
	.st9{fill:#871833;}
	.st10{fill:#7A0E2D;}
	.st11{fill:#EABA65;}
	.st12{fill:url(#SVGID_8_);}
	.st13{fill:url(#SVGID_9_);}
	.st14{fill:url(#SVGID_10_);}
	.st15{fill:url(#SVGID_11_);}
	.st16{fill:url(#SVGID_12_);}
	.st17{fill:url(#SVGID_13_);}
	.st18{fill:url(#SVGID_14_);}
	.st19{fill:url(#SVGID_15_);}
	.st20{fill:url(#SVGID_16_);}
	.st21{fill:url(#SVGID_17_);}
	.st22{fill:url(#SVGID_18_);}
	.st23{fill:url(#SVGID_19_);}
	.st24{fill:url(#SVGID_20_);}
	.st25{fill:url(#SVGID_21_);}
	.st26{fill:#B52C6A;}
	.st27{fill:#F45DA2;}
	.st28{fill:#D34689;}
	.st29{fill:#E874AC;}
	.st30{fill:url(#SVGID_22_);}
	.st31{fill:url(#SVGID_23_);}
	.st32{fill:url(#SVGID_24_);}
	.st33{fill:url(#SVGID_25_);}
	.st34{fill:url(#SVGID_26_);}
	.st35{fill:url(#SVGID_27_);}
	.st36{fill:#CC4E6C;}
	.st37{fill:#C13D56;}
	.st38{fill:#DD5878;}
	.st39{display:none;}
	.st40{display:inline;}
	.st41{fill:url(#SVGID_28_);}
	.st42{fill:url(#SVGID_29_);}
	.st43{fill:url(#SVGID_30_);}
	.st44{fill:url(#SVGID_31_);}
	.st45{fill:url(#SVGID_32_);}
	.st46{fill:url(#SVGID_33_);}
	.st47{fill:url(#SVGID_34_);}
	.st48{fill:url(#SVGID_35_);}
	.st49{fill:url(#SVGID_36_);}
	.st50{fill:url(#SVGID_37_);}
	.st51{fill:url(#SVGID_38_);}
	.st52{fill:url(#SVGID_39_);}
	.st53{fill:url(#SVGID_40_);}
	.st54{fill:url(#SVGID_41_);}
	.st55{fill:url(#SVGID_42_);}
	.st56{fill:url(#SVGID_43_);}
	.st57{fill:url(#SVGID_44_);}
	.st58{fill:url(#SVGID_45_);}
	.st59{fill:url(#SVGID_46_);}
	.st60{fill:url(#SVGID_47_);}
	.st61{fill:url(#SVGID_48_);}
	.st62{fill:url(#SVGID_49_);}
	.st63{fill:url(#SVGID_50_);}
	.st64{fill:url(#SVGID_51_);}
	.st65{fill:url(#SVGID_52_);}
	.st66{fill:url(#SVGID_53_);}
	.st67{fill:url(#SVGID_54_);}
	.st68{display:inline;fill:#753647;}
</style>
<g id="Слой_2">
	<path class="st0" d="M89.3,9c13.2,32.2,26.5,64.4,39.7,96.6c81.5,7.2,143,30,181.3,47.6c18.7,8.6,74.6,35.3,135,87.4
		c47.2,40.7,80.1,82,101.9,113.8c-22.5,0.5-47.9,3-75.4,9.3c-90.1,20.6-152.2,70.2-185.3,101.9c12.9,34.7,33,76.6,64.9,119.1
		c82.3,109.8,191.6,154.7,243.5,172.1c78.9,31.5,180.7,86.9,266,186.6c14.7,17.2,27.9,34.5,39.7,51.6c8.8-7.9,17.6-15.9,26.5-23.8
		c-21-36.1-57.4-89.3-116.5-137.6c-37.8-30.9-57.3-37.3-197.2-111.2C473.9,648.6,447,626.3,424.1,603.2
		c-45.9-46.2-72.2-95.2-87.4-129.7c14.3-13.7,35.3-31.4,63.5-47.6c47.3-27.1,89.7-35.2,113.8-39.7c21.3-3.9,49.2-7.3,82.1-6.6
		c-8.3-15.2-21.8-37.9-41-63.5C466.4,198,352.4,147.4,310.3,129.4c-38-16.3-95.5-36.5-169.4-46.3C128.1,57.1,115.3,31,102.5,5
		C98.1,6.3,93.7,7.6,89.3,9z"/>
	<path class="st0" d="M489,261.8c-2.8-9.9-5.7-24-5.3-41c0.5-22,6.1-39.4,10.6-50.3c-4.9-0.9-9.7-1.8-14.6-2.6
		c-2.9,11.3-5.6,25.2-6.6,41c-1.3,20.3,0.3,37.9,2.6,51.6C480.2,260.9,484.6,261.3,489,261.8z"/>
	<path class="st0" d="M283.8,376.9c4.8,8,12.6,23.7,14.6,45c2,21.8-3.3,38.9-6.6,47.6c6.2-3.1,12.4-6.2,18.5-9.3
		c2.7-8.5,6-23.1,4-41c-2.8-24.5-14.1-41.5-19.9-49C290.9,372.5,287.4,374.7,283.8,376.9z"/>
	<path class="st0" d="M569.7,355.7c-0.4,5.3-0.9,10.6-1.3,15.9c6-3.9,15.9-9.3,29.1-11.9c8.9-1.8,16.7-1.8,22.5-1.3
		c0-3.1,0-6.2,0-9.3c-6.7-1-16.4-1.8-27.8,0C582.9,350.6,575.3,353.3,569.7,355.7z"/>
	<path class="st0" d="M320.9,517.2c-13.7,2.2-27.4,4.4-41,6.6c-8.4,7.5-16.8,15-25.1,22.5c1.8,3.1,3.5,6.2,5.3,9.3
		c5.5-6.1,10.7-10.4,14.6-13.2c4.2-3.1,7.8-5.7,13.2-7.9c3.4-1.4,6.3-2.1,18.5-4c4.9-0.7,11.2-1.7,18.5-2.6
		C323.5,524.3,322.2,520.7,320.9,517.2z"/>
	<path class="st0" d="M383.1,887.8c1.8-0.4,3.5-0.9,5.3-1.3c1.3-12.1,1.9-34.9-9.3-59.6c-4.8-10.6-10.7-18.9-15.9-25.1
		c-14.1-6.2-28.2-12.4-42.4-18.5c-10.1-4.4-20.3-8.8-30.4-13.2c-4.2-6.7-11-17-19.9-29.1c-13.3-18.1-17.2-21.1-18.5-29.1
		c-2-12.5,4.8-22.9,15.9-39.7c6.2-9.4,15.9-22.4,30.4-35.7c1.8-14,6.1-34,17.2-55.6c6.8-13.2,14.4-23.7,21.2-31.8
		c-2.6-5.7-5.3-11.5-7.9-17.2c-3.5-1.8-7.1-3.5-10.6-5.3c-1.1,7.6-2.8,17-5.3,27.8c-3.6,15.1-9.4,39-23.8,66.2
		c-4.6,8.6-8.3,14.3-14.6,23.8c-13.2,20.1-25.5,35.7-34.4,46.3c1.1,4.5,2.5,11.4,2.6,19.9c0.2,13.1-2.8,14.7-1.3,21.2
		c2.6,11.6,13.4,13.2,26.5,27.8c7.3,8.1,11.8,16.4,14.6,22.5c5,1.1,12.5,3,21.2,6.6c10.4,4.4,14.1,7.7,26.5,14.6
		c21.9,12.1,22.4,8.3,29.1,14.6c8.9,8.3,11.8,18.3,17.2,37.1C380.3,868,382.1,879.5,383.1,887.8z"/>
	<path class="st0" d="M331.5,112.2c4.9,14.1,9.7,28.2,14.6,42.4c-5.3-1.8-10.6-3.5-15.9-5.3c-3.1-10.1-6.2-20.3-9.3-30.4
		C324.4,116.6,328,114.4,331.5,112.2z"/>
</g>
<g id="Слой_1">
	<g>
		<g>
			<linearGradient id="SVGID_1_" gradientUnits="userSpaceOnUse" x1="630.741" y1="885.83" x2="630.741" y2="642.7478">
				<stop  offset="0" style="stop-color:#ECA1C4;stop-opacity:0.7"/>
				<stop  offset="1" style="stop-color:#D1658D"/>
			</linearGradient>
			<path class="st1" d="M663,667.4c9.9,7.7,59.4,47.7,62.2,111.2c0.6,13.3,1.6,48.8-22.5,76.8c-6.7,7.8-13.6,13-18.7,16.3
				c-0.1-2.9-0.6-7.7-3.1-12.9c-3.6-7.5-9.3-11.6-11.9-13.2c0.6,5.3,1.8,11.6,4,18.5c1.6,5,3.5,9.5,5.3,13.2
				c-7.4,3.5-19.7,8.2-35.1,8.6c-8.5,0.2-16.5-0.9-47.6-10.6c-25.1-7.8-37.6-11.6-40.4-13.9c-21.3-17.7-19.7-53.2-18.5-78.1
				c1.2-24.9,5.7-25.7,11.3-64.2c6.9-47.8,1-58.9,10.6-67.5C586,626.8,652,661.5,663,667.4z"/>
			<linearGradient id="SVGID_2_" gradientUnits="userSpaceOnUse" x1="409.8131" y1="878.5014" x2="541.9302" y2="649.668">
				<stop  offset="0" style="stop-color:#ECA1C4;stop-opacity:0.7"/>
				<stop  offset="1" style="stop-color:#D1658D"/>
			</linearGradient>
			<path class="st2" d="M494.9,641c-19.9,4.3-26.3,17.1-47.6,35.7c-42.7,37.4-62.3,27.1-75.4,52.9c-10.3,20.2-5.7,41.7,0.7,72.1
				c6.5,31.1,18.4,54.8,27.1,69.5c3.6-0.9,9.3-2.9,15.2-7.3c6.3-4.7,10-10,11.9-13.2c0.1,4-0.2,12.6-5.3,21.2c-2.4,4-5.2,7-7.5,9
				c12.5,3.9,37,9.6,66.4,3.6c15.7-3.2,59.7-15.2,82.1-55.6c12.6-22.7,12.3-43.1,11.9-71.5c-0.4-30.9-1.3-91.1-38.4-111.2
				C517.6,636.3,497.8,640.3,494.9,641z"/>
			<linearGradient id="SVGID_3_" gradientUnits="userSpaceOnUse" x1="301.0418" y1="624.3124" x2="534.1722" y2="624.3124">
				<stop  offset="0" style="stop-color:#ECA1C4;stop-opacity:0.7"/>
				<stop  offset="1" style="stop-color:#D1658D"/>
			</linearGradient>
			<path class="st3" d="M533.3,617.1c-4-23.7-20.8-37.7-54.3-64.9c-27.8-22.6-41.8-33.9-59.6-35.7c-21.9-2.2-39.5,7.9-70.1,25.1
				c-20.3,11.4-35.7,23-45.7,31.1c5,3.9,10.7,7.9,17.2,11.9c7,4.3,13.7,7.8,19.9,10.6c-4.8,0.3-10.1,0.4-15.9,0
				c-9.2-0.6-17.2-2.2-23.8-4c0.3,11.4,1.9,27.4,7.3,45.7c2.9,9.8,8.3,28.1,21.2,46.3c9.2,13.1,32.9,46.7,66.2,49
				c21.8,1.5,20.7-12.2,80.7-39.7c25.9-11.8,37.9-14.7,47.6-29.1C537.5,643.5,533.9,620.3,533.3,617.1z"/>
			<linearGradient id="SVGID_4_" gradientUnits="userSpaceOnUse" x1="832.8575" y1="664.3894" x2="578.6485" y2="664.3894">
				<stop  offset="0" style="stop-color:#ECA1C4;stop-opacity:0.7"/>
				<stop  offset="1" style="stop-color:#D1658D"/>
			</linearGradient>
			<path class="st4" d="M579.6,632c6.5-23,47.2-30.5,128.6-45.4c64.1-11.7,78.3-4.2,85.5,2.7c15.9,15.3,3.2,32.7,24.7,75.5
				c8.8,17.6,16.6,25.8,14,38.6c-3.1,15.4-18.6,24.5-28.5,30.1c-29.4,16.6-60.1,15.5-73.7,14.2C655.1,740.1,568.5,671.6,579.6,632z"
				/>
			<linearGradient id="SVGID_5_" gradientUnits="userSpaceOnUse" x1="585.0433" y1="462.5339" x2="585.0433" y2="630.4891">
				<stop  offset="0" style="stop-color:#ECA1C4;stop-opacity:0.7"/>
				<stop  offset="1" style="stop-color:#D1658D"/>
			</linearGradient>
			<path class="st5" d="M460.5,504.6c2.9-15.6,15.6-28.2,28.5-33.8c12.3-5.3,20.2-2.2,39.7-1.3c39.4,1.8,40.4-9.3,71.5-6.6
				c19.9,1.7,34,7.7,62.2,19.9c37,15.9,42.5,25.7,44.3,29.8c7.1,15.3,1.2,31.5-1.3,39.7c-15.7,51.1-77.4,68-90,71.5
				c-17.7,4.9-36.7,10.1-59.6,4c-32.7-8.7-49.6-34.4-76.8-75.4C461.2,525.2,458.7,514.5,460.5,504.6z"/>
			<radialGradient id="SVGID_6_" cx="552.8916" cy="639.3396" r="36.9112" gradientUnits="userSpaceOnUse">
				<stop  offset="0" style="stop-color:#743659"/>
				<stop  offset="1" style="stop-color:#EC7A9F;stop-opacity:0.5"/>
			</radialGradient>
			<path class="st6" d="M511.5,631c3.4-14.4,20.5-21.4,31.8-22.5c14.2-1.4,24.7,5.9,37.1,14.6c8.6,6,14.1,9.8,14.6,15.9
				c1,11.6-17.3,21.1-22.5,23.8c-7.7,4-18.8,9.8-31.8,6.6C524.2,665.4,507.5,647.9,511.5,631z"/>
			
				<radialGradient id="SVGID_7_" cx="671.6085" cy="543.9083" r="98.7784" gradientTransform="matrix(0.2758 1.1575 -1.0601 0.2526 947.9351 -269.2863)" gradientUnits="userSpaceOnUse">
				<stop  offset="9.189189e-02" style="stop-color:#7E384F"/>
				<stop  offset="1" style="stop-color:#A1384F;stop-opacity:0.6"/>
			</radialGradient>
			<path class="st7" d="M611.8,590c2.9,3.5-20.8,21.9-16.5,32.4c5,11.9,43.9,6,44.3,9.6c0.3,3-26.1,5.6-26.5,11.1
				c-0.3,4.2,14.3,10,58.3,18.4c0,0,0,0,0,0c0,0.2-60.7-6.2-68.7,11.9c-5.5,12.5,16.8,30.9,11.6,37.1c-4.8,5.8-23.6-11.2-40.8-5.3
				c-24.6,8.4-28,57.8-32.2,57.1c-4-0.7,4.1-45.9-3.8-48.7c-4.4-1.5-15.4,8-46.4,67.7c12.2-29.2,17-51.5,19-65.9
				c0.9-6.1,1.8-14.7-2.8-18c-8.1-5.8-23.7,11.2-33.2,5.8c-9.8-5.5,1.6-26.7-11.4-45.5c-8.1-11.8-19.8-13.9-18.7-18.4
				c1.9-8.1,38.5-1,43.3-11.5c2.4-5.4-2.9-16.4-36.2-41.3c-1.3-1,20.6,18.6,37,13.6c14.9-4.6,16.2-26.5,28.6-27.2
				c10-0.6,14.7,13.5,21.4,12.3c5.8-1,11.5-13.3,13-58.6c-0.9,38.2,2.2,58,9.3,59.6c8.2,1.8,21.9-21.6,41-70.1
				c-26,61.5-27,80.4-21,84.2C588.1,604.9,609.1,586.6,611.8,590z"/>
		</g>
		<g>
			<path class="st8" d="M470.5,521.2c2.7-5.6,7.5-13.8,15.9-21.2c20.5-18,50.7-20.7,74.1-11.9c6.5,2.4,17.2,7.5,27.8,18.5
				c6.2-2.2,12.4-4.4,18.5-6.6c0.4,4,0.9,7.9,1.3,11.9c8.8-1.4,22-3.4,38.4-5.3c12.4-1.4,14.5-1.2,15.9-1.3c9.6-0.9,24,5.6,45,39.7
				c-1.3-6.4-4.5-17.4-13.2-27.8c-3.3-3.9-9.1-10.7-18.5-14.6c-20.7-8.5-34.7,7.1-50.3-2.6c-7.6-4.8-8.4-11.1-15.9-11.9
				c-7.6-0.8-10.4,5.4-18.5,6.6c-11,1.6-14.7-8.5-29.1-14.6c-19.1-8.1-39.2-1.7-52.9,2.6c-9.6,3.1-17.6,5.7-25.1,13.2
				C474.6,505.1,471.6,515.8,470.5,521.2z"/>
			<path class="st8" d="M305,574.1c9.6-13.4,19.3-18.8,26.5-21.2c12-4,18.5-0.4,30.4-6.6c9.4-4.9,9.2-9.2,18.5-14.6
				c10.7-6.2,21.2-6.4,29.1-6.6c29.9-0.7,54.8,16.9,62.2,22.5c-6.1-7.4-16.8-18.1-33.1-25.1c-7-3-17.1-7.3-30.4-6.6
				c-12.6,0.6-21.5,5.3-31.8,10.6c-20.2,10.5-17.9,16-31.8,19.9c-9.3,2.6-16.5,1.8-25.1,7.9c-5.4,3.8-8.8,8.6-9.3,9.3
				C307.5,567.6,305.9,571.4,305,574.1z"/>
			<path class="st8" d="M466.5,661.5c-8.6,17.3-18.8,25.9-26.5,30.4c-14.7,8.8-25.3,6.3-46.3,18.5c-9.4,5.5-15.4,9-19.9,15.9
				c-12,18.5-1.1,43.6,1.3,49c-1.5-5.2-3.8-15.4-1.3-27.8c0.6-3,2.9-14.3,10.6-23.8c15.1-18.8,35.5-11.3,56.9-26.5
				C449.2,691.6,459.4,681.5,466.5,661.5z"/>
			<path class="st8" d="M646.5,658.8c10.3,5.5,26,15.3,41,31.8c7.9,8.6,30.8,34.5,37.1,75.4c3.7,24.7,0,45.6-4,59.6
				c0.5-9,0.7-21.9-1.3-37.1c-1.7-12.6-7-44.1-27.8-78.1C676.8,686.4,659.7,669.7,646.5,658.8z"/>
			<path class="st8" d="M747.1,600.6c2.7,4.8,6.3,12.5,7.9,22.5c2.4,14.6-1.7,20.3,1.3,31.8c1.1,4.4,3.2,9,17.2,25.1
				c7.2,8.2,17.3,19.3,30.4,31.8c-10.1-7.9-20.7-15.8-31.8-23.8c-8.9-6.5-17.8-12.6-26.5-18.5c1.8-3.5,3.5-7.1,5.3-10.6
				c-3.5-0.9-7.1-1.8-10.6-2.6c3.6-6.5,8.9-18.6,9.3-34.4C749.9,613.2,748.6,606,747.1,600.6z"/>
			<path class="st8" d="M571,709.1c5.8,20.8,12.2,55.9,1.3,94c-6.1,21.6-14.9,33.9-17.2,37.1c-14.7,20-33.2,29.9-43.7,34.4
				c11.8-9.1,26.2-22.8,38.4-42.4C581.9,780.7,574.2,726.2,571,709.1z"/>
		</g>
		<g>
			<path class="st9" d="M544.6,641.6c-9.6,7.4-21.2,18.1-31.8,33.1c-23.1,32.9-27.1,66.9-27.8,83.4c2-15,6.7-36.9,18.5-60.9
				C516.6,670.7,533.1,652.5,544.6,641.6z"/>
			<path class="st9" d="M541.9,646.9c1.8,0,3.5,0,5.3,0c0.4,17.1,0.1,35.7-1.3,55.6c-2.2,30.6-6.6,58.1-11.9,82.1
				c5.6-23.9,10.2-53.5,10.6-87.4C544.8,678.9,543.7,662.1,541.9,646.9z"/>
			<path class="st9" d="M549.9,644.3c6.4,7.3,13.9,14.9,22.5,22.5c24.3,21.3,49.1,34.3,68.8,42.4c-12.4-3.7-29.6-10.3-47.6-22.5
				C572.1,672.1,558.1,655.7,549.9,644.3z"/>
			<path class="st9" d="M536.6,641.6c0.4,0.9,0.9,1.8,1.3,2.6c-7.1,2.1-15.1,4-23.8,5.3c-28,4.1-52,0.4-68.8-4
				c14.5,2.8,34.1,4.9,56.9,2.6C515.4,646.9,526.9,644.4,536.6,641.6z"/>
			<path class="st9" d="M548.5,640.3c0,0.9,0,1.8,0,2.6c3.8,0.8,9.3,2,15.9,4c21.1,6.2,36.3,14.4,46.3,19.9
				c6.2,3.4,14.4,8.2,23.8,14.6c-6.3-4.9-13.3-9.8-21.2-14.6C589.8,652.5,567,644.7,548.5,640.3z"/>
			<path class="st9" d="M541.9,639c-7.6-6.9-20.5-16.3-38.4-19.9c-3.7-0.7-7.3-1.1-10.6-1.3c7.1,1.5,15.7,3.9,25.1,7.9
				C527.9,629.9,535.8,634.7,541.9,639z"/>
			<path class="st9" d="M548.5,637.6c5.2-3.6,12.3-7.4,21.2-9.3c30.9-6.4,56.1,16.6,59.6,19.9c-5.4-4.5-14.2-10.7-26.5-14.6
				c-17.2-5.4-31.4-3.2-34.4-2.6C559.7,632.5,553,635.4,548.5,637.6z"/>
			<path class="st9" d="M541.9,644.3c-4.7,13.5-9.2,28.1-13.2,43.7c-6.3,24.2-10.5,46.9-13.2,67.5c1.2-19.9,4.5-43.8,11.9-70.1
				C531.7,670,536.8,656.3,541.9,644.3z"/>
			<path class="st9" d="M544.6,645.6c0.9-0.9,1.8-1.8,2.6-2.6c6.3,10.6,12.6,22,18.5,34.4c18,37.5,28.4,73,34.4,103.2
				c-4.8-22.3-12.5-49.1-25.1-78.1C565.3,680.3,554.7,661.4,544.6,645.6z"/>
			<path class="st9" d="M545.9,642.9c3.2,18.6,6.3,37.6,9.3,56.9c4,26.1,7.5,51.7,10.6,76.8c-1.9-21.4-4.4-43.9-7.9-67.5
				C554.3,685.8,550.3,663.7,545.9,642.9z"/>
			<path class="st10" d="M546.7,624.1c-6.9-1.1-15.7,2-19.2,10.5c-3.6,8.5-0.2,18.3,5.8,23.2c8.7,7.1,22.2,3.2,26.9-6.3
				c3.9-7.9,0.2-16.4,0-16.9C556.3,625.9,547.8,624.3,546.7,624.1z"/>
		</g>
		<g>
			<path class="st11" d="M478.6,752.7c-0.2,3.9,1.6,8.4,5.1,8.9c3.5,0.4,6.4-3.4,7.1-7.3c0.5-2.8,0.1-6.4-2-8.5
				c-1.7-1.7-4.1-2-6.1-0.8C480.1,746.5,478.7,749.8,478.6,752.7z"/>
			<path class="st11" d="M512.8,754.1c-0.7,2-0.1,4.9,1.3,5.3c1,0.3,2.1-0.7,2.6-1.3c1.7-2.1,0.1-5.2,0-5.3
				c-0.3-0.5-0.7-1.2-1.3-1.3C514.4,751.3,513.2,752.9,512.8,754.1z"/>
			<path class="st11" d="M534,777.8c-1.1,0.7-1.4,1.9-1.6,2.5c-0.6,2.2-0.1,5.1,1,5.4c0.9,0.3,2.1-1.6,2.6-2.7c0.9-2,1.1-4.9,0-5.6
				C535.2,777,534.2,777.6,534,777.8z"/>
			<path class="st11" d="M564.4,771.3c-1.4,1-0.7,3.8,0,5.3c0.4,0.9,1.6,2.8,2.6,2.6c1.2-0.2,1.7-3.2,1.3-5.3
				c-0.1-0.9-0.3-2-1.3-2.6C566.3,770.8,565.1,770.8,564.4,771.3z"/>
			<path class="st11" d="M595.9,770.3c-2.2,3.2-0.6,7.1,0,8.5c1.1,2.5,3.6,6.2,5.7,5.7c2-0.4,2.6-4.1,2.9-5.7
				c0.7-3.8,0.4-10.4-2.9-11.4C599.6,766.9,597.1,768.6,595.9,770.3z"/>
			<path class="st11" d="M632.8,705.2c2.3-2.5,9.6-1.3,11.9,2.8c0.9,1.6,1.3,4.2,0,5.6c-2.3,2.5-9.6,1.3-11.9-2.8
				C631.9,709.3,631.4,706.7,632.8,705.2z"/>
			<path class="st11" d="M629.3,680c0.4,2.5,5.4,3.9,6.6,2.6c0.8-0.8,0.1-2.4,0-2.6c-0.8-2.1-3.6-3.6-5.3-2.6
				C629.7,677.8,629.1,679,629.3,680z"/>
			<path class="st11" d="M634.4,650.9c-0.6,1.9-2.7,2.6-4.1,2.6c-3.5-0.1-7-4.9-6.2-7.8c0.6-2.3,3.8-3.5,6.2-2.6
				C633,644.2,635.3,648.2,634.4,650.9z"/>
			<path class="st11" d="M438.7,643.6c0.6-1.9,4.7-1.9,5.7-2c1.8,0,4.5-0.1,5.7,2c0.7,1.2,0.6,2.8,0,3.9c-1.5,2.7-5.5,2-5.7,2
				C441.1,648.9,438.1,645.5,438.7,643.6z"/>
			<path class="st11" d="M485,613.6c0.4-2.3,4.2-2.8,4.6-2.9c0.8-0.1,5.2-0.8,7,2.9c0.8,1.6,1,4.2,0,5.8c-1.8,2.7-6.4,0.3-7,0
				C487.7,618.3,484.7,615.8,485,613.6z"/>
			<path class="st11" d="M496.9,665.4c-1.5-1-3.5-0.2-4,0c-1.1,0.5-2.8,1.7-2.6,2.6c0.2,1.2,3.2,1.7,5.3,1.3
				c0.9-0.1,2.3-0.4,2.6-1.3C498.6,667.1,497.7,666,496.9,665.4z"/>
			<path class="st11" d="M530.7,614.1c0.9-0.5,2.5,1,2.7,1.2c0.3,0.3,2.2,2.1,1.5,3.9c-0.3,0.8-1.1,1.7-2,1.7
				c-1.6,0-2.4-2.7-2.5-3.1C530,616.7,529.7,614.6,530.7,614.1z"/>
			<path class="st11" d="M573.2,660.9c-0.7,0.8-2.7,0-3-0.1c-0.4-0.2-2.8-1.1-2.8-3.1c0-0.9,0.4-2,1.3-2.3c1.5-0.6,3.3,1.6,3.5,1.9
				C572.9,658.3,573.9,660.1,573.2,660.9z"/>
			<path class="st11" d="M589.5,644.6c-0.3,0.7-1.4,1-2.1,1c-1.8,0-3.5-1.9-3.1-3c0.3-0.9,1.9-1.4,3.1-1
				C588.8,642,589.9,643.6,589.5,644.6z"/>
			<path class="st11" d="M595.4,728.5c-0.4,1.8,1,3.2,1.5,3.7c0.9,0.9,2.6,2.1,3.4,1.5c0.8-0.5,0.4-2.2,0.3-2.9
				c-0.4-1.8-1.6-4.6-3.2-4.4C596.4,726.4,595.6,727.5,595.4,728.5z"/>
			<path class="st11" d="M562.9,706.6c-1.3,1.1-0.5,3.8,0.3,5.3c0.5,0.9,1.7,2.8,2.8,2.5c1.2-0.3,1.5-3.3,1.1-5.4
				c-0.2-0.9-0.4-2-1.5-2.6C564.8,706,563.6,706,562.9,706.6z"/>
			<path class="st11" d="M519.1,685c-1.7,0.1-2.7,2.8-2.9,4.5c-0.1,1-0.2,3.3,0.8,3.7c1.1,0.5,3.1-1.8,4-3.7
				c0.4-0.8,0.8-1.9,0.3-2.9C520.9,685.6,520,685,519.1,685z"/>
			<path class="st11" d="M458,701.5c-2-3.5,2.3-6.8,5.3-8.1c1.9-0.8,6.4-2,8.4-0.3c2.4,2.1,0.4,7.2-2.5,10c-1.2,1.2-2.8,2.6-5.5,2.1
				C461.6,704.9,459,703.4,458,701.5z"/>
			<path class="st11" d="M570.8,612.7c-2.8-0.7-6.4,3.2-5.6,6.3c0.5,2.1,3,4.1,5.6,3.2c2.5-0.9,3.4-4,2.8-6.3
				C573.2,614.4,572.2,613,570.8,612.7z"/>
			<path class="st11" d="M508.8,633.7c-0.9,0.5-1.6,1.7-1.3,2.6c0.4,1.5,2.7,2.3,4,1.3c1.2-0.9,1.2-3.1,0-4
				C510.7,633.1,509.6,633.2,508.8,633.7z"/>
		</g>
	</g>
	<g>
		<g>
			
				<linearGradient id="SVGID_8_" gradientUnits="userSpaceOnUse" x1="530.2333" y1="298.1021" x2="530.2333" y2="115.7808" gradientTransform="matrix(-0.8132 0.5819 -0.5819 -0.8132 724.0552 194.7772)">
				<stop  offset="0" style="stop-color:#FFA1D3;stop-opacity:0.7"/>
				<stop  offset="1" style="stop-color:#C7659C"/>
			</linearGradient>
			<path class="st12" d="M197.5,404.7c-14.4-1-58.9-5.7-89.1-39.8c-8-9-21.4-24.1-21.8-46.3c-0.3-15.1,5.5-26.8,9.3-33.1
				c1,1.6,3.8,5.7,9.3,7.9c3.2,1.3,6.2,1.4,7.9,1.3c-1.9-2.2-4.9-6.2-6.6-11.9c-1.3-4.3-1.4-8-1.3-10.6c7-6.5,18.4-15.7,34.4-22.5
				c13.5-5.8,27.2-11.6,41.2-9.2c21.4,3.7,24.7,23.7,66,84.1c19.2,28.2,26.1,34.5,23.7,44.8C264.2,396.1,207.1,403.6,197.5,404.7z"
				/>
			
				<linearGradient id="SVGID_9_" gradientUnits="userSpaceOnUse" x1="361.7521" y1="288.0897" x2="458.5623" y2="120.4096" gradientTransform="matrix(-0.8132 0.5819 -0.5819 -0.8132 724.0552 194.7772)">
				<stop  offset="0" style="stop-color:#FFA1D3;stop-opacity:0.7"/>
				<stop  offset="1" style="stop-color:#C7659C"/>
			</linearGradient>
			<path class="st13" d="M315.1,348.8c10.6-11.1,8.9-21.4,13.9-41.6c8.3-33.7,22.1-41.6,24-55.1c0.3-2.2,0.1-5-0.4-8.7
				c-1-6.7-4.5-20.4-29-41.2c-10.8-9.1-27.9-21.5-52.1-31.4c-1.6,1.5-4.3,4.4-6.1,8.9c-2.3,5.8-1.7,11-1.3,13.2
				c-2.1-2.6-4.7-6.6-6.6-11.9c-1.3-3.5-1.8-6.7-2.1-9.3c-9.1,3.1-25.7,10-40.5,25.6c-4.8,5.1-31,32.2-26.6,68.2
				c2.3,18.9,11.7,31,24.7,47.7c14.2,18.3,41.8,53.8,74.1,49.9C302.9,361.2,313.6,350.4,315.1,348.8z"/>
			
				<linearGradient id="SVGID_10_" gradientUnits="userSpaceOnUse" x1="274.2657" y1="98.6633" x2="451.7754" y2="98.6633" gradientTransform="matrix(-0.8132 0.5819 -0.5819 -0.8132 724.0552 194.7772)">
				<stop  offset="0" style="stop-color:#FFA1D3;stop-opacity:0.7"/>
				<stop  offset="1" style="stop-color:#C7659C"/>
			</linearGradient>
			<path class="st14" d="M301.7,379.4c13.2,12.4,30.1,13.6,63.3,15.5c27.7,1.6,41.5,2.4,53.5-4.1c17.4-9.4,25.7-29.1,32.8-44.9
				c4.5-9.9,7.1-18.5,8.6-24.5c-6.5-0.9-11.5-4.4-11.9-7.9c-0.4-4.3,5.8-10.5,16-10.8c-5.8-8.4-15.3-20.2-29.8-31.1
				c-15.3-11.6-29.2-17-34.1-18.6c-11.7-3.9-41.7-13.8-63.6-1c-14.4,8.4-7.5,16.1-32.9,58.1c-11,18.1-17.2,25-16.9,37.7
				C287.2,365.4,299.9,377.7,301.7,379.4z"/>
			
				<linearGradient id="SVGID_11_" gradientUnits="userSpaceOnUse" x1="679.9498" y1="135.0952" x2="485.7435" y2="135.0952" gradientTransform="matrix(-0.8132 0.5819 -0.5819 -0.8132 724.0552 194.7772)">
				<stop  offset="0" style="stop-color:#FFA1D3;stop-opacity:0.7"/>
				<stop  offset="1" style="stop-color:#C7659C"/>
			</linearGradient>
			<path class="st15" d="M265.9,390.3c6.3,16.5-15.9,38.3-60.4,81.9c-35,34.4-47.3,35.9-54.9,34.9c-16.9-2.3-16.7-18.2-49.5-34.5
				c-13.5-6.7-22-8.3-26.2-17c-5-10.5,0.7-22.5,4.4-30.1c11-22.4,30.8-34.9,40-39.9C169.8,358,255.1,361.9,265.9,390.3z"/>
			
				<linearGradient id="SVGID_12_" gradientUnits="userSpaceOnUse" x1="488.3587" y1="-18.6984" x2="488.3587" y2="106.4959" gradientTransform="matrix(-0.8132 0.5819 -0.5819 -0.8132 724.0552 194.7772)">
				<stop  offset="0" style="stop-color:#FFA1D3;stop-opacity:0.7"/>
				<stop  offset="1" style="stop-color:#C7659C"/>
			</linearGradient>
			<path class="st16" d="M398,415.4c5.2,10.6,2.9,23.5-2.7,32.3c-5.3,8.4-11.7,9.9-24.4,17.7c-25.6,15.7-21.2,22.7-41.9,34.4
				c-13.3,7.5-24.9,9.9-48,14.7c-30.4,6.3-38.2,2.8-41.3,1.2c-11.3-6.1-14.9-18.3-17-24.2c-13.1-37.2,18-73.6,24.4-81
				c8.9-10.5,18.5-21.7,35.7-27.8c24.5-8.7,46.6-0.7,82.2,12.2C388.4,403.4,394.7,408.7,398,415.4z"/>
			
				<radialGradient id="SVGID_13_" cx="485.3021" cy="90.9381" r="36.9112" gradientTransform="matrix(-0.6286 0.4268 -0.4498 -0.5964 625.3552 221.6009)" gradientUnits="userSpaceOnUse">
				<stop  offset="0" style="stop-color:#743659"/>
				<stop  offset="1" style="stop-color:#EC7A9F;stop-opacity:0.5"/>
			</radialGradient>
			<path class="st17" d="M309.2,361.8c4.3,10.1-3.3,21.5-9.8,27c-8.3,6.9-18.2,7-29.8,7.1c-8.1,0.1-13.3,0.1-16.3-3.3
				c-5.8-6.5,1.4-20,3.4-23.8c3.1-5.7,7.4-13.9,17-17.5C285.7,346.7,304.1,350,309.2,361.8z"/>
			
				<radialGradient id="SVGID_14_" cx="100.3556" cy="476.9696" r="102.7648" gradientTransform="matrix(-0.6968 -0.5766 0.5742 -0.6245 64.8378 707.2908)" gradientUnits="userSpaceOnUse">
				<stop  offset="9.189189e-02" style="stop-color:#9A1D54"/>
				<stop  offset="1" style="stop-color:#AB549F;stop-opacity:0.6"/>
			</radialGradient>
			<path class="st18" d="M250.7,432.5c-6-2,4.2-30.1-6.6-38.4c-13.8-10.6-53.2,17.7-54.3,15.9c-1-1.7,37.5-18.8,37.1-37.1
				c-0.4-14.8-26.1-26.4-50.3-34.4c36.5,12.2,50.9,10.5,55.6,4c5.8-8.1-3-24.3,1.9-27c4.7-2.6,13.8,11.5,19.3,9.8
				c5.8-1.9,6.8-22-2.6-76.8c1.4,9.9,9.7,65,19.9,64.9c10.5-0.1,17.5-59.6,18.5-68.8c-10.7,55.2-7.4,75.5,1.3,79.4
				c10.1,4.6,27.7-13,33.1-7.9c5.4,5.2-10.3,25.3-5.3,30.4c7.1,7.3,50.1-21.5,50.3-21.2c0.2,0.3-34.9,12.5-42.5,38.6
				c-5.1,17.5,4,34.6-2.5,38.2c-5.9,3.2-15.1-9.6-21.2-6.6c-9.5,4.8,0.1,43.4-1.3,43.7c-1.4,0.3-5.9-37.5-17.8-39.3
				C271.1,398,257.6,434.8,250.7,432.5z"/>
		</g>
		<g>
			<path class="st8" d="M384.4,409.8c1.7,8.5,0.7,15.1-0.5,19.4c-6,22.6-30,33.6-41.2,38.7c-9.4,4.3-18.4,6.5-23.3,7.5
				c-6.8,1.4-12.7,1.9-17,2.1c-0.5,3.9-1,7.8-1.5,11.6c-2.6-2.1-5.2-4.2-7.7-6.4c-2.5,2.3-6.1,5.5-10.6,9.3
				c-5.5,4.5-10.4,8.2-11.6,9.1c-11.7,8-36.6-0.7-46.1-4.5c3.7,3.3,10.6,8.5,20.8,10.9c3.8,0.9,10.4,2.5,18.2,0.8
				c2.2-0.5,3.8-1.1,5.2-1.7c1.8-0.9,5.6-2.3,13.2-7.2c7.3-4.7,8.1-5.9,10.9-6c4.1-0.2,5.1,2.2,7.9,1.3c4.1-1.3,3.2-6.8,7.9-10.6
				c2.6-2,3.3-0.8,12.3-2.9c5.1-1.2,9.2-2.7,17.4-5.6c0.5-0.2,4.9-1.6,6.8-2.5c4.7-2.2,13.4-10.8,30.5-27.9
				c9.1-9.1,13.2-11.9,14.1-18C391.2,420,387.3,413.6,384.4,409.8z"/>
			<path class="st8" d="M445.3,281.6c2.9,2.9,6.2,6.8,9.3,11.9c1.7,2.8,3,5.5,4,7.9c-1.9,1.3-4.1,2.7-6.6,4c-3.9,2-7.6,3.2-10.6,4
				c0.9,1.9,3.1,6.2,7.9,9.3c2.5,1.6,4.9,2.3,6.6,2.6c-11.3,23.6-21.3,40.7-29.2,52.8c-0.7,1.1-0.9,1.4-1.2,1.8
				c-7,9.5-23.7,18.4-67.1,14.5c9.3,3,28.1,7.6,48,2c4.6-1.3,11-3.3,17.6-8.4c6.3-4.8,9.7-10,14.6-17.7c4.5-7,6.8-12.1,10.6-19.9
				c3.3-6.9,8.2-16.8,14.6-29.1c-1.9-0.2-4.2-0.6-6.6-1.3c-3.8-1.1-6.9-2.6-9.3-4c3.1-1.1,6.8-2.8,10.6-5.3c2-1.3,3.8-2.7,5.3-4
				c-1.9-3.7-4.8-8.5-9.3-13.2C451.3,286.1,448.1,283.5,445.3,281.6z"/>
			<path class="st8" d="M323.8,324.4c-2.4-14,0.2-23.5,2.9-29.5c5.3-11.6,13.1-14.6,20.8-30.8c3.4-7.3,5.6-11.9,5.3-17.9
				c-0.8-16.2-18.9-26.5-22.9-28.6c3.3,2.4,9.3,7.6,13.3,16c1,2,4.6,9.8,4.1,18.7c-1.1,17.6-17.2,21.9-23.9,40.1
				C321.1,299,319.2,309.4,323.8,324.4z"/>
			<path class="st8" d="M211.8,402.8c-9,1.1-23.2,2-40.1-1.4c-8.8-1.8-34.9-7.4-57.2-29.2C101,359.1,94,345,90.2,335
				c3.7,5.6,9.4,13.3,17.5,21.5c6.7,6.8,24.2,23.3,52.6,34.7C180.3,399.3,198.6,402,211.8,402.8z"/>
			<path class="st8" d="M174.8,480.4c-3.5-1.4-9.5-4.3-15.1-10c-6.3-6.4-9-13.2-10.2-16.9c-3.2,3.6-8.3,4-11.2,1.5
				c-2-1.8-2.8-4.8-2-7.8c-4.6-1-9.2-1.9-13.8-2.8c-11.4-2.2-22.5-4.2-33.4-6c9.2-0.4,19.5-0.3,30.7,0.7c7.1,0.6,13.8,1.5,20,2.6
				c-0.6,2.7,0.4,5.4,2.5,6.7c2.6,1.7,6.3,1,8.4-1.6c2.5,6.1,6.4,14.1,13,22.2C167.4,473.7,171.3,477.5,174.8,480.4z"/>
			<path class="st8" d="M236.6,340.6c-13-9.9-32.8-28.1-43.1-55.5c-5.9-15.5-5.9-26.6-5.9-29.4c0.2-18.2,7.4-32,12-39.2
				c-3.3,10.4-6.2,24.8-5.1,41.6C197.6,302.6,226.9,331.7,236.6,340.6z"/>
		</g>
		<g>
			<path class="st9" d="M283.6,369.6c2.7-8.5,5.2-19.9,5.1-33.3c-0.3-29.5-13.1-51.4-20-61.6c5.5,9.8,12.4,24.8,15.7,44.2
				C288.1,340.3,285.9,358.2,283.6,369.6z"/>
			<path class="st9" d="M282.9,365.3c-1.1,0.8-2.2,1.5-3.3,2.3c-8-10-16.1-21.3-24.2-33.7c-12.4-19.2-21.9-37.5-29.4-54
				c7.2,16.7,17.6,36.3,32.6,56.6C266.7,347.4,275,357,282.9,365.3z"/>
			<path class="st9" d="M279.1,370.2c-7.3-1.6-15.4-3-24.3-3.8c-24.9-2.3-46.3,0.5-62.3,4.1c9.5-3.1,23.2-6.5,40.1-6.9
				C252.6,363.1,268.7,366.9,279.1,370.2z"/>
			<path class="st9" d="M288.6,366.2c-0.7-0.3-1.3-0.7-2-1c3.5-4.3,7.7-8.8,12.6-13.3c15.7-14.4,32.5-22.4,45-27
				c-10.4,4.5-23.6,11.6-37,22.7C299.6,353.9,293.4,360.4,288.6,366.2z"/>
			<path class="st9" d="M281.7,372c-0.4-0.5-0.8-1.1-1.2-1.6c-2.7,1.1-6.8,2.8-11.8,4.4c-16.1,5.3-29.3,6.9-38,7.9
				c-5.4,0.6-12.8,1.3-21.5,1.5c6.2,0.2,12.8,0.2,19.9-0.4C250.3,382.4,268.1,377.3,281.7,372z"/>
			<path class="st9" d="M286.4,370c7.9,0.9,20.2,1,33.1-4.5c2.7-1.1,5.1-2.4,7.3-3.7c-5.1,2.1-11.7,4.4-19.4,6
				C299.4,369.4,292.2,369.9,286.4,370z"/>
			<path class="st9" d="M282.9,373.6c-1.6,4.4-4.4,9.7-9.1,14.6c-16.6,17-42.8,14-46.4,13.6c5.4,0.4,13.7,0.3,23.2-2.6
				c13.2-4.1,21.1-11.5,22.8-13.1C278.2,381.5,281.1,376.9,282.9,373.6z"/>
			<path class="st9" d="M284.1,366.9c-3.1-10-6.9-20.6-11.3-31.7c-6.9-17.1-14.5-32.4-22-45.9c8.2,12.4,16.9,28,24.1,46.9
				C278.9,347.1,281.9,357.5,284.1,366.9z"/>
			<path class="st9" d="M281.8,367.2c-0.2,0.9-0.3,1.8-0.5,2.7c-8.7-3.6-17.8-7.8-27.1-12.6c-28.2-14.7-50.7-31.4-68.1-46.9
				c13,11.3,29.9,24,50.9,35.8C253.1,355.3,268.4,362.1,281.8,367.2z"/>
			<path class="st9" d="M282.2,369.3c-10.4-9.7-20.9-19.7-31.4-30c-14.2-13.9-28-27.6-41.2-41.3c10.8,12,22.5,24.3,35.4,36.9
				C257.6,347.4,270.1,358.8,282.2,369.3z"/>
			<path class="st10" d="M290.1,380.9c4.8-2.3,9-7.8,7.4-14.5c-1.6-6.6-8.1-11-14.1-11.4c-8.6-0.5-15.4,7.6-14.1,15.3
				c1.1,6.3,7.3,9.9,7.6,10.1C283.3,384,289.4,381.3,290.1,380.9z"/>
		</g>
		<g>
			<path class="st11" d="M273.7,272.1c-1.1-2.5-3.8-4.7-6.3-3.9c-2.5,0.8-3.2,4-2.5,6.6c0.5,1.9,2,4,4.1,4.6c1.7,0.5,3.4,0,4.4-1.4
				C274.7,276.4,274.5,273.9,273.7,272.1z"/>
			<path class="st11" d="M253,288.9c-0.5-1.5-2.1-3-3.2-2.6c-0.8,0.3-1,1.3-1.1,1.9c-0.1,2,2.3,3.1,2.4,3.2c0.4,0.2,1,0.4,1.4,0.2
				C253.2,291.3,253.2,289.9,253,288.9z"/>
			<path class="st11" d="M229,283.7c0.8-1.4,0.5-2.7,0.3-3.3c-0.6-2.2-2.7-4.2-4-3.6c-1.1,0.5-1.3,3-1.2,4.2
				c0.2,2.3,1.6,4.9,3.1,4.6C228.2,285.3,228.9,284,229,283.7z"/>
			<path class="st11" d="M212.8,300.7c0.4-1.2-1.3-2.6-2.4-3.2c-0.7-0.4-2.3-1-2.9-0.4c-0.6,0.6,0.4,2.6,1.5,3.7
				c0.5,0.5,1.1,1.1,2,1C211.8,301.8,212.6,301.3,212.8,300.7z"/>
			<path class="st11" d="M192.7,313.2c0.5-2.5-2-3.4-2.9-3.8c-1.6-0.6-4.7-0.9-6.1,0.4c-1.3,1.2-0.5,3.1-0.1,4c0.8,2,3.3,4.8,6,3.6
				C191.2,316.6,192.4,314.5,192.7,313.2z"/>
			<path class="st11" d="M195.5,370.1c0.8,2.2-2.6,5.1-6.1,4.3c-1.3-0.3-3.1-1.2-3.6-2.5c-0.8-2.2,2.6-5.1,6.1-4.3
				C193.2,367.9,195,368.8,195.5,370.1z"/>
			<path class="st11" d="M213.1,382.8c-1.4-1.4-5.1-0.1-5.4,1.2c-0.1,0.8,1,1.5,1.2,1.6c1.5,0.9,3.9,0.6,4.5-0.7
				C213.8,384.3,213.6,383.4,213.1,382.8z"/>
			<path class="st11" d="M225.7,402.9c-0.2-0.8,0.5-1.5,1.1-1.9c1.4-0.9,3.9-0.4,4.3,0.7c0.3,0.9-0.7,2.1-1.9,2.5
				C227.8,404.6,226,404,225.7,402.9z"/>
			<path class="st11" d="M348.5,324c1,2.5-2.9,5.2-3.9,5.9c-1.7,1.2-4.3,3-7.1,1.5c-1.6-0.9-2.9-2.7-3.3-4.4
				c-0.8-3.9,3.6-5.8,3.9-5.9C341.8,319.6,347.5,321.4,348.5,324z"/>
			<path class="st11" d="M329.6,359.3c0.6,1.2-1,2.7-1.2,2.9c-0.3,0.3-2.2,2-4.4,0.8c-1-0.5-2-1.7-2.1-2.8c-0.1-1.9,3-2.2,3.3-2.2
				C326.7,357.9,329,358.1,329.6,359.3z"/>
			<path class="st11" d="M302.8,335c1.4,0,2.3-1.4,2.5-1.7c0.5-0.8,1-2.2,0.5-2.7c-0.7-0.6-2.7,0.4-3.9,1.5
				c-0.5,0.5-1.3,1.2-1.1,1.9C301,334.7,302.1,335,302.8,335z"/>
			<path class="st11" d="M304.7,380c-0.4,0.7-2,0.5-2.2,0.4c-0.3,0-2.3-0.3-2.7-1.7c-0.2-0.6-0.1-1.5,0.5-1.9c1-0.7,2.8,0.6,3,0.7
				C304,378.2,305.1,379.3,304.7,380z"/>
			<path class="st11" d="M253.9,366.6c0-1.7,2.4-2.4,2.7-2.5c0.5-0.1,3.3-0.9,4.7,1.6c0.7,1.2,1.1,3,0.5,4.2
				c-0.9,2.1-4.1,0.7-4.5,0.5C256.1,369.9,253.9,368.2,253.9,366.6z"/>
			<path class="st11" d="M254,387c-0.1-0.6,0.4-1.2,0.9-1.5c1.1-0.7,3.1-0.4,3.3,0.5c0.2,0.7-0.6,1.6-1.5,1.9
				C255.6,388.2,254.2,387.8,254,387z"/>
			<path class="st11" d="M212.6,339.4c-0.5-1.2-2-1.5-2.6-1.6c-1-0.2-2.6-0.1-2.8,0.6c-0.2,0.6,0.7,1.5,1.2,1.9c1,0.9,3.1,2,4,1.3
				C212.9,341.1,212.9,340.1,212.6,339.4z"/>
			<path class="st11" d="M246.9,341.9c1.1-2.6-2.3-4.8-4.7-5.5c-1.4-0.5-4.9-1.2-6.2,0.1c-1.5,1.5,0.4,5.2,2.8,7
				c1,0.8,2.3,1.8,4.3,1.3C244.6,344.4,246.3,343.2,246.9,341.9z"/>
			<path class="st11" d="M280.1,332.8c1-0.8,0.4-2.8-0.2-3.9c-0.4-0.7-1.4-2-2.1-1.8c-0.9,0.2-1.2,2.4-0.8,3.9
				c0.1,0.7,0.3,1.5,1.1,1.9C278.7,333.2,279.6,333.2,280.1,332.8z"/>
			<path class="st11" d="M305.8,296.8c1.1,0.6,0.7,2.5,0.1,3.5c-0.3,0.6-1.2,1.9-2,1.8c-0.9-0.1-1.4-2.1-1.2-3.5
				c0.1-0.6,0.2-1.4,1-1.8C304.3,296.6,305.2,296.5,305.8,296.8z"/>
			<path class="st11" d="M279.6,392.6c1-0.4,1.3-2.1,0.5-2.7c-0.6-0.4-1.7-0.4-2.3,0.3c-0.6,0.7-0.3,1.7,0.4,2.1
				C278.5,392.6,279.1,392.8,279.6,392.6z"/>
			<path class="st11" d="M309.6,359c0.3-0.7,0.3-1.7-0.4-2.1c-0.9-0.7-2.7-0.2-3.1,0.9c-0.3,1,0.6,2.4,1.8,2.4
				C308.7,360.2,309.4,359.6,309.6,359z"/>
		</g>
	</g>
	<g>
		<g>
			
				<linearGradient id="SVGID_15_" gradientUnits="userSpaceOnUse" x1="221.1909" y1="47.8614" x2="221.1909" y2="-91.2084" gradientTransform="matrix(0.9143 0.4051 0.4051 -0.9143 507.04 201.2629)">
				<stop  offset="0" style="stop-color:#ECA1C4;stop-opacity:0.7"/>
				<stop  offset="1" style="stop-color:#CA83BD"/>
			</linearGradient>
			<path class="st19" d="M690.9,366.5c6.9-1.7,42.1-11.2,58.5-42.5c3.5-6.7,11.8-23.6,6.5-43.6c-2.7-10-7.8-17.1-11.4-21.3
				c-0.8,1.3-2.5,3.5-5.3,5.3c-3.2,2.1-6.4,2.5-7.9,2.6c1.2-0.8,2.7-2.1,4-4c3.4-4.9,2.9-10.2,2.6-11.9c-2.1-0.3-5.4-0.8-9.3-1.3
				c-13.2-1.8-19.8-2.7-23.6-2.7c-11.4,0-20.1,4.6-24.1,6.7c-8.4,4.4-15.7,11.5-37.5,61.7c-11.7,27.1-12.6,31.7-10.4,36.3
				C641.4,370.3,683.8,367.1,690.9,366.5z"/>
			
				<linearGradient id="SVGID_16_" gradientUnits="userSpaceOnUse" x1="95.1752" y1="37.2118" x2="167.2534" y2="-87.6312" gradientTransform="matrix(0.9143 0.4051 0.4051 -0.9143 507.04 201.2629)">
				<stop  offset="0" style="stop-color:#ECA1C4;stop-opacity:0.7"/>
				<stop  offset="1" style="stop-color:#CA83BD"/>
			</linearGradient>
			<path class="st20" d="M597.6,343.4c-9.3-6.5-9.6-14.3-16.3-28.3c-11-23.3-22.2-27-25.6-36.6c-1.1-3-1-5.6-1-6.5
				c-1.1-13.2,3.7-29.4,15-39.3c9.9-8.7,18.1-6.6,27.8-18.5c2.4-3,4-5.7,5-7.5c1.1,0.3,4.4,1.5,6.9,4.8c2.5,3.3,2.6,6.8,2.6,7.9
				c1.2-1.5,3-4.2,4-7.9c0.7-2.6,0.8-4.8,0.7-6.5c6.9,1.2,18.8,4.1,30.8,12.5c4.2,3,27.2,19,29.4,45.8c1.2,14.2-3.8,24.4-10.7,38.6
				c-7.5,15.5-22.2,45.7-46.1,47.7C608.2,350.6,598.9,344.3,597.6,343.4z"/>
			
				<linearGradient id="SVGID_17_" gradientUnits="userSpaceOnUse" x1="28.8195" y1="-103.5152" x2="162.2233" y2="-103.5152" gradientTransform="matrix(0.9143 0.4051 0.4051 -0.9143 507.04 201.2629)">
				<stop  offset="0" style="stop-color:#ECA1C4;stop-opacity:0.7"/>
				<stop  offset="1" style="stop-color:#CA83BD"/>
			</linearGradient>
			<path class="st21" d="M611.8,363.7c-7.7,11-19.7,14.5-43.4,20.9c-19.8,5.4-29.6,8-39.3,5.1c-10-3-16.8-11.4-30.4-27.9
				c-14.9-17.9-15.7-25.6-15.6-29.7c0.1-7.7,3.5-13.8,5.9-17.4c1.6,0.9,3.3,1.8,5.3,2.6c2.9,1.2,5.6,2.1,7.9,2.6
				c-1.2-0.9-3.7-3-5.3-6.6c-1.2-2.7-1.3-5.2-1.3-6.6c9.9-10.4,19.6-16.8,26.2-20.6c4-2.3,29.3-16,45.8-10.3
				c11.6,4,7.8,10.6,32.5,37.5c10.6,11.6,16.2,15.6,17.8,25C620.2,351.3,612.9,362.2,611.8,363.7z"/>
			
				<linearGradient id="SVGID_18_" gradientUnits="userSpaceOnUse" x1="330.7686" y1="-77.2196" x2="187.3178" y2="-77.2196" gradientTransform="matrix(0.9143 0.4051 0.4051 -0.9143 507.04 201.2629)">
				<stop  offset="0" style="stop-color:#ECA1C4;stop-opacity:0.7"/>
				<stop  offset="1" style="stop-color:#CA83BD"/>
			</linearGradient>
			<path class="st22" d="M639.3,366.3c-2.1,13,17.3,25.6,55.9,50.8c30.5,19.8,39.5,19.1,44.9,17.2c11.9-4.3,9.4-15.8,30.6-32.7
				c8.7-7,14.7-9.4,16.4-16.4c2.1-8.4-3.9-16.4-7.7-21.3c-11.3-14.7-27.5-20.9-34.9-23.1C703.9,328.1,642.9,343.9,639.3,366.3z"/>
			
				<linearGradient id="SVGID_19_" gradientUnits="userSpaceOnUse" x1="189.5303" y1="-191.4159" x2="189.5303" y2="-98.1134" gradientTransform="matrix(0.9143 0.4051 0.4051 -0.9143 507.04 201.2629)">
				<stop  offset="0" style="stop-color:#ECA1C4;stop-opacity:0.7"/>
				<stop  offset="1" style="stop-color:#CA83BD"/>
			</linearGradient>
			<path class="st23" d="M547.6,404.6c-2.2,8.5,1.4,17.6,6.8,23.2c5.1,5.4,9.9,5.5,20.3,9.3c20.8,7.6,18.7,13.4,35.5,18.8
				c10.7,3.5,19.4,3.5,36.9,3.5c22.9,0,28.1-3.7,30-5.4c7.3-6.2,8.1-15.6,8.7-20.3c3.9-29.2-24-51.1-29.8-55.5
				c-8-6.3-16.6-13-29.9-14.9c-19-2.7-33.8,6.6-57.6,21.4C552.8,394.4,548.9,399.2,547.6,404.6z"/>
			
				<radialGradient id="SVGID_20_" cx="96.2895" cy="-149.4471" r="36.9112" gradientTransform="matrix(0.5181 0.2169 0.236 -0.504 612.5748 260.549)" gradientUnits="userSpaceOnUse">
				<stop  offset="0" style="stop-color:#743659"/>
				<stop  offset="1" style="stop-color:#EC7A9F;stop-opacity:0.5"/>
			</radialGradient>
			<path class="st24" d="M603.8,352c-1.6,8,5.6,15.2,11.1,18.2c7,3.8,14.2,2.4,22.6,0.7c5.9-1.2,9.6-1.9,11.3-4.8
				c3.2-5.7-4-14.4-6-16.9c-3.1-3.7-7.4-9-14.9-10.2C618.5,337.4,605.7,342.6,603.8,352z"/>
			
				<radialGradient id="SVGID_21_" cx="-215.7879" cy="809.5465" r="87.185" gradientTransform="matrix(0.3496 -0.44 -0.4493 -0.3278 1065.0643 524.5629)" gradientUnits="userSpaceOnUse">
				<stop  offset="9.189189e-02" style="stop-color:#7E386D"/>
				<stop  offset="1" style="stop-color:#8D386A;stop-opacity:0.5"/>
			</radialGradient>
			<path class="st25" d="M645.6,390.1c3.4-2-0.6-9.5,3.5-14.5c6.8-8.3,28.5-0.5,29.1-2.6c0.6-2-20.2-5.6-22.5-15.9
				c-2.2-10,14.8-19.3,11.9-25.1c-3.1-6.2-23.8,2.3-30.4-6.6c-4.8-6.4,0.8-17.7-1.3-18.5c-2.7-1-9.1,17.7-15.9,17.2
				c-7.6-0.6-10.2-25.5-14.6-25.1c-4.3,0.3-0.7,25.3-14.1,34.2c-8.6,5.7-19.1,1.6-20.3,5.5c-1.5,4.5,13.1,8.2,18.5,21.7
				c4.8,11.9-1.9,21.1,3.2,24.4c6.1,3.9,14.9-8.6,28.7-6.6C634.4,379.8,641.1,392.7,645.6,390.1z"/>
		</g>
		<g>
			<path class="st8" d="M556.6,398.4c0.1,6.5,1.8,11.1,3.2,14.1c6.7,13.5,23,20.6,35.6,22.1c4.3,0.5,12,0.6,13.2,0.7
				c5.9,0.1,10.7,0,14.1-0.1c1.8,3.1,3.5,6.2,5.3,9.3c0.9-2.2,1.8-4.4,2.6-6.6c4,1.3,9.9,3.4,16.6,7.2c2.9,1.6,4,2.5,5.1,3.1
				c4.8,2.5,13.8,2.4,32.7-10.3c-2.2,2.9-6.4,7.8-13.4,11.1c-2.6,1.3-7.2,3.4-13,3.3c-6.9-0.1-7.6-3.2-14.7-3.7
				c-8.2-0.7-9.4,3.3-15.8,2.2c-6.9-1.2-7.2-6-15.2-9.6c-7.4-3.3-9.2,0-18.6-2.2c-3.7-0.9-11.3-5.8-26.2-15.8
				c-8-5.3-11.3-6.7-12.9-11C553.2,407,555.1,401.6,556.6,398.4z"/>
			<path class="st8" d="M494.4,315.8c-2,2.2-4.7,5.9-6,11.1c-2.3,9.3,2,17.2,4.2,20.9c4.8,8.4,8.9,8.4,20.4,21.3
				c6.6,7.4,6.1,8.4,8.8,10.9c6.5,5.8,19.9,9.9,50.6,0.5c-6.3,3.6-19.2,9.8-34.4,8.7c-4-0.3-8.8-0.7-14-3.5
				c-4.7-2.5-7.7-6-13.6-12.9c-4.5-5.2-3.8-5.1-6.7-8.4c-8.8-9.9-13.2-8.7-17.4-15.3c-0.6-0.9-6.5-10.4-2.5-21
				C486.5,320.9,492.2,317.1,494.4,315.8z"/>
			<path class="st8" d="M587.7,326.9c-0.3-10.6-3.7-17.1-6.5-21.1c-5.6-7.7-11.6-8.7-19.6-19.4c-3.6-4.8-5.9-7.9-6.5-12.3
				c-1.8-11.9,9.7-22.2,12.2-24.4c-2,2.3-5.6,6.9-7.2,13.7c-0.4,1.6-1.9,7.8-0.1,14.3c3.4,12.7,15.7,13.4,23.2,25.7
				C585.8,307.9,588.7,315.2,587.7,326.9z"/>
			<path class="st8" d="M680.3,367.2c6.6-0.5,17.1-2.1,28.8-7.1c6.1-2.6,24.1-10.7,37-30c7.8-11.6,10.8-23,12-30.9
				c-1.9,4.7-4.8,11.2-9.4,18.4c-3.8,6-14,20.7-32.8,33.3C702.5,359.9,689.7,364.6,680.3,367.2z"/>
			<path class="st8" d="M718,421.9c6-4.8,8.7-9.6,10.1-13.1c2-5.1,2.3-10.4,7.1-14.7c1.5-1.3,3-2.2,4-2.6c1.8-2.2,3.5-4.4,5.3-6.6
				c3.3-0.7,6.9-1.6,10.6-2.6c7.4-2.2,13.9-4.8,19.4-7.5c-7,1.3-14.4,3-22.1,5.1c-4.2,1.2-8.3,2.4-12.2,3.6
				c-1.2,1.8-2.4,3.6-3.6,5.4c-1.8,0.4-3.6,0.9-5.4,1.3c-1.3,5.3-3.2,11.5-6.1,18.2C722.8,413.5,720.3,418.1,718,421.9z"/>
			<path class="st8" d="M653.1,325.5c7.9-9.2,19.5-25.5,22.9-47.1c1.9-12.2,0.3-20.3-0.2-22.4c-2.9-13.3-10.2-22.3-14.5-26.8
				c3.9,7.1,8.2,17.2,9.9,29.7C675.6,291.8,658.7,317.6,653.1,325.5z"/>
		</g>
		<g>
			<path class="st9" d="M623.4,353.8c-3.2-5.8-6.7-13.7-8.7-23.6c-4.2-21.6,1.8-39.6,5.3-48.1c-2.5,8-5.2,20-4.8,34.7
				C615.8,333.1,620,345.8,623.4,353.8z"/>
			<path class="st9" d="M623.3,350.6c0.9,0.4,1.8,0.8,2.7,1.1c4.3-8.5,8.5-18,12.4-28.3c6.1-15.9,10.3-30.7,13.2-43.9
				c-2.7,13.3-7.3,29.2-15.1,46.3C632.3,335.1,627.8,343.3,623.3,350.6z"/>
			<path class="st9" d="M626.8,353.6c5.1-2.3,10.7-4.5,17-6.5c17.6-5.5,33.5-6.6,45.7-6.4c-7.3-0.8-17.8-1.2-30,1
				C644.9,344.4,633.8,349.6,626.8,353.6z"/>
			<path class="st9" d="M619.3,352.1c0.4-0.3,0.9-0.7,1.3-1c-3.2-2.6-6.9-5.3-11.1-7.8c-13.5-8.1-26.8-11.5-36.6-12.9
				c8.2,1.7,18.8,4.9,30.1,11C609.5,344.8,614.9,348.6,619.3,352.1z"/>
			<path class="st9" d="M625.2,355.3c0.2-0.4,0.4-0.9,0.6-1.3c2.1,0.4,5.3,1,9.2,1.4c12.4,1.5,22.2,0.6,28.7,0c4-0.4,9.4-1,15.8-2.2
				c-4.4,1.1-9.2,2.1-14.4,2.7C649.4,358.1,635.8,357.1,625.2,355.3z"/>
			<path class="st9" d="M621.4,354.6c-5.6,1.8-14.5,3.8-24.6,1.7c-2.1-0.4-4-1-5.8-1.6c4,0.8,9.1,1.4,14.9,1.5
				C612,356.1,617.3,355.4,621.4,354.6z"/>
			<path class="st9" d="M624.5,356.7c1.8,3,4.6,6.4,8.8,9.3c14.5,9.9,33,3.8,35.5,2.9c-3.8,1.1-9.9,2.3-17.2,1.6
				c-10.2-1-17-5.2-18.5-6.1C629.1,361.7,626.3,358.8,624.5,356.7z"/>
			<path class="st9" d="M622.7,351.9c0.8-7.8,1.9-16.1,3.4-24.9c2.5-13.6,5.6-25.9,9.1-36.9c-4.1,10.3-8,23-10.4,37.9
				C623.4,336.7,622.8,344.7,622.7,351.9z"/>
			<path class="st9" d="M624.4,351.8c0.2,0.6,0.5,1.3,0.7,1.9c5.8-4,11.7-8.4,17.7-13.3c18.2-15,31.9-30.6,42.2-44.6
				c-7.7,10.2-18,22-31.5,33.9C643.3,338.8,633.3,346.1,624.4,351.8z"/>
			<path class="st9" d="M624.4,353.4c6.1-8.7,12.1-17.6,18.2-26.7c8.2-12.3,16.1-24.4,23.6-36.4c-6,10.4-12.7,21.2-20,32.3
				C638.9,333.7,631.6,343.9,624.4,353.4z"/>
			<path class="st10" d="M620.4,363.1c-3.8-0.9-7.7-4.4-7.5-9.5c0.2-5.1,4.2-9.3,8.5-10.4c6.2-1.7,12.3,3.2,12.5,9
				c0.2,4.8-3.8,8.3-4,8.5C625.8,364.3,621,363.2,620.4,363.1z"/>
		</g>
		<g>
			<path class="st11" d="M616.4,283.1c0.7-1.7,2.3-3.2,3.9-2.8s2,2.6,1.6,4.3c-0.3,1.3-1.2,2.7-2.5,3.2c-1,0.4-2.1,0.1-2.7-0.8
				C615.8,285.9,615.9,284.3,616.4,283.1z"/>
			<path class="st11" d="M632.9,292.1c0.3-1.9,1.8-4.1,3-4c0.8,0,1.2,1.2,1.3,1.9c0.3,2.3-1.9,4.3-2,4.4c-0.4,0.4-0.9,0.8-1.4,0.7
				C632.9,294.9,632.7,293.2,632.9,292.1z"/>
			<path class="st11" d="M650.1,282.9c-0.4-0.6-0.3-1.3-0.2-1.6c0.2-1.2,1.2-2.6,1.8-2.5c0.5,0.1,0.7,1.3,0.7,1.9
				c0,1.2-0.6,2.7-1.3,2.8C650.5,283.6,650.1,283,650.1,282.9z"/>
			<path class="st11" d="M661.7,295.6c-1.4-1.5,0.4-3.8,1.8-4.9c0.9-0.7,3-2,4.3-1.4c1.4,0.7,1.1,3.6-0.1,5.4
				c-0.5,0.8-1.1,1.8-2.6,1.9C663.9,296.8,662.4,296.3,661.7,295.6z"/>
			<path class="st11" d="M682.7,297.2c-0.2-1,0.6-1.7,0.9-2c0.5-0.5,1.5-1.1,2-0.8c0.4,0.3,0.2,1.2,0.1,1.6c-0.3,1-1,2.5-1.9,2.4
				C683.2,298.4,682.8,297.8,682.7,297.2z"/>
			<path class="st11" d="M685.2,341.1c0.4,1.5,3.7,2.3,5.6,0.8c0.7-0.5,1.4-1.6,1.2-2.5c-0.4-1.5-3.7-2.3-5.6-0.8
				C685.7,339.1,684.9,340.2,685.2,341.1z"/>
			<path class="st11" d="M676.4,352.8c0.8-1.2,3.7-0.8,4.1,0.1c0.2,0.6-0.5,1.3-0.6,1.3c-0.9,0.9-2.7,1-3.4,0.2
				C676.1,354,676.1,353.3,676.4,352.8z"/>
			<path class="st11" d="M670.3,369.4c0-0.6-0.6-1.1-1.1-1.2c-1.2-0.5-2.9,0.3-3,1.1c-0.1,0.7,0.8,1.4,1.7,1.5
				C669,371,670.2,370.2,670.3,369.4z"/>
			<path class="st11" d="M570.6,327.6c-0.7,1,0.6,2.7,1,3.1c0.6,0.7,1.5,1.9,2.9,1.6c0.8-0.2,1.6-0.8,1.9-1.5c0.8-1.6-0.9-3-1-3.1
				C574,326.6,571.3,326.7,570.6,327.6z"/>
			<path class="st11" d="M589.4,354.7c-0.1,0.6,0.9,1.2,1.1,1.2c0.2,0.1,1.5,0.8,2.4,0.2c0.4-0.3,0.8-0.9,0.6-1.3
				c-0.2-0.9-1.9-0.9-2.1-0.9C590.7,353.9,589.5,354.1,589.4,354.7z"/>
			<path class="st11" d="M604.4,331.5c-1,0.2-1.8-0.6-2.1-0.9c-0.5-0.5-1.1-1.4-0.7-1.9c0.4-0.6,2-0.1,3.1,0.5
				c0.4,0.3,1.1,0.7,1.1,1.2C605.6,331,604.9,331.4,604.4,331.5z"/>
			<path class="st11" d="M608.1,368.9c0.8,1.1,3,0.4,3.3,0.3c0.4-0.1,3-0.9,3-3.3c0-1.1-0.6-2.5-1.5-3.1c-1.7-1-3.5,1.5-3.7,1.8
				C608.3,365.7,607.3,367.8,608.1,368.9z"/>
			<path class="st11" d="M642.8,350.3c-0.2-0.6-1.4-0.6-1.6-0.6c-0.3,0-1.7,0-2.2,0.9c-0.2,0.4-0.3,1.1,0.1,1.4
				c0.6,0.6,2.1-0.1,2.3-0.2C642,351.6,643,350.8,642.8,350.3z"/>
			<path class="st11" d="M647.4,362c0-0.4-0.5-0.8-0.8-1c-0.9-0.4-2.3,0.2-2.3,0.8c-0.1,0.5,0.7,1.1,1.4,1.2
				C646.4,363.2,647.4,362.7,647.4,362z"/>
			<path class="st11" d="M668.5,324c0.1-1.8,1.9-2.3,2.6-2.4c1.2-0.3,3.3-0.4,4,0.6c0.6,0.9-0.2,2.2-0.6,2.7c-0.9,1.3-3,3.1-4.6,2.1
				C668.9,326.4,668.5,324.9,668.5,324z"/>
			<path class="st11" d="M648.3,325.1c-0.4-0.8,0.6-2,1.4-2.6c0.5-0.3,1.6-1,2-0.7c0.5,0.4,0,2-0.7,2.9c-0.3,0.4-0.7,0.9-1.4,1
				C649.1,325.7,648.5,325.5,648.3,325.1z"/>
			<path class="st11" d="M620.5,326.4c-0.9-0.4-0.7-2-0.4-2.9c0.2-0.5,0.7-1.7,1.3-1.7c0.7,0,1.2,1.6,1.2,2.7c0,0.5,0,1.1-0.5,1.6
				C621.6,326.5,620.9,326.6,620.5,326.4z"/>
			<path class="st11" d="M597.5,303.9c-1.5,1.1-0.3,3.2,0.7,4.3c0.6,0.6,2.3,2,3.5,1.6c1.4-0.4,1.6-2.9,0.9-4.5
				c-0.3-0.7-0.7-1.6-1.9-1.9C599.6,303.2,598.2,303.4,597.5,303.9z"/>
			<path class="st11" d="M629.8,370c-0.8-0.1-1.2-1.3-0.7-1.9c0.3-0.4,1.2-0.6,1.7-0.1c0.5,0.4,0.5,1.2,0.1,1.6
				C630.5,369.9,630.2,370.1,629.8,370z"/>
			<path class="st11" d="M603,350.1c-0.3-0.5-0.4-1.2-0.1-1.6c0.5-0.7,1.9-0.6,2.4,0.2c0.4,0.7-0.1,1.8-0.9,2
				C603.9,350.8,603.3,350.4,603,350.1z"/>
		</g>
	</g>
	<g>
		<path class="st26" d="M345.8,48.2c-2-2.2-12.7-14.1-29.1-13.3c-17.2,0.9-26.7,15.2-27.9,17c-10.2,15.9-9,39.7,3.6,54.5
			c16.3,19.1,47.7,18.2,60.9-2.1C364.6,86.8,358,61.7,345.8,48.2z"/>
		<path class="st27" d="M346.9,96.8c-8.8-5.7-20.6-12.1-35-16.8c-9-2.9-17.4-4.7-24.6-5.6c-0.7,3.3-3.7,19.2,5.1,32
			c11.6,17,38,19.9,48.9,7.3C345.5,108.6,346.7,101.9,346.9,96.8z"/>
		<path class="st28" d="M333.5,128.6c-9-6.3-27.8-21.6-38.2-48.9c-3.9-10.4-5.7-20-6.5-27.8c-2.9,5.2-7.1,14.6-8.4,27.2
			c-0.8,7.8-2.8,29.1,9.7,41.7c8.2,8.1,19,9.1,25,9.7C322.9,131.1,329.3,129.8,333.5,128.6z"/>
		<path class="st29" d="M349.8,124.9c8.8-4.7,15.5-13.3,18.1-22.1c5.6-18.7-5.2-44.1-28.3-60.1c0.9,11.9,0.7,27.9-4.7,45.1
			c-6.6,21-17,31.3-12.9,37.8C326.1,132.1,340.8,129.7,349.8,124.9z"/>
	</g>
	<g>
		<linearGradient id="SVGID_22_" gradientUnits="userSpaceOnUse" x1="496.9674" y1="177.2867" x2="496.9674" y2="54.0275">
			<stop  offset="0" style="stop-color:#D34689"/>
			<stop  offset="1" style="stop-color:#D34689;stop-opacity:0.5"/>
		</linearGradient>
		<path class="st30" d="M493.1,54c1.2,0.9,3.6,3,5.1,6.6c1.2,2.7,1.3,5.2,1.3,6.6c0.9-1.3,2.1-3.6,2.6-6.6c0.4-2.4,0.3-4.5,0.1-5.8
			c4.7,1.3,12.6,4.3,19.8,11.1c0,0,11.9,11.2,14.7,30.3c5.6,37.8-40.4,87.6-62.4,80.4c-16.6-5.4-21.7-44.3-14.6-72.3
			C466.8,77,485,60.5,493.1,54z"/>
		<linearGradient id="SVGID_23_" gradientUnits="userSpaceOnUse" x1="467.702" y1="183.6765" x2="467.702" y2="68.0419">
			<stop  offset="0" style="stop-color:#CC4281"/>
			<stop  offset="1" style="stop-color:#F45DA2;stop-opacity:0.5"/>
		</linearGradient>
		<path class="st31" d="M393.3,96.2c-1.2,2.2-2.6,5.4-3.6,9.4c-5.2,19.6,3.4,41.5,16.1,54.9c16.9,17.9,40.2,20,62.4,22.1
			c11.7,1.1,17.6,1.7,24.9,0c35.6-8.2,55.4-53.9,54-88.4c-0.1-1.3-1.1-24.9-8.3-26.1c-6.4-1.1-12.3,16.4-31.2,42.2
			c-12.9,17.6-26.4,36-39.5,34.2c-9.2-1.3-11.2-11.6-22.9-24.1c-14.7-15.8-33.1-22.5-46-25.7c-0.1,3.6-0.2,7.3-0.3,10.9
			C397.1,102.5,395.2,99.3,393.3,96.2z"/>
		<linearGradient id="SVGID_24_" gradientUnits="userSpaceOnUse" x1="450.0504" y1="179.4301" x2="450.0504" y2="58.0458">
			<stop  offset="0" style="stop-color:#E874AC"/>
			<stop  offset="1" style="stop-color:#F45DA2;stop-opacity:0.5"/>
		</linearGradient>
		<path class="st32" d="M443.2,58c-1.1,3.9-2.1,7.9-3.2,11.8c-0.9-3.3-1.7-6.6-2.6-10c-3.8,2.3-8.8,5.8-13.3,11.3
			c-15.9,19.3-15.6,49.9-3.8,71.3c15.5,28,52.4,43.8,64.4,34.2c7.4-6,2.2-26.8-8.3-68.3c-3-11.7-6.6-23.9-16.6-35.8
			C453.9,65.5,447.7,60.9,443.2,58z"/>
	</g>
	<g>
		
			<linearGradient id="SVGID_25_" gradientUnits="userSpaceOnUse" x1="267.9401" y1="1023.6489" x2="267.9401" y2="900.5007" gradientTransform="matrix(-0.4199 -0.9968 1.0638 -0.4481 -727.3758 1255.4496)">
			<stop  offset="0" style="stop-color:#D35674"/>
			<stop  offset="1" style="stop-color:#D34689;stop-opacity:0.5"/>
		</linearGradient>
		<path class="st33" d="M120.1,589.6c2.5-3,5-5.9,7.5-8.9c-3.5-0.2-7.1-0.3-10.6-0.5c-0.6-4.6-0.8-11.5,1.3-19.4
			c5.6-20.1,22.7-30.3,28.3-33.7c38.5-23.1,109.6,2,111.7,26.1c2,23.2-60.3,43.7-71.1,47.3c-31.3,10.3-45.7,5.3-52.9,1.3
			C127.5,598.2,123,593.3,120.1,589.6z"/>
		
			<linearGradient id="SVGID_26_" gradientUnits="userSpaceOnUse" x1="237.1583" y1="1030.1498" x2="237.1583" y2="914.5152" gradientTransform="matrix(-0.4199 -0.9968 1.0638 -0.4481 -727.3758 1255.4496)">
			<stop  offset="0" style="stop-color:#E595A1"/>
			<stop  offset="1" style="stop-color:#D34689;stop-opacity:0.5"/>
		</linearGradient>
		<path class="st34" d="M206.9,670.1c12.5,8.1,48.6-11.7,63.2-41.2c12.4-25.2,2.9-53.8-2.7-72.1c-3.7-12.2-5.6-18.3-10.5-24.9
			c-23.7-31.9-80.6-31-116.7-14.2c-1.4,0.6-26,12.3-24.3,20c1.5,6.9,22.6,4.9,58,12.2c24.2,5,49.4,10.2,52.9,24.1
			c2.4,9.4-7.3,14.3-16,33.6C200.6,629.7,195.5,662.7,206.9,670.1z"/>
		
			<linearGradient id="SVGID_27_" gradientUnits="userSpaceOnUse" x1="222.688" y1="1025.4579" x2="222.688" y2="904.3459" gradientTransform="matrix(-0.4199 -0.9968 1.0638 -0.4481 -727.3758 1255.4496)">
			<stop  offset="0" style="stop-color:#E874AC"/>
			<stop  offset="1" style="stop-color:#F45DA2;stop-opacity:0.5"/>
		</linearGradient>
		<path class="st35" d="M145.3,637.5c1.9,1.8,6.9-0.1,11.4-2.5c-1.9,2.9-4.1,7.2-2.6,10.6c2.6,6,15.1,5.5,21.2,5.3
			c15.2-0.6,48-1.8,69.4-28.4c21.1-26.2,25-69.2,9.3-79.5c-17.9-11.8-57.8,21.1-73.4,36.5C158.2,601.5,140.1,632.6,145.3,637.5z"/>
	</g>
	<g>
		<path class="st36" d="M173.3,768.6c-0.3,2.9-1.9,18.9,9.7,30.5c12.2,12.2,29.2,9.6,31.4,9.2c18.6-3.1,35.4-20.1,37.9-39.3
			c3.2-24.9-18.6-47.6-42.4-43.7C189.3,728.6,175.1,750.4,173.3,768.6z"/>
		<path class="st37" d="M181.9,797.8c3.4-0.2,9.4-0.9,15.9-4c19.3-9.1,28.1-31.9,25.1-34.4c-1.4-1.1-5.4,1.8-11.9,6.6
			C203.3,771.7,192.2,781.5,181.9,797.8z"/>
		<path class="st38" d="M241.1,723.6c1.4,10.9,2.7,35.1-10.5,61.2c-5,9.9-11,17.7-16.2,23.5c5.8-1.4,15.6-4.6,25.8-12.1
			c6.3-4.7,23.5-17.5,24.3-35.2c0.5-11.5-6-20.2-9.7-25C250.1,729.7,244.8,725.9,241.1,723.6z"/>
		<path class="st29" d="M227.4,714c-9.4-3.4-20.3-2.5-28.6,1.4c-17.7,8.4-29.1,33.5-25.5,61.3c8.2-8.7,20.2-19.3,36.6-26.8
			c20-9.2,34.6-8.5,36.7-15.9C248.6,726.6,237,717.5,227.4,714z"/>
	</g>
	<g>
		<path class="st27" d="M301.1,863.7c0.8,2.5,5.1,15.9,18.4,21.1c14,5.5,26.8-2.4,28.4-3.4c13.8-8.9,21.5-28.3,16.8-44.6
			c-6.1-21.1-31.5-31.7-49.3-20.4C300.1,826.2,296.3,848.5,301.1,863.7z"/>
		<path class="st26" d="M308.6,851c5,2,15.5,5.5,28.9,4c12.1-1.4,20.9-6.2,25.3-9c0-1.3,0-3-0.2-4.8c-1.7-15-13.7-31.7-25.4-32.3
			C325,808.3,309,825.1,308.6,851z"/>
		<path class="st28" d="M325.7,801.2c-8.7,0.5-17.2,5-22.5,11c-11.3,12.9-11.8,37,0.8,58c3.6-9.8,9.6-22.5,20.1-34.2
			c12.8-14.3,24.8-18.7,23.9-25.4C347.1,804,334.6,800.7,325.7,801.2z"/>
		<path class="st29" d="M340,804.2c4.9,8.3,14.4,27.2,12.8,52.8c-0.6,9.7-2.7,18-4.9,24.4c4.2-3.1,11-9.1,16.5-18.6
			c3.4-6,12.8-22.1,7.3-36.6c-3.6-9.4-11.9-14.1-16.5-16.7C349.3,806,343.8,804.8,340,804.2z"/>
	</g>
	<g>
		<path class="st36" d="M194.9,48.5c-1.4-1.5-8.7-9.5-19.9-8.9c-11.7,0.7-18.2,10.3-19,11.6c-6.9,10.7-6,26.8,2.6,36.7
			c11.2,12.8,32.6,12,41.5-1.6C207.8,74.5,203.2,57.6,194.9,48.5z"/>
		<path class="st37" d="M176.1,39.6c-1.5,1.8-3.8,5.1-5.2,9.8c-4.2,13.8,3.4,28.5,6,28.1c1.2-0.2,1.5-3.5,2.1-9
			C179.6,62.2,179.7,52.1,176.1,39.6z"/>
		<path class="st38" d="M186.7,102.8c-6.1-4.2-19-14.4-26.2-32.9c-2.7-7-4-13.5-4.5-18.7c-1.9,3.5-4.8,9.9-5.6,18.4
			c-0.5,5.3-1.9,19.7,6.8,28.1c5.6,5.5,13,6.1,17.1,6.4C179.5,104.5,183.8,103.6,186.7,102.8z"/>
		<path class="st29" d="M197.8,100.2c6-3.2,10.5-9.1,12.3-15c3.8-12.7-3.7-29.7-19.4-40.4c0.7,8,0.5,18.8-3.1,30.5
			c-4.4,14.2-11.5,21.2-8.7,25.6C181.7,105.2,191.7,103.5,197.8,100.2z"/>
	</g>
</g>
<g id="Слой_3" class="st39">
	<g class="st40">
		<path class="st0" d="M459.1,233.9c-7.2,17.5-14.3,34.9-21.5,52.4c-44.2,3.9-77.5,16.3-98.3,25.8c-10.2,4.7-40.4,19.1-73.2,47.3
			c-25.6,22.1-43.4,44.5-55.2,61.7c12.2,0.3,26,1.6,40.9,5c48.9,11.2,82.5,38.1,100.4,55.2c-7,18.8-17.9,41.5-35.2,64.6
			c-44.6,59.5-103.9,83.9-132,93.3c-42.8,17.1-97.9,47.1-144.2,101.2c-8,9.3-15.1,18.7-21.5,28c-4.8-4.3-9.6-8.6-14.3-12.9
			c11.4-19.6,31.1-48.4,63.1-74.6C88.6,664,99.2,660.6,175,620.5c75.6-40,90.2-52.1,102.6-64.6c24.9-25,39.1-51.6,47.3-70.3
			c-7.7-7.4-19.1-17-34.4-25.8c-25.6-14.7-48.6-19.1-61.7-21.5c-11.6-2.1-26.7-4-44.5-3.6c4.5-8.2,11.8-20.6,22.2-34.4
			c48.1-64,109.9-91.4,132.7-101.2c20.6-8.8,51.8-19.8,91.8-25.1c6.9-14.1,13.9-28.2,20.8-42.3C454.3,232.4,456.7,233.1,459.1,233.9
			z"/>
		<path class="st0" d="M242.5,370.9c1.5-5.4,3.1-13,2.9-22.2c-0.3-11.9-3.3-21.4-5.7-27.3c2.6-0.5,5.3-1,7.9-1.4
			c1.6,6.1,3,13.6,3.6,22.2c0.7,11-0.2,20.6-1.4,28C247.2,370.4,244.8,370.6,242.5,370.9z"/>
		<path class="st0" d="M353.6,433.3c-2.6,4.4-6.9,12.8-7.9,24.4c-1.1,11.8,1.8,21.1,3.6,25.8c-3.3-1.7-6.7-3.3-10-5
			c-1.4-4.6-3.3-12.5-2.2-22.2c1.5-13.3,7.7-22.5,10.8-26.5C349.8,430.9,351.7,432.1,353.6,433.3z"/>
		<path class="st0" d="M198.7,421.8c0.2,2.9,0.5,5.7,0.7,8.6c-3.3-2.1-8.6-5-15.8-6.5c-4.8-1-9-1-12.2-0.7c0-1.7,0-3.3,0-5
			c3.6-0.6,8.9-1,15.1,0C191.5,419,195.7,420.5,198.7,421.8z"/>
		<path class="st0" d="M333.6,509.3c7.4,1.2,14.8,2.4,22.2,3.6c4.5,4.1,9.1,8.1,13.6,12.2c-1,1.7-1.9,3.3-2.9,5
			c-3-3.3-5.8-5.6-7.9-7.2c-2.3-1.7-4.2-3.1-7.2-4.3c-1.9-0.8-3.4-1.1-10-2.2c-2.6-0.4-6.1-0.9-10-1.4
			C332.1,513.2,332.8,511.2,333.6,509.3z"/>
		<path class="st0" d="M299.8,710.2c-1-0.2-1.9-0.5-2.9-0.7c-0.7-6.5-1.1-18.9,5-32.3c2.6-5.7,5.8-10.3,8.6-13.6
			c7.6-3.4,15.3-6.7,23-10c5.5-2.4,11-4.8,16.5-7.2c2.3-3.6,5.9-9.2,10.8-15.8c7.2-9.8,9.3-11.4,10-15.8c1.1-6.8-2.6-12.4-8.6-21.5
			c-3.4-5.1-8.6-12.1-16.5-19.4c-1-7.6-3.3-18.4-9.3-30.1c-3.7-7.2-7.8-12.9-11.5-17.2c1.4-3.1,2.9-6.2,4.3-9.3
			c1.9-1,3.8-1.9,5.7-2.9c0.6,4.1,1.5,9.2,2.9,15.1c1.9,8.2,5.1,21.2,12.9,35.9c2.5,4.7,4.5,7.7,7.9,12.9
			c7.1,10.9,13.8,19.3,18.7,25.1c-0.6,2.5-1.4,6.2-1.4,10.8c-0.1,7.1,1.5,7.9,0.7,11.5c-1.4,6.3-7.2,7.2-14.3,15.1
			c-4,4.4-6.4,8.9-7.9,12.2c-2.7,0.6-6.8,1.6-11.5,3.6c-5.7,2.4-7.6,4.2-14.3,7.9c-11.9,6.6-12.1,4.5-15.8,7.9
			c-4.8,4.5-6.4,9.9-9.3,20.1C301.4,699.5,300.4,705.7,299.8,710.2z"/>
		<path class="st0" d="M327.8,289.8c-2.6,7.7-5.3,15.3-7.9,23c2.9-1,5.7-1.9,8.6-2.9c1.7-5.5,3.3-11,5-16.5
			C331.6,292.2,329.7,291,327.8,289.8z"/>
		<g>
			<g>
				
					<linearGradient id="SVGID_28_" gradientUnits="userSpaceOnUse" x1="1133.0317" y1="709.1268" x2="1133.0317" y2="577.3719" gradientTransform="matrix(-1 0 0 1 1298.6479 0)">
					<stop  offset="0" style="stop-color:#ECA1C4;stop-opacity:0.7"/>
					<stop  offset="1" style="stop-color:#D1658D"/>
				</linearGradient>
				<path class="st41" d="M148.1,590.7c-5.3,4.2-32.2,25.9-33.7,60.3c-0.3,7.2-0.9,26.5,12.2,41.6c3.6,4.2,7.4,7,10.1,8.8
					c0-1.6,0.3-4.2,1.7-7c2-4.1,5-6.3,6.5-7.2c-0.3,2.9-1,6.3-2.2,10c-0.9,2.7-1.9,5.1-2.9,7.2c4,1.9,10.7,4.5,19,4.7
					c4.6,0.1,8.9-0.5,25.8-5.7c13.6-4.2,20.4-6.3,21.9-7.5c11.6-9.6,10.7-28.8,10-42.3c-0.6-13.5-3.1-13.9-6.1-34.8
					c-3.7-25.9-0.6-31.9-5.7-36.6C189.9,568.7,154.1,587.5,148.1,590.7z"/>
				
					<linearGradient id="SVGID_29_" gradientUnits="userSpaceOnUse" x1="1013.2849" y1="705.1546" x2="1084.8947" y2="581.1227" gradientTransform="matrix(-1 0 0 1 1298.6479 0)">
					<stop  offset="0" style="stop-color:#ECA1C4;stop-opacity:0.7"/>
					<stop  offset="1" style="stop-color:#D1658D"/>
				</linearGradient>
				<path class="st42" d="M239.2,576.4c10.8,2.3,14.3,9.2,25.8,19.4c23.1,20.2,33.8,14.7,40.9,28.7c5.6,11,3.1,22.6-0.4,39.1
					c-3.5,16.9-10,29.7-14.7,37.7c-1.9-0.5-5.1-1.6-8.2-3.9c-3.4-2.5-5.4-5.4-6.5-7.2c-0.1,2.2,0.1,6.8,2.9,11.5
					c1.3,2.2,2.8,3.8,4.1,4.9c-6.8,2.1-20,5.2-36,1.9c-8.5-1.7-32.3-8.2-44.5-30.1c-6.8-12.3-6.7-23.4-6.5-38.7
					c0.2-16.8,0.7-49.4,20.8-60.3C227,573.9,237.7,576.1,239.2,576.4z"/>
				
					<linearGradient id="SVGID_30_" gradientUnits="userSpaceOnUse" x1="954.3288" y1="567.3796" x2="1080.6897" y2="567.3796" gradientTransform="matrix(-1 0 0 1 1298.6479 0)">
					<stop  offset="0" style="stop-color:#ECA1C4;stop-opacity:0.7"/>
					<stop  offset="1" style="stop-color:#D1658D"/>
				</linearGradient>
				<path class="st43" d="M218.4,563.5c2.2-12.8,11.3-20.4,29.4-35.2c15.1-12.3,22.6-18.4,32.3-19.4c11.8-1.2,21.4,4.3,38,13.6
					c11,6.2,19.4,12.5,24.7,16.9c-2.7,2.1-5.8,4.3-9.3,6.5c-3.8,2.3-7.4,4.2-10.8,5.7c2.6,0.2,5.5,0.2,8.6,0c5-0.3,9.3-1.2,12.9-2.2
					c-0.2,6.2-1,14.8-3.9,24.7c-1.6,5.3-4.5,15.2-11.5,25.1c-5,7.1-17.8,25.3-35.9,26.5c-11.8,0.8-11.2-6.6-43.8-21.5
					c-14-6.4-20.6-8-25.8-15.8C216.2,577.8,218.1,565.2,218.4,563.5z"/>
				
					<linearGradient id="SVGID_31_" gradientUnits="userSpaceOnUse" x1="1242.5825" y1="589.102" x2="1104.7966" y2="589.102" gradientTransform="matrix(-1 0 0 1 1298.6479 0)">
					<stop  offset="0" style="stop-color:#ECA1C4;stop-opacity:0.7"/>
					<stop  offset="1" style="stop-color:#D1658D"/>
				</linearGradient>
				<path class="st44" d="M193.3,571.5c-3.5-12.5-25.6-16.5-69.7-24.6c-34.8-6.4-42.4-2.3-46.3,1.5c-8.6,8.3-1.7,17.7-13.4,40.9
					c-4.8,9.5-9,14-7.6,20.9c1.7,8.4,10.1,13.3,15.4,16.3c15.9,9,32.6,8.4,40,7.7C152.4,630.2,199.4,593,193.3,571.5z"/>
				
					<linearGradient id="SVGID_32_" gradientUnits="userSpaceOnUse" x1="1108.2628" y1="479.6927" x2="1108.2628" y2="570.7275" gradientTransform="matrix(-1 0 0 1 1298.6479 0)">
					<stop  offset="0" style="stop-color:#ECA1C4;stop-opacity:0.7"/>
					<stop  offset="1" style="stop-color:#D1658D"/>
				</linearGradient>
				<path class="st45" d="M257.9,502.5c-1.6-8.5-8.5-15.3-15.4-18.3c-6.7-2.9-10.9-1.2-21.5-0.7c-21.4,1-21.9-5-38.7-3.6
					c-10.8,0.9-18.4,4.2-33.7,10.8c-20,8.6-23,13.9-24,16.1c-3.8,8.3-0.6,17.1,0.7,21.5c8.5,27.7,41.9,36.9,48.8,38.7
					c9.6,2.6,19.9,5.5,32.3,2.2c17.7-4.7,26.9-18.6,41.6-40.9C257.5,513.7,258.9,507.9,257.9,502.5z"/>
				
					<radialGradient id="SVGID_33_" cx="1090.8359" cy="575.5245" r="20.0065" gradientTransform="matrix(-1 0 0 1 1298.6479 0)" gradientUnits="userSpaceOnUse">
					<stop  offset="0" style="stop-color:#743659"/>
					<stop  offset="1" style="stop-color:#EC7A9F;stop-opacity:0.5"/>
				</radialGradient>
				<path class="st46" d="M230.3,571c-1.9-7.8-11.1-11.6-17.2-12.2c-7.7-0.8-13.4,3.2-20.1,7.9c-4.7,3.3-7.6,5.3-7.9,8.6
					c-0.5,6.3,9.4,11.5,12.2,12.9c4.2,2.2,10.2,5.3,17.2,3.6C223.3,589.7,232.4,580.1,230.3,571z"/>
				
					<radialGradient id="SVGID_34_" cx="721.5863" cy="51.0503" r="53.5397" gradientTransform="matrix(-0.2758 1.1575 1.0601 0.2526 350.7129 -269.2863)" gradientUnits="userSpaceOnUse">
					<stop  offset="9.189189e-02" style="stop-color:#7E384F"/>
					<stop  offset="1" style="stop-color:#A1384F;stop-opacity:0.6"/>
				</radialGradient>
				<path class="st47" d="M175.9,548.8c-1.6,1.9,11.3,11.9,8.9,17.5c-2.7,6.5-23.8,3.2-24,5.2c-0.2,1.6,14.1,3.1,14.3,6
					c0.2,2.3-7.7,5.4-31.6,10c0,0,0,0,0,0c0,0.1,32.9-3.3,37.2,6.4c3,6.8-9.1,16.7-6.3,20.1c2.6,3.2,12.8-6.1,22.1-2.9
					c13.3,4.5,15.2,31.4,17.4,31c2.2-0.4-2.2-24.9,2.1-26.4c2.4-0.8,8.4,4.3,25.2,36.7c-6.6-15.8-9.2-27.9-10.3-35.7
					c-0.5-3.3-1-8,1.5-9.8c4.4-3.2,12.8,6,18,3.1c5.3-3-0.9-14.5,6.2-24.7c4.4-6.4,10.7-7.5,10.1-10c-1-4.4-20.9-0.5-23.5-6.2
					c-1.3-2.9,1.6-8.9,19.6-22.4c0.7-0.5-11.1,10.1-20,7.3c-8.1-2.5-8.8-14.4-15.5-14.8c-5.4-0.3-8,7.3-11.6,6.7
					c-3.1-0.5-6.3-7.2-7.1-31.8c0.5,20.7-1.2,31.5-5,32.3c-4.5,1-11.9-11.7-22.2-38c14.1,33.3,14.6,43.6,11.4,45.6
					C188.8,556.9,177.4,546.9,175.9,548.8z"/>
			</g>
			<g>
				<path class="st8" d="M252.5,511.5c-1.5-3.1-4.1-7.5-8.6-11.5c-11.1-9.8-27.5-11.2-40.2-6.5c-3.5,1.3-9.3,4.1-15.1,10
					c-3.3-1.2-6.7-2.4-10-3.6c-0.2,2.2-0.5,4.3-0.7,6.5c-4.8-0.8-11.9-1.8-20.8-2.9c-6.7-0.8-7.9-0.7-8.6-0.7
					c-5.2-0.5-13,3.1-24.4,21.5c0.7-3.5,2.4-9.4,7.2-15.1c1.8-2.1,4.9-5.8,10-7.9c11.2-4.6,18.8,3.9,27.3-1.4c4.1-2.6,4.6-6,8.6-6.5
					c4.1-0.4,5.6,3,10,3.6c5.9,0.9,8-4.6,15.8-7.9c10.4-4.4,21.3-0.9,28.7,1.4c5.2,1.7,9.5,3.1,13.6,7.2
					C250.3,502.8,251.9,508.6,252.5,511.5z"/>
				<path class="st8" d="M342.2,540.2c-5.2-7.2-10.4-10.2-14.3-11.5c-6.5-2.2-10-0.2-16.5-3.6c-5.1-2.7-5-5-10-7.9
					c-5.8-3.3-11.5-3.5-15.8-3.6c-16.2-0.4-29.7,9.1-33.7,12.2c3.3-4,9.1-9.8,17.9-13.6c3.8-1.6,9.3-3.9,16.5-3.6
					c6.8,0.3,11.7,2.9,17.2,5.7c10.9,5.7,9.7,8.7,17.2,10.8c5,1.4,9,1,13.6,4.3c2.9,2.1,4.8,4.7,5,5
					C340.8,536.6,341.7,538.7,342.2,540.2z"/>
				<path class="st8" d="M254.6,587.5c4.6,9.4,10.2,14,14.3,16.5c8,4.8,13.7,3.4,25.1,10c5.1,3,8.3,4.9,10.8,8.6
					c6.5,10,0.6,23.6-0.7,26.5c0.8-2.8,2-8.3,0.7-15.1c-0.3-1.6-1.6-7.8-5.7-12.9c-8.2-10.2-19.2-6.1-30.8-14.3
					C264,603.9,258.5,598.4,254.6,587.5z"/>
				<path class="st8" d="M157.1,586.1c-5.6,3-14.1,8.3-22.2,17.2c-4.3,4.7-16.7,18.7-20.1,40.9c-2,13.4,0,24.7,2.2,32.3
					c-0.3-4.9-0.4-11.9,0.7-20.1c0.9-6.8,3.8-23.9,15.1-42.3C140.6,601,149.9,592,157.1,586.1z"/>
				<path class="st8" d="M102.6,554.5c-1.4,2.6-3.4,6.8-4.3,12.2c-1.3,7.9,0.9,11-0.7,17.2c-0.6,2.4-1.7,4.9-9.3,13.6
					c-3.9,4.5-9.4,10.5-16.5,17.2c5.5-4.3,11.2-8.6,17.2-12.9c4.8-3.5,9.6-6.8,14.3-10c-1-1.9-1.9-3.8-2.9-5.7
					c1.9-0.5,3.8-1,5.7-1.4c-1.9-3.5-4.8-10.1-5-18.7C101,561.4,101.8,557.4,102.6,554.5z"/>
				<path class="st8" d="M198,613.3c-3.2,11.3-6.6,30.3-0.7,50.9c3.3,11.7,8.1,18.4,9.3,20.1c8,10.9,18,16.2,23.7,18.7
					c-6.4-4.9-14.2-12.3-20.8-23C192.1,652.1,196.3,622.6,198,613.3z"/>
			</g>
			<g>
				<path class="st9" d="M212.3,576.8c5.2,4,11.5,9.8,17.2,17.9c12.5,17.9,14.7,36.2,15.1,45.2c-1.1-8.1-3.6-20-10-33
					C227.5,592.5,218.5,582.7,212.3,576.8z"/>
				<path class="st9" d="M213.8,579.6c-1,0-1.9,0-2.9,0c-0.2,9.3-0.1,19.4,0.7,30.1c1.2,16.6,3.6,31.5,6.5,44.5
					c-3-13-5.5-29-5.7-47.3C212.2,597,212.8,587.8,213.8,579.6z"/>
				<path class="st9" d="M209.5,578.2c-3.5,4-7.5,8.1-12.2,12.2c-13.2,11.5-26.6,18.6-37.3,23c6.7-2,16-5.6,25.8-12.2
					C197.4,593.3,205,584.4,209.5,578.2z"/>
				<path class="st9" d="M216.6,576.8c-0.2,0.5-0.5,1-0.7,1.4c3.9,1.2,8.2,2.2,12.9,2.9c15.2,2.2,28.2,0.2,37.3-2.2
					c-7.9,1.5-18.5,2.7-30.8,1.4C228.2,579.6,221.9,578.3,216.6,576.8z"/>
				<path class="st9" d="M210.2,576c0,0.5,0,1,0,1.4c-2,0.4-5,1.1-8.6,2.2c-11.4,3.4-19.7,7.8-25.1,10.8c-3.4,1.8-7.8,4.4-12.9,7.9
					c3.4-2.6,7.2-5.3,11.5-7.9C187.8,582.6,200.2,578.4,210.2,576z"/>
				<path class="st9" d="M213.8,575.3c4.1-3.7,11.1-8.8,20.8-10.8c2-0.4,3.9-0.6,5.7-0.7c-3.9,0.8-8.5,2.1-13.6,4.3
					C221.4,570.4,217.1,573,213.8,575.3z"/>
				<path class="st9" d="M210.2,574.6c-2.8-2-6.7-4-11.5-5c-16.8-3.5-30.4,9-32.3,10.8c2.9-2.4,7.7-5.8,14.3-7.9
					c9.3-2.9,17-1.7,18.7-1.4C204.1,571.8,207.8,573.4,210.2,574.6z"/>
				<path class="st9" d="M213.8,578.2c2.5,7.3,5,15.2,7.2,23.7c3.4,13.1,5.7,25.4,7.2,36.6c-0.7-10.8-2.4-23.7-6.5-38
					C219.3,592.1,216.6,584.7,213.8,578.2z"/>
				<path class="st9" d="M212.3,578.9c-0.5-0.5-1-1-1.4-1.4c-3.4,5.7-6.8,11.9-10,18.7c-9.8,20.3-15.4,39.6-18.7,56
					c2.6-12.1,6.8-26.6,13.6-42.3C201.1,597.7,206.8,587.5,212.3,578.9z"/>
				<path class="st9" d="M211.6,577.5c-1.8,10.1-3.4,20.4-5,30.8c-2.2,14.1-4.1,28-5.7,41.6c1-11.6,2.4-23.8,4.3-36.6
					C207,600.7,209.2,588.7,211.6,577.5z"/>
				<path class="st10" d="M211.1,567.3c3.7-0.6,8.5,1.1,10.4,5.7c1.9,4.6,0.1,9.9-3.1,12.6c-4.7,3.8-12,1.7-14.6-3.4
					c-2.1-4.3-0.1-8.9,0-9.1C206,568.2,210.6,567.4,211.1,567.3z"/>
			</g>
			<g>
				<path class="st11" d="M248.1,637c0.1,2.1-0.9,4.6-2.8,4.8c-1.9,0.2-3.5-1.9-3.9-4c-0.3-1.5,0-3.5,1.1-4.6
					c0.9-0.9,2.2-1.1,3.3-0.4C247.3,633.6,248,635.4,248.1,637z"/>
				<path class="st11" d="M229.5,637.7c0.4,1.1,0.1,2.6-0.7,2.9c-0.5,0.2-1.2-0.4-1.4-0.7c-0.9-1.2,0-2.8,0-2.9
					c0.2-0.3,0.4-0.7,0.7-0.7C228.7,636.2,229.3,637.1,229.5,637.7z"/>
				<path class="st11" d="M218.1,650.6c0.6,0.4,0.8,1,0.9,1.4c0.3,1.2,0,2.8-0.5,2.9c-0.5,0.1-1.1-0.9-1.4-1.5c-0.5-1.1-0.6-2.7,0-3
					C217.4,650.1,217.9,650.5,218.1,650.6z"/>
				<path class="st11" d="M201.6,647.1c0.7,0.5,0.4,2.1,0,2.9c-0.2,0.5-0.9,1.5-1.4,1.4c-0.6-0.1-0.9-1.7-0.7-2.9
					c0.1-0.5,0.2-1.1,0.7-1.4C200.5,646.8,201.2,646.8,201.6,647.1z"/>
				<path class="st11" d="M184.5,646.5c1.2,1.7,0.3,3.9,0,4.6c-0.6,1.4-1.9,3.3-3.1,3.1c-1.1-0.2-1.4-2.2-1.6-3.1
					c-0.4-2.1-0.2-5.6,1.6-6.2C182.5,644.6,183.9,645.6,184.5,646.5z"/>
				<path class="st11" d="M164.5,611.2c-1.3-1.4-5.2-0.7-6.5,1.5c-0.5,0.9-0.7,2.3,0,3c1.3,1.4,5.2,0.7,6.5-1.5
					C165,613.4,165.2,612,164.5,611.2z"/>
				<path class="st11" d="M166.4,597.6c-0.2,1.4-2.9,2.1-3.6,1.4c-0.4-0.4,0-1.3,0-1.4c0.5-1.1,1.9-2,2.9-1.4
					C166.2,596.4,166.5,597,166.4,597.6z"/>
				<path class="st11" d="M163.7,581.8c0.4,1,1.5,1.4,2.2,1.4c1.9,0,3.8-2.6,3.4-4.2c-0.3-1.2-2-1.9-3.4-1.4
					C164.4,578.1,163.2,580.3,163.7,581.8z"/>
				<path class="st11" d="M269.7,577.8c-0.3-1-2.5-1.1-3.1-1.1c-1,0-2.5,0-3.1,1.1c-0.4,0.6-0.3,1.5,0,2.1c0.8,1.4,3,1.1,3.1,1.1
					C268.4,580.7,270,578.9,269.7,577.8z"/>
				<path class="st11" d="M244.6,561.6c-0.2-1.2-2.3-1.5-2.5-1.6c-0.4-0.1-2.8-0.4-3.8,1.6c-0.4,0.9-0.6,2.3,0,3.1
					c1,1.5,3.5,0.2,3.8,0C243.1,564.1,244.8,562.8,244.6,561.6z"/>
				<path class="st11" d="M238.1,589.7c0.8-0.6,1.9-0.1,2.2,0c0.6,0.3,1.5,0.9,1.4,1.4c-0.1,0.7-1.7,0.9-2.9,0.7
					c-0.5-0.1-1.2-0.2-1.4-0.7C237.2,590.6,237.7,590,238.1,589.7z"/>
				<path class="st11" d="M219.9,561.9c-0.5-0.3-1.4,0.5-1.5,0.6c-0.2,0.2-1.2,1.1-0.8,2.1c0.2,0.4,0.6,0.9,1.1,0.9
					c0.9,0,1.3-1.5,1.4-1.7C220.2,563.2,220.4,562.1,219.9,561.9z"/>
				<path class="st11" d="M196.8,587.2c0.4,0.4,1.5,0,1.6-0.1c0.2-0.1,1.5-0.6,1.5-1.7c0-0.5-0.2-1.1-0.7-1.3
					c-0.8-0.3-1.8,0.9-1.9,1C197,585.8,196.4,586.8,196.8,587.2z"/>
				<path class="st11" d="M188,578.4c0.2,0.4,0.7,0.5,1.1,0.5c1,0,1.9-1,1.7-1.6c-0.2-0.5-1-0.7-1.7-0.5
					C188.3,577,187.7,577.8,188,578.4z"/>
				<path class="st11" d="M184.8,623.8c0.2,1-0.5,1.7-0.8,2c-0.5,0.5-1.4,1.1-1.9,0.8c-0.4-0.3-0.2-1.2-0.1-1.6
					c0.2-1,0.9-2.5,1.7-2.4C184.3,622.7,184.7,623.3,184.8,623.8z"/>
				<path class="st11" d="M202.4,612c0.7,0.6,0.3,2.1-0.1,2.9c-0.3,0.5-0.9,1.5-1.5,1.4c-0.6-0.2-0.8-1.8-0.6-2.9
					c0.1-0.5,0.2-1.1,0.8-1.4C201.4,611.6,202,611.7,202.4,612z"/>
				<path class="st11" d="M226.1,600.3c0.9,0.1,1.4,1.5,1.6,2.4c0.1,0.5,0.1,1.8-0.4,2c-0.6,0.2-1.7-1-2.2-2c-0.2-0.5-0.4-1-0.2-1.6
					C225.1,600.6,225.7,600.2,226.1,600.3z"/>
				<path class="st11" d="M259.2,609.2c1.1-1.9-1.2-3.7-2.9-4.4c-1-0.4-3.5-1.1-4.6-0.1c-1.3,1.1-0.2,3.9,1.3,5.4
					c0.7,0.6,1.5,1.4,3,1.2C257.3,611.1,258.7,610.2,259.2,609.2z"/>
				<path class="st11" d="M198.1,561.1c1.5-0.4,3.4,1.7,3,3.4c-0.3,1.2-1.7,2.2-3,1.7c-1.3-0.5-1.9-2.1-1.5-3.4
					C196.8,562,197.4,561.3,198.1,561.1z"/>
				<path class="st11" d="M231.7,572.5c0.5,0.3,0.9,0.9,0.7,1.4c-0.2,0.8-1.5,1.2-2.2,0.7c-0.6-0.5-0.6-1.7,0-2.2
					C230.7,572.1,231.3,572.2,231.7,572.5z"/>
			</g>
		</g>
		<g>
			<g>
				
					<linearGradient id="SVGID_35_" gradientUnits="userSpaceOnUse" x1="-4.9806" y1="-219.5355" x2="-4.9806" y2="-318.357" gradientTransform="matrix(0.8132 0.5819 0.5819 -0.8132 574.5928 194.7772)">
					<stop  offset="0" style="stop-color:#FFA1D3;stop-opacity:0.7"/>
					<stop  offset="1" style="stop-color:#C7659C"/>
				</linearGradient>
				<path class="st48" d="M400.4,448.4c7.8-0.5,31.9-3.1,48.3-21.5c4.3-4.9,11.6-13.1,11.8-25.1c0.2-8.2-3-14.5-5-17.9
					c-0.5,0.9-2.1,3.1-5,4.3c-1.8,0.7-3.3,0.8-4.3,0.7c1-1.2,2.6-3.3,3.6-6.5c0.7-2.3,0.8-4.4,0.7-5.7c-3.8-3.5-10-8.5-18.7-12.2
					c-7.3-3.1-14.7-6.3-22.3-5c-11.6,2-13.4,12.8-35.8,45.6c-10.4,15.3-14.2,18.7-12.8,24.3C364.3,443.7,395.2,447.7,400.4,448.4z"
					/>
				
					<linearGradient id="SVGID_36_" gradientUnits="userSpaceOnUse" x1="-96.3004" y1="-224.9624" x2="-43.8276" y2="-315.8481" gradientTransform="matrix(0.8132 0.5819 0.5819 -0.8132 574.5928 194.7772)">
					<stop  offset="0" style="stop-color:#FFA1D3;stop-opacity:0.7"/>
					<stop  offset="1" style="stop-color:#C7659C"/>
				</linearGradient>
				<path class="st49" d="M336.7,418c-5.7-6-4.8-11.6-7.5-22.6c-4.5-18.3-12-22.5-13-29.8c-0.2-1.2-0.1-2.7,0.2-4.7
					c0.5-3.6,2.4-11.1,15.7-22.3c5.8-4.9,15.1-11.6,28.3-17c0.9,0.8,2.3,2.4,3.3,4.8c1.2,3.2,0.9,5.9,0.7,7.2
					c1.1-1.4,2.6-3.6,3.6-6.5c0.7-1.9,1-3.7,1.2-5.1c4.9,1.7,13.9,5.4,22,13.9c2.6,2.7,16.8,17.5,14.4,36.9
					c-1.3,10.3-6.3,16.8-13.4,25.9c-7.7,9.9-22.6,29.2-40.2,27.1C343.3,424.8,337.5,418.9,336.7,418z"/>
				
					<linearGradient id="SVGID_37_" gradientUnits="userSpaceOnUse" x1="-143.7196" y1="-327.635" x2="-47.5061" y2="-327.635" gradientTransform="matrix(0.8132 0.5819 0.5819 -0.8132 574.5928 194.7772)">
					<stop  offset="0" style="stop-color:#FFA1D3;stop-opacity:0.7"/>
					<stop  offset="1" style="stop-color:#C7659C"/>
				</linearGradient>
				<path class="st50" d="M344,434.6c-7.1,6.7-16.3,7.4-34.3,8.4c-15,0.9-22.5,1.3-29-2.2c-9.4-5.1-13.9-15.8-17.8-24.4
					c-2.4-5.4-3.8-10-4.7-13.3c3.5-0.5,6.3-2.4,6.5-4.3c0.2-2.3-3.1-5.7-8.7-5.8c3.1-4.5,8.3-10.9,16.1-16.9
					c8.3-6.3,15.8-9.2,18.5-10.1c6.4-2.1,22.6-7.5,34.5-0.5c7.8,4.6,4.1,8.7,17.8,31.5c5.9,9.8,9.3,13.5,9.1,20.4
					C351.8,427,344.9,433.7,344,434.6z"/>
				
					<linearGradient id="SVGID_38_" gradientUnits="userSpaceOnUse" x1="76.1684" y1="-307.8882" x2="-29.0949" y2="-307.8882" gradientTransform="matrix(0.8132 0.5819 0.5819 -0.8132 574.5928 194.7772)">
					<stop  offset="0" style="stop-color:#FFA1D3;stop-opacity:0.7"/>
					<stop  offset="1" style="stop-color:#C7659C"/>
				</linearGradient>
				<path class="st51" d="M363.4,440.5c-3.4,8.9,8.6,20.8,32.7,44.4c19,18.6,25.6,19.5,29.8,18.9c9.2-1.3,9.1-9.8,26.8-18.7
					c7.3-3.6,11.9-4.5,14.2-9.2c2.7-5.7-0.4-12.2-2.4-16.3c-6-12.2-16.7-18.9-21.7-21.6C415.5,423,369.2,425.1,363.4,440.5z"/>
				
					<linearGradient id="SVGID_39_" gradientUnits="userSpaceOnUse" x1="-27.6773" y1="-391.2471" x2="-27.6773" y2="-323.3896" gradientTransform="matrix(0.8132 0.5819 0.5819 -0.8132 574.5928 194.7772)">
					<stop  offset="0" style="stop-color:#FFA1D3;stop-opacity:0.7"/>
					<stop  offset="1" style="stop-color:#C7659C"/>
				</linearGradient>
				<path class="st52" d="M291.7,454.1c-2.8,5.7-1.6,12.7,1.5,17.5c2.9,4.6,6.3,5.4,13.2,9.6c13.9,8.5,11.5,12.3,22.7,18.7
					c7.2,4.1,13.5,5.4,26,8c16.5,3.4,20.7,1.5,22.4,0.6c6.1-3.3,8.1-9.9,9.2-13.1c7.1-20.1-9.8-39.9-13.2-43.9
					c-4.8-5.7-10.1-11.8-19.3-15.1c-13.3-4.7-25.3-0.4-44.5,6.6C297,447.6,293.5,450.5,291.7,454.1z"/>
				
					<radialGradient id="SVGID_40_" cx="-166.83" cy="-472.121" r="20.0065" gradientTransform="matrix(0.6286 0.4268 0.4498 -0.5964 673.2928 221.6009)" gradientUnits="userSpaceOnUse">
					<stop  offset="0" style="stop-color:#743659"/>
					<stop  offset="1" style="stop-color:#EC7A9F;stop-opacity:0.5"/>
				</radialGradient>
				<path class="st53" d="M339.9,425.1c-2.3,5.5,1.8,11.7,5.3,14.6c4.5,3.7,9.9,3.8,16.2,3.9c4.4,0,7.2,0.1,8.8-1.8
					c3.2-3.5-0.8-10.8-1.9-12.9c-1.7-3.1-4-7.5-9.2-9.5C352.6,416.9,342.7,418.7,339.9,425.1z"/>
				
					<radialGradient id="SVGID_41_" cx="-495.0874" cy="917.8077" r="55.7004" gradientTransform="matrix(0.6968 -0.5766 -0.5742 -0.6245 1233.8102 707.2908)" gradientUnits="userSpaceOnUse">
					<stop  offset="9.189189e-02" style="stop-color:#9A1D54"/>
					<stop  offset="1" style="stop-color:#AB549F;stop-opacity:0.6"/>
				</radialGradient>
				<path class="st54" d="M371.6,463.4c3.2-1.1-2.3-16.3,3.6-20.8c7.5-5.7,28.8,9.6,29.4,8.6c0.6-0.9-20.3-10.2-20.1-20.1
					c0.2-8,14.1-14.3,27.3-18.7c-19.8,6.6-27.6,5.7-30.1,2.2c-3.1-4.4,1.6-13.2-1-14.6c-2.5-1.4-7.5,6.3-10.4,5.3
					c-3.2-1-3.7-11.9,1.4-41.6c-0.8,5.4-5.3,35.2-10.8,35.2c-5.7-0.1-9.5-32.3-10-37.3c5.8,29.9,4,40.9-0.7,43
					c-5.5,2.5-15-7.1-17.9-4.3c-2.9,2.8,5.6,13.7,2.9,16.5c-3.9,4-27.1-11.7-27.3-11.5c-0.1,0.2,18.9,6.8,23,20.9
					c2.8,9.5-2.2,18.8,1.4,20.7c3.2,1.7,8.2-5.2,11.5-3.6c5.2,2.6-0.1,23.5,0.7,23.7c0.8,0.2,3.2-20.3,9.6-21.3
					C360.6,444.7,367.9,464.7,371.6,463.4z"/>
			</g>
			<g>
				<path class="st8" d="M299.2,451.1c-0.9,4.6-0.4,8.2,0.2,10.5c3.3,12.2,16.2,18.2,22.3,21c5.1,2.3,10,3.5,12.6,4
					c3.7,0.8,6.9,1,9.2,1.2c0.3,2.1,0.6,4.2,0.8,6.3c1.4-1.1,2.8-2.3,4.2-3.4c1.3,1.2,3.3,3,5.7,5c3,2.5,5.6,4.5,6.3,4.9
					c6.3,4.4,19.9-0.4,25-2.4c-2,1.8-5.8,4.6-11.3,5.9c-2.1,0.5-5.6,1.4-9.9,0.4c-1.2-0.3-2.1-0.6-2.8-0.9c-1-0.5-3.1-1.3-7.2-3.9
					c-4-2.5-4.4-3.2-5.9-3.3c-2.2-0.1-2.8,1.2-4.3,0.7c-2.2-0.7-1.8-3.7-4.3-5.7c-1.4-1.1-1.8-0.4-6.7-1.6c-2.8-0.7-5-1.4-9.4-3
					c-0.3-0.1-2.6-0.9-3.7-1.3c-2.5-1.2-7.2-5.8-16.6-15.1c-5-4.9-7.2-6.5-7.7-9.7C295.5,456.7,297.6,453.1,299.2,451.1z"/>
				<path class="st8" d="M266.1,381.6c-1.6,1.6-3.4,3.7-5,6.5c-0.9,1.5-1.6,3-2.2,4.3c1,0.7,2.2,1.5,3.6,2.2
					c2.1,1.1,4.1,1.7,5.7,2.2c-0.5,1.1-1.7,3.4-4.3,5c-1.4,0.8-2.7,1.2-3.6,1.4c6.1,12.8,11.6,22,15.8,28.6c0.4,0.6,0.5,0.8,0.6,1
					c3.8,5.1,12.9,10,36.3,7.9c-5,1.6-15.2,4.1-26,1.1c-2.5-0.7-5.9-1.8-9.5-4.5c-3.4-2.6-5.3-5.4-7.9-9.6
					c-2.4-3.8-3.7-6.5-5.7-10.8c-1.8-3.7-4.5-9.1-7.9-15.8c1.1-0.1,2.3-0.3,3.6-0.7c2.1-0.6,3.8-1.4,5-2.2c-1.7-0.6-3.7-1.5-5.7-2.9
					c-1.1-0.7-2-1.4-2.9-2.2c1-2,2.6-4.6,5-7.2C262.9,384.1,264.6,382.7,266.1,381.6z"/>
				<path class="st8" d="M332,404.8c1.3-7.6-0.1-12.7-1.6-16c-2.9-6.3-7.1-7.9-11.3-16.7c-1.9-3.9-3.1-6.5-2.9-9.7
					c0.4-8.8,10.2-14.3,12.4-15.5c-1.8,1.3-5,4.1-7.2,8.7c-0.5,1.1-2.5,5.3-2.2,10.1c0.6,9.6,9.3,11.9,12.9,21.7
					C333.5,391.1,334.5,396.7,332,404.8z"/>
				<path class="st8" d="M392.7,447.3c4.9,0.6,12.6,1.1,21.7-0.8c4.8-1,18.9-4,31-15.8c7.3-7.1,11.1-14.7,13.2-20.2
					c-2,3-5.1,7.2-9.5,11.7c-3.6,3.7-13.1,12.6-28.5,18.8C409.8,445.4,399.8,446.9,392.7,447.3z"/>
				<path class="st8" d="M412.8,489.4c1.9-0.8,5.1-2.3,8.2-5.4c3.4-3.5,4.9-7.2,5.6-9.2c1.7,2,4.5,2.1,6,0.8
					c1.1-0.9,1.5-2.6,1.1-4.2c2.5-0.5,5-1,7.5-1.5c6.2-1.2,12.2-2.3,18.1-3.2c-5-0.2-10.6-0.2-16.6,0.4c-3.9,0.3-7.5,0.8-10.9,1.4
					c0.3,1.4-0.2,2.9-1.4,3.6c-1.4,0.9-3.4,0.6-4.5-0.9c-1.3,3.3-3.5,7.6-7,12C416.8,485.7,414.7,487.8,412.8,489.4z"/>
				<path class="st8" d="M379.3,413.6c7-5.4,17.8-15.2,23.4-30.1c3.2-8.4,3.2-14.4,3.2-16c-0.1-9.9-4-17.4-6.5-21.2
					c1.8,5.7,3.4,13.4,2.8,22.6C400.4,393,384.5,408.8,379.3,413.6z"/>
			</g>
			<g>
				<path class="st9" d="M353.8,429.3c-1.5-4.6-2.8-10.8-2.8-18c0.2-16,7.1-27.9,10.9-33.4c-3,5.3-6.7,13.5-8.5,24
					C351.3,413.4,352.5,423.1,353.8,429.3z"/>
				<path class="st9" d="M354.2,427c0.6,0.4,1.2,0.8,1.8,1.2c4.3-5.4,8.8-11.5,13.1-18.3c6.7-10.4,11.9-20.3,15.9-29.3
					c-3.9,9-9.6,19.7-17.7,30.7C362.9,417.3,358.5,422.5,354.2,427z"/>
				<path class="st9" d="M356.2,429.7c4-0.9,8.4-1.6,13.2-2.1c13.5-1.3,25.1,0.3,33.8,2.2c-5.1-1.7-12.6-3.5-21.7-3.7
					C370.6,425.8,361.8,427.9,356.2,429.7z"/>
				<path class="st9" d="M351.1,427.5c0.4-0.2,0.7-0.4,1.1-0.5c-1.9-2.3-4.2-4.8-6.8-7.2c-8.5-7.8-17.6-12.2-24.4-14.6
					c5.6,2.4,12.8,6.3,20,12.3C345.1,420.8,348.4,424.3,351.1,427.5z"/>
				<path class="st9" d="M354.8,430.6c0.2-0.3,0.4-0.6,0.6-0.9c1.5,0.6,3.7,1.5,6.4,2.4c8.7,2.9,15.9,3.8,20.6,4.3
					c2.9,0.3,6.9,0.7,11.7,0.8c-3.3,0.1-6.9,0.1-10.8-0.2C371.8,436.3,362.2,433.5,354.8,430.6z"/>
				<path class="st9" d="M352.2,429.5c-4.3,0.5-11,0.5-17.9-2.5c-1.4-0.6-2.8-1.3-3.9-2c2.8,1.2,6.3,2.4,10.5,3.2
					C345.2,429.2,349.1,429.5,352.2,429.5z"/>
				<path class="st9" d="M354.2,431.5c0.9,2.4,2.4,5.2,5,7.9c9,9.2,23.2,7.6,25.1,7.4c-2.9,0.2-7.4,0.2-12.6-1.4
					c-7.2-2.2-11.5-6.2-12.4-7.1C356.7,435.7,355.1,433.3,354.2,431.5z"/>
				<path class="st9" d="M353.5,427.8c1.7-5.4,3.7-11.2,6.1-17.2c3.8-9.3,7.9-17.6,11.9-24.9c-4.4,6.7-9.2,15.2-13,25.4
					C356.3,417.2,354.7,422.8,353.5,427.8z"/>
				<path class="st9" d="M354.7,428c0.1,0.5,0.2,1,0.3,1.5c4.7-2,9.7-4.2,14.7-6.8c15.3-8,27.5-17,36.9-25.4
					c-7.1,6.1-16.2,13-27.6,19.4C370.3,421.6,362,425.3,354.7,428z"/>
				<path class="st9" d="M354.5,429.2c5.6-5.3,11.3-10.7,17-16.3c7.7-7.5,15.2-15,22.3-22.4c-5.8,6.5-12.2,13.2-19.2,20
					C367.9,417.3,361.1,423.5,354.5,429.2z"/>
				<path class="st10" d="M350.2,435.5c-2.6-1.2-4.9-4.3-4-7.9c0.9-3.6,4.4-6,7.6-6.2c4.7-0.3,8.3,4.1,7.6,8.3
					c-0.6,3.4-3.9,5.4-4.1,5.5C353.9,437.1,350.6,435.6,350.2,435.5z"/>
			</g>
			<g>
				<path class="st11" d="M359.1,376.5c0.6-1.3,2.1-2.5,3.4-2.1s1.7,2.2,1.4,3.6c-0.3,1-1.1,2.1-2.2,2.5c-0.9,0.3-1.8,0-2.4-0.7
					C358.6,378.8,358.7,377.5,359.1,376.5z"/>
				<path class="st11" d="M370.4,385.6c0.3-0.8,1.1-1.6,1.7-1.4c0.4,0.1,0.6,0.7,0.6,1c0.1,1.1-1.2,1.7-1.3,1.7
					c-0.2,0.1-0.5,0.2-0.8,0.1C370.2,386.9,370.2,386.1,370.4,385.6z"/>
				<path class="st11" d="M383.3,382.8c-0.4-0.8-0.2-1.4-0.2-1.8c0.3-1.2,1.5-2.3,2.2-2c0.6,0.3,0.7,1.6,0.7,2.3
					c-0.1,1.3-0.8,2.6-1.7,2.5C383.8,383.7,383.4,382.9,383.3,382.8z"/>
				<path class="st11" d="M392.2,392c-0.2-0.6,0.7-1.4,1.3-1.7c0.4-0.2,1.2-0.5,1.5-0.2c0.3,0.3-0.2,1.4-0.8,2
					c-0.3,0.3-0.6,0.6-1.1,0.5C392.7,392.6,392.3,392.3,392.2,392z"/>
				<path class="st11" d="M403,398.7c-0.3-1.4,1.1-1.9,1.6-2c0.9-0.3,2.6-0.5,3.3,0.2c0.7,0.6,0.3,1.7,0.1,2.1
					c-0.4,1.1-1.8,2.6-3.3,1.9C403.9,400.6,403.2,399.5,403,398.7z"/>
				<path class="st11" d="M401.5,429.6c-0.4,1.2,1.4,2.8,3.3,2.4c0.7-0.2,1.7-0.7,1.9-1.3c0.4-1.2-1.4-2.8-3.3-2.4
					C402.7,428.4,401.8,428.9,401.5,429.6z"/>
				<path class="st11" d="M392,436.5c0.7-0.7,2.8,0,2.9,0.7c0.1,0.4-0.6,0.8-0.6,0.9c-0.8,0.5-2.1,0.3-2.4-0.4
					C391.6,437.3,391.7,436.8,392,436.5z"/>
				<path class="st11" d="M385.2,447.4c0.1-0.4-0.3-0.8-0.6-1c-0.8-0.5-2.1-0.2-2.3,0.4c-0.2,0.5,0.4,1.1,1,1.3
					C384,448.3,385,447.9,385.2,447.4z"/>
				<path class="st11" d="M318.6,404.6c-0.5,1.4,1.6,2.8,2.1,3.2c0.9,0.6,2.3,1.6,3.9,0.8c0.9-0.5,1.6-1.5,1.8-2.4
					c0.4-2.1-2-3.1-2.1-3.2C322.2,402.2,319.1,403.2,318.6,404.6z"/>
				<path class="st11" d="M328.8,423.7c-0.3,0.7,0.5,1.5,0.6,1.6c0.2,0.2,1.2,1.1,2.4,0.5c0.5-0.3,1.1-0.9,1.1-1.5
					c0.1-1-1.6-1.2-1.8-1.2C330.4,423,329.1,423.1,328.8,423.7z"/>
				<path class="st11" d="M343.4,410.6c-0.8,0-1.2-0.7-1.4-0.9c-0.3-0.4-0.6-1.2-0.3-1.5c0.4-0.3,1.5,0.2,2.1,0.8
					c0.3,0.3,0.7,0.7,0.6,1C344.3,410.4,343.8,410.6,343.4,410.6z"/>
				<path class="st11" d="M342.3,435c0.2,0.4,1.1,0.3,1.2,0.2c0.2,0,1.2-0.2,1.5-0.9c0.1-0.3,0-0.8-0.3-1c-0.6-0.4-1.5,0.3-1.6,0.4
					C342.7,434,342.1,434.6,342.3,435z"/>
				<path class="st11" d="M369.9,427.7c0-0.9-1.3-1.3-1.5-1.3c-0.3-0.1-1.8-0.5-2.6,0.9c-0.4,0.6-0.6,1.6-0.3,2.3
					c0.5,1.2,2.2,0.4,2.4,0.3C368.7,429.5,369.9,428.6,369.9,427.7z"/>
				<path class="st11" d="M369.8,438.7c0.1-0.3-0.2-0.6-0.5-0.8c-0.6-0.4-1.7-0.2-1.8,0.2c-0.1,0.4,0.3,0.9,0.8,1
					C368.9,439.4,369.7,439.2,369.8,438.7z"/>
				<path class="st11" d="M392.3,413c0.3-0.7,1.1-0.8,1.4-0.9c0.5-0.1,1.4-0.1,1.5,0.3c0.1,0.3-0.4,0.8-0.6,1
					c-0.6,0.5-1.7,1.1-2.2,0.7C392.1,413.9,392.1,413.3,392.3,413z"/>
				<path class="st11" d="M373.7,414.3c-0.6-1.4,1.3-2.6,2.5-3c0.8-0.3,2.6-0.7,3.3,0.1c0.8,0.8-0.2,2.8-1.5,3.8
					c-0.5,0.4-1.2,1-2.3,0.7C374.9,415.7,374,415,373.7,414.3z"/>
				<path class="st11" d="M355.7,409.4c-0.6-0.4-0.2-1.5,0.1-2.1c0.2-0.4,0.7-1.1,1.2-1c0.5,0.1,0.6,1.3,0.4,2.1
					c-0.1,0.4-0.2,0.8-0.6,1C356.4,409.6,356,409.6,355.7,409.4z"/>
				<path class="st11" d="M341.8,389.9c-0.6,0.3-0.4,1.4-0.1,1.9c0.2,0.3,0.6,1.1,1.1,1c0.5-0.1,0.7-1.1,0.6-1.9
					c0-0.3-0.1-0.7-0.5-1C342.6,389.7,342.1,389.7,341.8,389.9z"/>
				<path class="st11" d="M356,441.8c-0.5-0.2-0.7-1.1-0.3-1.5c0.3-0.2,0.9-0.2,1.2,0.2c0.3,0.4,0.1,0.9-0.2,1.2
					C356.5,441.8,356.2,441.9,356,441.8z"/>
				<path class="st11" d="M339.7,423.6c-0.2-0.4-0.1-0.9,0.2-1.2c0.5-0.4,1.5-0.1,1.7,0.5c0.2,0.6-0.4,1.3-1,1.3
					C340.2,424.2,339.8,423.9,339.7,423.6z"/>
			</g>
		</g>
		<g>
			<g>
				
					<linearGradient id="SVGID_42_" gradientUnits="userSpaceOnUse" x1="686.3348" y1="127.3131" x2="686.3348" y2="51.9348" gradientTransform="matrix(-0.9143 0.4051 -0.4051 -0.9143 791.608 201.2629)">
					<stop  offset="0" style="stop-color:#ECA1C4;stop-opacity:0.7"/>
					<stop  offset="1" style="stop-color:#CA83BD"/>
				</linearGradient>
				<path class="st55" d="M133,427.6c-3.8-0.9-22.8-6-31.7-23.1c-1.9-3.6-6.4-12.8-3.5-23.6c1.4-5.4,4.2-9.3,6.2-11.5
					c0.4,0.7,1.3,1.9,2.9,2.9c1.8,1.1,3.5,1.4,4.3,1.4c-0.6-0.5-1.5-1.1-2.2-2.2c-1.8-2.6-1.6-5.5-1.4-6.5c1.2-0.2,2.9-0.4,5-0.7
					c7.2-1,10.7-1.5,12.8-1.5c6.2,0,10.9,2.5,13,3.6c4.6,2.4,8.5,6.2,20.3,33.4c6.4,14.7,6.8,17.2,5.7,19.7
					C159.8,429.7,136.9,428,133,427.6z"/>
				
					<linearGradient id="SVGID_43_" gradientUnits="userSpaceOnUse" x1="618.0321" y1="121.5408" x2="657.0997" y2="53.8737" gradientTransform="matrix(-0.9143 0.4051 -0.4051 -0.9143 791.608 201.2629)">
					<stop  offset="0" style="stop-color:#ECA1C4;stop-opacity:0.7"/>
					<stop  offset="1" style="stop-color:#CA83BD"/>
				</linearGradient>
				<path class="st56" d="M183.6,415.1c5-3.5,5.2-7.8,8.8-15.4c6-12.6,12-14.7,13.9-19.8c0.6-1.7,0.5-3,0.6-3.5
					c0.6-7.1-2-15.9-8.1-21.3c-5.4-4.7-9.8-3.6-15.1-10c-1.3-1.6-2.2-3.1-2.7-4.1c-0.6,0.2-2.4,0.8-3.7,2.6
					c-1.3,1.8-1.4,3.7-1.4,4.3c-0.7-0.8-1.6-2.3-2.2-4.3c-0.4-1.4-0.4-2.6-0.4-3.5c-3.8,0.6-10.2,2.2-16.7,6.8
					c-2.3,1.6-14.7,10.3-15.9,24.8c-0.6,7.7,2.1,13.2,5.8,20.9c4.1,8.4,12,24.7,25,25.9C177.8,419,182.9,415.6,183.6,415.1z"/>
				
					<linearGradient id="SVGID_44_" gradientUnits="userSpaceOnUse" x1="582.0661" y1="45.2643" x2="654.3734" y2="45.2643" gradientTransform="matrix(-0.9143 0.4051 -0.4051 -0.9143 791.608 201.2629)">
					<stop  offset="0" style="stop-color:#ECA1C4;stop-opacity:0.7"/>
					<stop  offset="1" style="stop-color:#CA83BD"/>
				</linearGradient>
				<path class="st57" d="M175.9,426.1c4.2,6,10.7,7.9,23.5,11.3c10.7,2.9,16.1,4.4,21.3,2.8c5.4-1.6,9.1-6.2,16.5-15.1
					c8.1-9.7,8.5-13.9,8.5-16.1c-0.1-4.2-1.9-7.5-3.2-9.4c-0.8,0.5-1.8,1-2.9,1.4c-1.6,0.7-3,1.1-4.3,1.4c0.7-0.5,2-1.6,2.9-3.6
					c0.6-1.5,0.7-2.8,0.7-3.6c-5.4-5.6-10.6-9.1-14.2-11.2c-2.2-1.2-15.9-8.7-24.8-5.6c-6.3,2.2-4.2,5.8-17.6,20.3
					c-5.8,6.3-8.8,8.5-9.7,13.6C171.3,419.4,175.3,425.3,175.9,426.1z"/>
				
					<linearGradient id="SVGID_45_" gradientUnits="userSpaceOnUse" x1="745.7279" y1="59.5169" x2="667.975" y2="59.5169" gradientTransform="matrix(-0.9143 0.4051 -0.4051 -0.9143 791.608 201.2629)">
					<stop  offset="0" style="stop-color:#ECA1C4;stop-opacity:0.7"/>
					<stop  offset="1" style="stop-color:#CA83BD"/>
				</linearGradient>
				<path class="st58" d="M161,427.5c1.1,7.1-9.4,13.9-30.3,27.5c-16.5,10.7-21.4,10.4-24.4,9.3c-6.4-2.3-5.1-8.6-16.6-17.7
					c-4.7-3.8-8-5.1-8.9-8.9c-1.1-4.6,2.1-8.9,4.2-11.6c6.1-8,14.9-11.3,18.9-12.5C125.9,406.8,159,415.4,161,427.5z"/>
				
					<linearGradient id="SVGID_46_" gradientUnits="userSpaceOnUse" x1="669.1743" y1="-2.3795" x2="669.1743" y2="48.1921" gradientTransform="matrix(-0.9143 0.4051 -0.4051 -0.9143 791.608 201.2629)">
					<stop  offset="0" style="stop-color:#ECA1C4;stop-opacity:0.7"/>
					<stop  offset="1" style="stop-color:#CA83BD"/>
				</linearGradient>
				<path class="st59" d="M210.7,448.3c1.2,4.6-0.8,9.5-3.7,12.6c-2.8,2.9-5.4,3-11,5c-11.3,4.1-10.2,7.3-19.2,10.2
					c-5.8,1.9-10.5,1.9-20,1.9c-12.4,0-15.2-2-16.3-2.9c-3.9-3.4-4.4-8.5-4.7-11c-2.1-15.8,13-27.7,16.1-30.1
					c4.4-3.4,9-7.1,16.2-8.1c10.3-1.5,18.3,3.6,31.2,11.6C207.9,442.7,210,445.4,210.7,448.3z"/>
				
					<radialGradient id="SVGID_47_" cx="959.0194" cy="91.718" r="20.0065" gradientTransform="matrix(-0.5181 0.2169 -0.236 -0.504 686.0732 260.549)" gradientUnits="userSpaceOnUse">
					<stop  offset="0" style="stop-color:#743659"/>
					<stop  offset="1" style="stop-color:#EC7A9F;stop-opacity:0.5"/>
				</radialGradient>
				<path class="st60" d="M180.2,419.8c0.9,4.4-3,8.3-6,9.9c-3.8,2.1-7.7,1.3-12.3,0.4c-3.2-0.6-5.2-1-6.1-2.6
					c-1.8-3.1,2.2-7.8,3.3-9.2c1.7-2,4-4.9,8.1-5.5C172.2,411.9,179.2,414.7,180.2,419.8z"/>
				
					<radialGradient id="SVGID_48_" cx="217.6631" cy="23.9806" r="47.2558" gradientTransform="matrix(-0.3496 -0.44 0.4493 -0.3278 233.5836 524.5629)" gradientUnits="userSpaceOnUse">
					<stop  offset="9.189189e-02" style="stop-color:#7E386D"/>
					<stop  offset="1" style="stop-color:#8D386A;stop-opacity:0.5"/>
				</radialGradient>
				<path class="st61" d="M157.5,440.4c-1.9-1.1,0.3-5.2-1.9-7.9c-3.7-4.5-15.5-0.3-15.8-1.4c-0.3-1.1,10.9-3.1,12.2-8.6
					c1.2-5.4-8-10.5-6.5-13.6c1.7-3.4,12.9,1.2,16.5-3.6c2.6-3.5-0.4-9.6,0.7-10c1.5-0.5,5,9.6,8.6,9.3c4.1-0.3,5.6-13.8,7.9-13.6
					c2.3,0.2,0.4,13.7,7.6,18.6c4.6,3.1,10.3,0.9,11,3c0.8,2.4-7.1,4.4-10,11.8c-2.6,6.4,1,11.5-1.7,13.2c-3.3,2.1-8.1-4.6-15.6-3.6
					C163.6,434.8,160,441.9,157.5,440.4z"/>
			</g>
			<g>
				<path class="st8" d="M205.8,444.9c0,3.5-1,6-1.8,7.7c-3.6,7.3-12.4,11.1-19.3,12c-2.3,0.3-6.5,0.3-7.1,0.4
					c-3.2,0.1-5.8,0-7.6-0.1c-1,1.7-1.9,3.3-2.9,5c-0.5-1.2-1-2.4-1.4-3.6c-2.2,0.7-5.4,1.9-9,3.9c-1.6,0.9-2.2,1.3-2.8,1.7
					c-2.6,1.4-7.5,1.3-17.7-5.6c1.2,1.6,3.5,4.2,7.3,6c1.4,0.7,3.9,1.8,7.1,1.8c3.8-0.1,4.1-1.7,7.9-2c4.4-0.4,5.1,1.8,8.6,1.2
					c3.7-0.6,3.9-3.3,8.2-5.2c4-1.8,5,0,10.1-1.2c2-0.5,6.1-3.2,14.2-8.5c4.3-2.9,6.1-3.6,7-6C207.6,449.6,206.6,446.7,205.8,444.9z
					"/>
				<path class="st8" d="M239.5,400.1c1.1,1.2,2.6,3.2,3.2,6c1.2,5.1-1.1,9.3-2.3,11.3c-2.6,4.5-4.8,4.5-11,11.5
					c-3.6,4-3.3,4.6-4.8,5.9c-3.5,3.2-10.8,5.3-27.4,0.2c3.4,2,10.4,5.3,18.7,4.7c2.2-0.2,4.8-0.4,7.6-1.9c2.5-1.4,4.2-3.3,7.4-7
					c2.4-2.8,2-2.8,3.6-4.6c4.8-5.4,7.1-4.7,9.5-8.3c0.3-0.5,3.5-5.6,1.3-11.4C243.8,402.9,240.7,400.9,239.5,400.1z"/>
				<path class="st8" d="M189,406.2c0.2-5.7,2-9.3,3.5-11.4c3-4.1,6.3-4.7,10.6-10.5c1.9-2.6,3.2-4.3,3.5-6.7c1-6.5-5.3-12-6.6-13.2
					c1.1,1.2,3,3.8,3.9,7.4c0.2,0.9,1,4.3,0.1,7.8c-1.8,6.9-8.5,7.3-12.6,13.9C190,395.9,188.4,399.9,189,406.2z"/>
				<path class="st8" d="M138.8,428c-3.6-0.3-9.3-1.1-15.6-3.9c-3.3-1.4-13.1-5.8-20.1-16.3c-4.2-6.3-5.8-12.5-6.5-16.7
					c1,2.5,2.6,6.1,5.1,10c2.1,3.2,7.6,11.2,17.8,18.1C126.7,424.1,133.7,426.6,138.8,428z"/>
				<path class="st8" d="M118.3,457.7c-3.2-2.6-4.7-5.2-5.5-7.1c-1.1-2.8-1.3-5.6-3.8-8c-0.8-0.7-1.6-1.2-2.2-1.4
					c-1-1.2-1.9-2.4-2.9-3.6c-1.8-0.4-3.7-0.8-5.7-1.4c-4-1.2-7.5-2.6-10.5-4.1c3.8,0.7,7.8,1.6,12,2.8c2.3,0.6,4.5,1.3,6.6,2
					c0.7,1,1.3,1.9,2,2.9c1,0.2,1.9,0.5,2.9,0.7c0.7,2.9,1.7,6.2,3.3,9.9C115.7,453.1,117.1,455.6,118.3,457.7z"/>
				<path class="st8" d="M153.5,405.4c-4.3-5-10.6-13.8-12.4-25.5c-1-6.6-0.2-11,0.1-12.1c1.6-7.2,5.5-12.1,7.9-14.5
					c-2.1,3.9-4.5,9.3-5.4,16.1C141.3,387.2,150.4,401.1,153.5,405.4z"/>
			</g>
			<g>
				<path class="st9" d="M169.6,420.8c1.8-3.1,3.7-7.4,4.7-12.8c2.3-11.7-1-21.4-2.9-26c1.4,4.3,2.8,10.9,2.6,18.8
					C173.7,409.5,171.4,416.4,169.6,420.8z"/>
				<path class="st9" d="M169.6,419c-0.5,0.2-1,0.4-1.5,0.6c-2.3-4.6-4.6-9.8-6.7-15.3c-3.3-8.6-5.6-16.6-7.1-23.8
					c1.5,7.2,4,15.8,8.2,25.1C164.8,410.6,167.2,415.1,169.6,419z"/>
				<path class="st9" d="M167.8,420.7c-2.7-1.2-5.8-2.5-9.2-3.5c-9.6-3-18.2-3.6-24.7-3.5c4-0.5,9.6-0.7,16.3,0.5
					C158,415.7,164,418.5,167.8,420.7z"/>
				<path class="st9" d="M171.8,419.8c-0.2-0.2-0.5-0.4-0.7-0.6c1.7-1.4,3.7-2.9,6-4.2c7.3-4.4,14.6-6.2,19.8-7
					c-4.4,0.9-10.2,2.7-16.3,6C177.1,415.9,174.2,417.9,171.8,419.8z"/>
				<path class="st9" d="M168.6,421.6c-0.1-0.2-0.2-0.5-0.3-0.7c-1.2,0.2-2.9,0.5-5,0.8c-6.7,0.8-12,0.3-15.5,0
					c-2.2-0.2-5.1-0.5-8.6-1.2c2.4,0.6,5,1.1,7.8,1.5C155.5,423.1,162.9,422.6,168.6,421.6z"/>
				<path class="st9" d="M170.7,421.2c3,1,7.9,2,13.3,0.9c1.1-0.2,2.2-0.5,3.1-0.9c-2.2,0.4-4.9,0.8-8.1,0.8
					C175.8,422,172.9,421.6,170.7,421.2z"/>
				<path class="st9" d="M169,422.3c-1,1.6-2.5,3.5-4.8,5c-7.9,5.4-17.9,2.1-19.3,1.6c2.1,0.6,5.4,1.3,9.3,0.9
					c5.5-0.5,9.2-2.8,10-3.3C166.5,425,168,423.4,169,422.3z"/>
				<path class="st9" d="M170,419.7c-0.4-4.2-1-8.7-1.9-13.5c-1.3-7.4-3.1-14-4.9-20c2.2,5.6,4.3,12.5,5.6,20.6
					C169.6,411.5,169.9,415.8,170,419.7z"/>
				<path class="st9" d="M169.1,419.7c-0.1,0.3-0.3,0.7-0.4,1c-3.1-2.1-6.3-4.5-9.6-7.2c-9.9-8.1-17.3-16.6-22.9-24.2
					c4.2,5.5,9.8,11.9,17,18.4C158.8,412.6,164.2,416.6,169.1,419.7z"/>
				<path class="st9" d="M169,420.6c-3.3-4.7-6.6-9.5-9.9-14.5c-4.5-6.7-8.7-13.2-12.8-19.7c3.3,5.6,6.9,11.5,10.9,17.5
					C161.2,409.8,165.1,415.4,169,420.6z"/>
				<path class="st10" d="M171.2,425.8c2.1-0.5,4.1-2.4,4.1-5.1c-0.1-2.8-2.3-5-4.6-5.7c-3.3-0.9-6.6,1.8-6.8,4.9
					c-0.1,2.6,2,4.5,2.2,4.6C168.3,426.4,170.9,425.9,171.2,425.8z"/>
			</g>
			<g>
				<path class="st11" d="M173.4,382.4c-0.4-0.9-1.3-1.7-2.1-1.5c-0.8,0.2-1.1,1.4-0.9,2.3c0.2,0.7,0.7,1.4,1.4,1.7
					c0.6,0.2,1.1,0.1,1.5-0.4C173.7,384,173.6,383.1,173.4,382.4z"/>
				<path class="st11" d="M164.5,387.3c-0.2-1-1-2.2-1.6-2.2c-0.4,0-0.7,0.6-0.7,1c-0.2,1.2,1.1,2.3,1.1,2.4
					c0.2,0.2,0.5,0.4,0.8,0.4C164.5,388.8,164.6,387.9,164.5,387.3z"/>
				<path class="st11" d="M155.1,382.3c0.2-0.3,0.2-0.7,0.1-0.9c-0.1-0.7-0.6-1.4-1-1.4c-0.3,0-0.4,0.7-0.4,1c0,0.7,0.3,1.5,0.7,1.5
					C154.9,382.7,155.1,382.4,155.1,382.3z"/>
				<path class="st11" d="M148.9,389.2c0.8-0.8-0.2-2.1-1-2.7c-0.5-0.4-1.6-1.1-2.3-0.8c-0.8,0.4-0.6,2,0,3c0.3,0.4,0.6,1,1.4,1
					C147.6,389.8,148.5,389.6,148.9,389.2z"/>
				<path class="st11" d="M137.4,390.1c0.1-0.5-0.3-0.9-0.5-1.1c-0.3-0.3-0.8-0.6-1.1-0.4c-0.2,0.2-0.1,0.7,0,0.9
					c0.1,0.5,0.6,1.3,1,1.3C137.2,390.7,137.4,390.4,137.4,390.1z"/>
				<path class="st11" d="M136.1,413.9c-0.2,0.8-2,1.2-3,0.4c-0.4-0.3-0.8-0.9-0.6-1.4c0.2-0.8,2-1.2,3-0.4
					C135.9,412.8,136.2,413.4,136.1,413.9z"/>
				<path class="st11" d="M140.9,420.2c-0.4-0.6-2-0.4-2.2,0.1c-0.1,0.3,0.3,0.7,0.3,0.7c0.5,0.5,1.5,0.6,1.8,0.1
					C141,420.9,141.1,420.5,140.9,420.2z"/>
				<path class="st11" d="M144.2,429.2c0-0.3,0.3-0.6,0.6-0.7c0.6-0.3,1.6,0.2,1.6,0.6c0,0.4-0.4,0.8-0.9,0.8
					C144.9,430.1,144.2,429.7,144.2,429.2z"/>
				<path class="st11" d="M198.2,406.6c0.4,0.5-0.3,1.4-0.5,1.7c-0.3,0.4-0.8,1-1.6,0.9c-0.4-0.1-0.9-0.4-1-0.8
					c-0.4-0.9,0.5-1.6,0.5-1.7C196.4,406,197.8,406,198.2,406.6z"/>
				<path class="st11" d="M188,421.2c0.1,0.3-0.5,0.6-0.6,0.7c-0.1,0.1-0.8,0.4-1.3,0.1c-0.2-0.2-0.4-0.5-0.3-0.7
					c0.1-0.5,1-0.5,1.1-0.5C187.3,420.8,188,420.9,188,421.2z"/>
				<path class="st11" d="M179.9,408.6c0.6,0.1,1-0.3,1.1-0.5c0.3-0.3,0.6-0.8,0.4-1c-0.2-0.3-1.1-0.1-1.7,0.3
					c-0.2,0.1-0.6,0.4-0.6,0.7C179.2,408.4,179.6,408.6,179.9,408.6z"/>
				<path class="st11" d="M177.9,428.9c-0.4,0.6-1.6,0.2-1.8,0.2c-0.2-0.1-1.6-0.5-1.6-1.8c0-0.6,0.3-1.4,0.8-1.7
					c0.9-0.5,1.9,0.8,2,1C177.8,427.2,178.3,428.4,177.9,428.9z"/>
				<path class="st11" d="M159.1,418.9c0.1-0.3,0.8-0.3,0.8-0.3c0.1,0,0.9,0,1.2,0.5c0.1,0.2,0.1,0.6-0.1,0.8
					c-0.3,0.3-1.1-0.1-1.2-0.1C159.5,419.5,159,419.1,159.1,418.9z"/>
				<path class="st11" d="M156.6,425.2c0-0.2,0.3-0.4,0.5-0.5c0.5-0.2,1.2,0.1,1.3,0.5c0,0.3-0.4,0.6-0.7,0.6
					C157.1,425.9,156.6,425.6,156.6,425.2z"/>
				<path class="st11" d="M145.1,404.6c-0.1-1-1-1.2-1.4-1.3c-0.6-0.2-1.8-0.2-2.1,0.3c-0.3,0.5,0.1,1.2,0.3,1.5
					c0.5,0.7,1.6,1.7,2.5,1.2C144.9,405.9,145.2,405.1,145.1,404.6z"/>
				<path class="st11" d="M156.1,405.2c0.2-0.5-0.3-1.1-0.7-1.4c-0.2-0.2-0.8-0.5-1.1-0.4c-0.3,0.2,0,1.1,0.4,1.6
					c0.2,0.2,0.4,0.5,0.7,0.5C155.7,405.5,156,405.4,156.1,405.2z"/>
				<path class="st11" d="M171.2,405.9c0.5-0.2,0.4-1.1,0.2-1.6c-0.1-0.3-0.4-0.9-0.7-0.9c-0.4,0-0.7,0.9-0.6,1.5
					c0,0.3,0,0.6,0.3,0.8C170.6,406,170.9,406,171.2,405.9z"/>
				<path class="st11" d="M183.7,393.7c0.8,0.6,0.2,1.7-0.4,2.3c-0.3,0.4-1.2,1.1-1.9,0.9c-0.7-0.2-0.8-1.6-0.5-2.5
					c0.2-0.4,0.4-0.9,1-1C182.5,393.3,183.2,393.4,183.7,393.7z"/>
				<path class="st11" d="M166.1,429.6c0.4-0.1,0.7-0.7,0.4-1c-0.2-0.2-0.6-0.3-0.9-0.1c-0.3,0.2-0.2,0.6,0,0.9
					C165.7,429.5,165.9,429.6,166.1,429.6z"/>
				<path class="st11" d="M180.6,418.7c0.2-0.3,0.2-0.6,0-0.9c-0.3-0.4-1.1-0.3-1.3,0.1c-0.2,0.4,0.1,1,0.5,1.1
					C180.2,419.1,180.5,418.9,180.6,418.7z"/>
			</g>
		</g>
		<g>
			<path class="st26" d="M320.1,255.1c1.1-1.2,6.9-7.7,15.8-7.2c9.3,0.5,14.5,8.2,15.1,9.2c5.5,8.6,4.9,21.5-2,29.5
				c-8.8,10.3-25.9,9.8-33-1.1C309.9,276.1,313.5,262.4,320.1,255.1z"/>
			<path class="st27" d="M319.4,281.4c4.8-3.1,11.1-6.6,19-9.1c4.9-1.6,9.4-2.5,13.4-3.1c0.4,1.8,2,10.4-2.7,17.3
				c-6.3,9.2-20.6,10.8-26.5,3.9C320.2,287.8,319.6,284.2,319.4,281.4z"/>
			<path class="st28" d="M326.7,298.7c4.9-3.4,15.1-11.7,20.7-26.5c2.1-5.6,3.1-10.8,3.5-15.1c1.5,2.8,3.9,7.9,4.5,14.8
				c0.4,4.3,1.5,15.8-5.3,22.6c-4.4,4.4-10.3,4.9-13.6,5.2C332.5,300.1,329,299.4,326.7,298.7z"/>
			<path class="st29" d="M317.9,296.7c-4.8-2.5-8.4-7.2-9.8-12c-3.1-10.2,2.8-23.9,15.3-32.6c-0.5,6.5-0.4,15.1,2.6,24.5
				c3.6,11.4,9.2,17,7,20.5C330.7,300.6,322.8,299.3,317.9,296.7z"/>
		</g>
		<g>
			
				<linearGradient id="SVGID_49_" gradientUnits="userSpaceOnUse" x1="1060.524" y1="325.0836" x2="1060.524" y2="258.2749" gradientTransform="matrix(-1 0 0 1 1298.6479 0)">
				<stop  offset="0" style="stop-color:#D34689"/>
				<stop  offset="1" style="stop-color:#D34689;stop-opacity:0.5"/>
			</linearGradient>
			<path class="st62" d="M240.2,258.3c-0.7,0.5-2,1.6-2.8,3.6c-0.6,1.5-0.7,2.8-0.7,3.6c-0.5-0.7-1.1-1.9-1.4-3.6
				c-0.2-1.3-0.1-2.4,0-3.2c-2.5,0.7-6.8,2.3-10.7,6c0,0-6.4,6.1-8,16.4c-3,20.5,21.9,47.5,33.8,43.6c9-2.9,11.8-24,7.9-39.2
				C254.5,270.7,244.6,261.8,240.2,258.3z"/>
			
				<linearGradient id="SVGID_50_" gradientUnits="userSpaceOnUse" x1="1044.6616" y1="328.547" x2="1044.6616" y2="265.8709" gradientTransform="matrix(-1 0 0 1 1298.6479 0)">
				<stop  offset="0" style="stop-color:#CC4281"/>
				<stop  offset="1" style="stop-color:#F45DA2;stop-opacity:0.5"/>
			</linearGradient>
			<path class="st63" d="M294.3,281.1c0.6,1.2,1.4,2.9,2,5.1c2.8,10.6-1.8,22.5-8.7,29.8c-9.1,9.7-21.8,10.8-33.8,12
				c-6.4,0.6-9.6,0.9-13.5,0c-19.3-4.4-30-29.2-29.3-47.9c0-0.7,0.6-13.5,4.5-14.2c3.5-0.6,6.6,8.9,16.9,22.9
				c7,9.5,14.3,19.5,21.4,18.5c5-0.7,6.1-6.3,12.4-13.1c8-8.6,17.9-12.2,24.9-13.9c0.1,2,0.1,4,0.2,5.9
				C292.3,284.5,293.3,282.8,294.3,281.1z"/>
			
				<linearGradient id="SVGID_51_" gradientUnits="userSpaceOnUse" x1="1035.0942" y1="326.2453" x2="1035.0942" y2="260.4529" gradientTransform="matrix(-1 0 0 1 1298.6479 0)">
				<stop  offset="0" style="stop-color:#E874AC"/>
				<stop  offset="1" style="stop-color:#F45DA2;stop-opacity:0.5"/>
			</linearGradient>
			<path class="st64" d="M267.3,260.5c0.6,2.1,1.2,4.3,1.7,6.4c0.5-1.8,0.9-3.6,1.4-5.4c2.1,1.2,4.8,3.2,7.2,6.1
				c8.6,10.5,8.4,27,2,38.6c-8.4,15.2-28.4,23.7-34.9,18.5c-4-3.2-1.2-14.5,4.5-37c1.6-6.4,3.6-13,9-19.4
				C261.4,264.5,264.8,262,267.3,260.5z"/>
		</g>
		<g>
			
				<linearGradient id="SVGID_52_" gradientUnits="userSpaceOnUse" x1="36.4809" y1="1568.734" x2="36.4809" y2="1501.9855" gradientTransform="matrix(0.4199 -0.9968 -1.0638 -0.4481 2026.0238 1255.4496)">
				<stop  offset="0" style="stop-color:#D35674"/>
				<stop  offset="1" style="stop-color:#D34689;stop-opacity:0.5"/>
			</linearGradient>
			<path class="st65" d="M442.4,548.6c-1.4-1.6-2.7-3.2-4.1-4.8c1.9-0.1,3.8-0.2,5.7-0.3c0.3-2.5,0.5-6.2-0.7-10.5
				c-3-10.9-12.3-16.4-15.3-18.3c-20.9-12.5-59.4,1.1-60.5,14.2c-1.1,12.6,32.7,23.7,38.6,25.6c17,5.6,24.7,2.9,28.7,0.7
				C438.4,553.2,440.8,550.6,442.4,548.6z"/>
			
				<linearGradient id="SVGID_53_" gradientUnits="userSpaceOnUse" x1="19.7966" y1="1572.2576" x2="19.7966" y2="1509.5815" gradientTransform="matrix(0.4199 -0.9968 -1.0638 -0.4481 2026.0238 1255.4496)">
				<stop  offset="0" style="stop-color:#E595A1"/>
				<stop  offset="1" style="stop-color:#D34689;stop-opacity:0.5"/>
			</linearGradient>
			<path class="st66" d="M395.3,592.2c-6.8,4.4-26.3-6.3-34.2-22.4c-6.7-13.6-1.6-29.2,1.4-39.1c2-6.6,3-9.9,5.7-13.5
				c12.8-17.3,43.7-16.8,63.3-7.7c0.7,0.3,14.1,6.6,13.2,10.8c-0.8,3.7-12.2,2.6-31.4,6.6c-13.1,2.7-26.8,5.5-28.7,13
				c-1.3,5.1,3.9,7.8,8.7,18.2C398.7,570.3,401.5,588.2,395.3,592.2z"/>
			
				<linearGradient id="SVGID_54_" gradientUnits="userSpaceOnUse" x1="11.9535" y1="1569.7145" x2="11.9535" y2="1504.0696" gradientTransform="matrix(0.4199 -0.9968 -1.0638 -0.4481 2026.0238 1255.4496)">
				<stop  offset="0" style="stop-color:#E874AC"/>
				<stop  offset="1" style="stop-color:#F45DA2;stop-opacity:0.5"/>
			</linearGradient>
			<path class="st67" d="M428.7,574.5c-1.1,1-3.8-0.1-6.2-1.4c1,1.5,2.2,3.9,1.4,5.7c-1.4,3.3-8.2,3-11.5,2.9
				c-8.3-0.3-26-1-37.6-15.4c-11.4-14.2-13.5-37.5-5-43.1c9.7-6.4,31.3,11.5,39.8,19.8C421.7,555,431.5,571.9,428.7,574.5z"/>
		</g>
		<g>
			<path class="st36" d="M413.6,645.6c0.2,1.6,1,10.3-5.3,16.5c-6.6,6.6-15.8,5.2-17,5c-10.1-1.7-19.2-10.9-20.5-21.3
				c-1.7-13.5,10.1-25.8,23-23.7C404.9,623.9,412.6,635.7,413.6,645.6z"/>
			<path class="st37" d="M408.9,661.4c-1.8-0.1-5.1-0.5-8.6-2.2c-10.4-4.9-15.2-17.3-13.6-18.7c0.7-0.6,2.9,1,6.5,3.6
				C397.3,647.3,403.3,652.6,408.9,661.4z"/>
			<path class="st38" d="M376.8,621.2c-0.7,5.9-1.5,19,5.7,33.2c2.7,5.4,5.9,9.6,8.8,12.7c-3.1-0.8-8.5-2.5-14-6.6
				c-3.4-2.6-12.7-9.5-13.2-19.1c-0.3-6.2,3.3-11,5.2-13.6C371.9,624.5,374.8,622.4,376.8,621.2z"/>
			<path class="st29" d="M384.2,616c5.1-1.8,11-1.4,15.5,0.8c9.6,4.6,15.8,18.2,13.8,33.2c-4.4-4.7-11-10.5-19.8-14.6
				c-10.8-5-18.7-4.6-19.9-8.6C372.7,622.8,379,617.9,384.2,616z"/>
		</g>
		<g>
			<path class="st27" d="M344.3,697.1c-0.4,1.3-2.7,8.6-10,11.4c-7.6,3-14.5-1.3-15.4-1.9c-7.5-4.8-11.7-15.4-9.1-24.2
				c3.3-11.4,17.1-17.2,26.7-11.1C344.8,676.8,346.9,688.9,344.3,697.1z"/>
			<path class="st26" d="M340.2,690.2c-2.7,1.1-8.4,3-15.7,2.2c-6.6-0.7-11.3-3.3-13.7-4.9c0-0.7,0-1.6,0.1-2.6
				c0.9-8.1,7.4-17.2,13.8-17.5C331.3,667.1,340,676.2,340.2,690.2z"/>
			<path class="st28" d="M331,663.3c4.7,0.3,9.3,2.7,12.2,6c6.1,7,6.4,20-0.4,31.4c-1.9-5.3-5.2-12.2-10.9-18.5
				c-7-7.7-13.5-10.2-13-13.8C319.4,664.8,326.2,663,331,663.3z"/>
			<path class="st29" d="M323.2,664.9c-2.6,4.5-7.8,14.8-6.9,28.6c0.3,5.2,1.4,9.7,2.6,13.2c-2.3-1.7-6-4.9-9-10.1
				c-1.9-3.2-6.9-12-4-19.9c1.9-5.1,6.4-7.7,8.9-9.1C318.1,665.9,321.2,665.2,323.2,664.9z"/>
		</g>
		<g>
			<path class="st36" d="M401.9,255.3c0.7-0.8,4.7-5.1,10.8-4.8c6.4,0.4,9.9,5.6,10.3,6.3c3.7,5.8,3.3,14.5-1.4,19.9
				c-6.1,6.9-17.7,6.5-22.5-0.9C394.9,269.4,397.3,260.2,401.9,255.3z"/>
			<path class="st37" d="M412,250.5c0.8,1,2.1,2.8,2.8,5.3c2.3,7.5-1.8,15.5-3.2,15.2c-0.6-0.1-0.8-1.9-1.1-4.9
				C410.2,262.7,410.1,257.3,412,250.5z"/>
			<path class="st38" d="M406.3,284.7c3.3-2.3,10.3-7.8,14.2-17.8c1.5-3.8,2.1-7.3,2.4-10.1c1,1.9,2.6,5.4,3.1,10
				c0.3,2.9,1,10.7-3.7,15.2c-3,3-7.1,3.3-9.3,3.5C410.2,285.6,407.8,285.1,406.3,284.7z"/>
			<path class="st29" d="M400.3,283.3c-3.3-1.7-5.7-4.9-6.7-8.1c-2.1-6.9,2-16.1,10.5-21.9c-0.4,4.4-0.3,10.2,1.7,16.5
				c2.4,7.7,6.2,11.5,4.7,13.9C409,286,403.6,285.1,400.3,283.3z"/>
		</g>
	</g>
	<path class="st68" d="M491.4,603.3c-0.5,18.5,0.9,35,2.9,48.8c-4.8,4.8-9.6,9.6-14.3,14.3c-2.3-15.2-3.8-31.7-3.8-49.3
		c-0.2,0.2-0.3,0.4-0.5,0.6c-9.7,10.8-20.3,14-34.4,31.6c-4.6,5.7-7.9,10.9-10,14.3c-9.3-6.3-31.6-23.3-44.5-54.5
		c-15.3-37.2-7.2-70.2-4.3-80.3c7.6,2.4,15.3,4.8,23,7.2c-4.2,13.6-9.5,39.1,1.4,64.6c3.2,7.5,11.3,26.5,24.4,27.3
		c10.7,0.6,19.1-11.3,27.3-23c15.1-21.5,19.2-43.5,21.5-57.4c2.4-13.8,2.8-25.3,2.9-33c6.2-1,12.4-1.9,18.7-2.9
		c-0.7,20-3.2,37-6,50.5C493.4,574,491.8,587.9,491.4,603.3z"/>
	<path class="st68" d="M650.7,270.4c-2.3,18.7-5.2,37.8-8.6,57.4c-12.8,72.4-31.5,137.5-52.4,194.6c-13.6-3.2-27.2-6.4-40.9-9.5
		c-8.4,7.8-18,18.2-27.3,31.6c-7.5,10.8-13.1,21.2-17.2,30.1c0.7,11.6,3.6,31.8,15.8,53.1c7.4,13,16.1,22.4,23,28.7
		c16.6-5.1,33.2-10.1,49.7-15.2c0.6,8.5,1.2,16.9,1.9,25.2c2.8-2,6.6-5.2,10-10c4.4-6.1,6.3-12.1,7.2-15.8
		c-1.7-17.7-2.7-36.9-2.9-57.4c-0.2-24.3,1-46.9,2.9-67.4c12.9-52.1,25.8-104.3,38.7-156.4c2.9-32.5,5.7-65,8.6-97.6L650.7,270.4z
		 M548.8,624.8c-9.6-4.9-14.5-15.1-17.9-22.2c-4.5-9.4-6-18.1-6.5-23.7c4.2-7.2,9.1-14.9,15.1-23c5.6-7.6,11.2-14.3,16.5-20.1
		c4.1,0.5,15.1,2.4,24.4,11.5c4.8,4.7,7.5,9.8,8.9,13.2c0.3,18.3,1,36.9,2,56C577.5,627.1,560.9,631,548.8,624.8z"/>
	<path class="st68" d="M748.2,571.7c-4.3-16.8-15.2-27.8-31.6-44.5c-11.9-12.2-23.4-20.5-31.6-25.8c-15.7,16-26.9,30.8-34.4,41.6
		c-14.1,20.3-21.1,30.8-21.5,44.5c-0.5,15,6.4,25.8,17.2,43c11.6,18.4,21.5,34.2,37.3,35.9c11.7,1.3,21.2-5.8,28.7-11.5
		C733.9,638.8,756.7,604.9,748.2,571.7z M709.5,632c-6,5.5-13.8,12.7-23,11.5c-9.1-1.2-14.8-10.8-26.1-29.8
		c-7.9-13.3-11.9-20.1-11.7-27.4c0.3-8.7,5.1-15.4,14.6-28.3c5.1-6.9,12.7-16.2,23.3-26.4c5.5,3.4,13.3,8.7,21.4,16.4
		c10.6,10.2,18.1,17.3,21.4,28.3C736,598,721.8,620.6,709.5,632z"/>
	<path class="st68" d="M817.1,541.6c-6.9,5-13.8,10-20.7,14.9c7.9,7,16.7,16.3,25,28.1c14.3,20.4,21.1,40.1,24.4,53.1
		c-1,9.6-1.9,19.1-2.9,28.7c-7.2-15.8-14.3-31.6-21.5-47.3c-3.1-8.7-9.5-22.4-23-33c-2.9-2.3-5.8-4.2-8.6-5.7v1.4
		c0.2,20.5,1.2,39.7,2.9,57.4c-0.9,3.7-2.8,9.7-7.2,15.8c-3.5,4.8-7.2,8-10,10c-1.1-13.2-2.1-26.6-2.9-40.2
		c-2.1-35.3-3-69.2-2.9-101.9c21.2-57.6,40.2-123.3,53.1-196.6c3.5-19.6,6.3-38.7,8.6-57.4l8.6-8.6c-2.9,32.5-5.7,65-8.6,97.6
		c-12.9,52.1-25.8,104.3-38.7,156.4c-0.8,8.4-1.4,17.1-1.9,26.1c7.6-5.7,15.5-12,23.4-18.9c24.6-21.6,43.3-43.7,57.4-63.1
		c-0.3,3.8-0.5,7.6-0.7,11.5c-0.3,4.8-0.5,9.6-0.7,14.3c-8.1,10.2-17.2,20.8-27.3,31.6C834.1,525.2,825.5,533.8,817.1,541.6z"/>
	<path class="st68" d="M985,603.3c-0.5,18.5,0.9,35,2.9,48.8c-4.8,4.8-9.6,9.6-14.3,14.3c-2.3-15.2-3.8-31.7-3.8-49.3
		c-0.2,0.2-0.3,0.4-0.5,0.6c-9.7,10.8-20.3,14-34.4,31.6c-4.6,5.7-7.9,10.9-10,14.3c-9.3-6.3-31.6-23.3-44.5-54.5
		c-15.3-37.2-7.2-70.2-4.3-80.3c7.6,2.4,15.3,4.8,23,7.2c-4.2,13.6-9.5,39.1,1.4,64.6c3.2,7.5,11.3,26.5,24.4,27.3
		c10.7,0.6,19.1-11.3,27.3-23c15.1-21.5,19.2-43.5,21.5-57.4c2.4-13.8,2.8-25.3,2.9-33c6.2-1,12.4-1.9,18.7-2.9
		c-0.7,20-3.2,37-6,50.5C986.9,574,985.4,587.9,985,603.3z"/>
</g>
</svg>
